STARTFONT 2.1
FONT -Vovanium-Salut Mono-Bold-R-Normal--14-140-72-72-C-70-ISO10646-1
SIZE 14 72 72
FONTBOUNDINGBOX 7 14 0 -3
STARTPROPERTIES 20
POINT_SIZE 140
PIXEL_SIZE 14
RESOLUTION_X 72
RESOLUTION_Y 72
FONT_ASCENT 11
FONT_DESCENT 3
AVERAGE_WIDTH 70
SPACING "C"
CAP_HEIGHT 9
CHARSET_ENCODING "1"
CHARSET_REGISTRY "ISO10646"
FAMILY_NAME "Salut Mono"
FOUNDRY "Vovanium"
RELATIVE_SETWIDTH 50
RELATIVE_WEIGHT 70
SETWIDTH_NAME "Normal"
SLANT "R"
WEIGHT_NAME "Bold"
X_HEIGHT 6
_GBDFED_INFO "Edited with gbdfed 1.6."
ENDPROPERTIES
CHARS 1329
STARTCHAR SPACE
ENCODING 32
SWIDTH 500 0
DWIDTH 7 0
BBX 7 14 0 -3
BITMAP
00
00
00
00
00
00
00
00
00
00
00
00
00
00
ENDCHAR
STARTCHAR EXCLAMATION MARK
ENCODING 33
SWIDTH 500 0
DWIDTH 7 0
BBX 7 14 0 -3
BITMAP
00
00
38
38
38
30
30
00
38
38
38
00
00
00
ENDCHAR
STARTCHAR QUOTATION MARK
ENCODING 34
SWIDTH 500 0
DWIDTH 7 0
BBX 7 14 0 -3
BITMAP
00
00
6C
6C
6C
48
00
00
00
00
00
00
00
00
ENDCHAR
STARTCHAR NUMBER SIGN
ENCODING 35
SWIDTH 500 0
DWIDTH 7 0
BBX 7 14 0 -3
BITMAP
00
00
6C
6C
FE
6C
6C
6C
FE
6C
6C
00
00
00
ENDCHAR
STARTCHAR DOLLAR SIGN
ENCODING 36
SWIDTH 500 0
DWIDTH 7 0
BBX 7 14 0 -3
BITMAP
18
18
3C
66
60
60
3C
06
06
66
3C
18
18
00
ENDCHAR
STARTCHAR PERCENT SIGN
ENCODING 37
SWIDTH 500 0
DWIDTH 7 0
BBX 7 14 0 -3
BITMAP
00
00
70
52
76
0C
18
30
6E
4A
0E
00
00
00
ENDCHAR
STARTCHAR AMPERSAND
ENCODING 38
SWIDTH 500 0
DWIDTH 7 0
BBX 7 14 0 -3
BITMAP
00
00
38
60
60
60
3E
6C
6C
6C
36
00
00
00
ENDCHAR
STARTCHAR APOSTROPHE
ENCODING 39
SWIDTH 500 0
DWIDTH 7 0
BBX 7 14 0 -3
BITMAP
00
00
18
18
18
10
00
00
00
00
00
00
00
00
ENDCHAR
STARTCHAR LEFT PARENTHESIS
ENCODING 40
SWIDTH 500 0
DWIDTH 7 0
BBX 7 14 0 -3
BITMAP
00
0C
18
30
30
60
60
60
60
30
30
18
0C
00
ENDCHAR
STARTCHAR RIGHT PARENTHESIS
ENCODING 41
SWIDTH 500 0
DWIDTH 7 0
BBX 7 14 0 -3
BITMAP
00
60
30
18
18
0C
0C
0C
0C
18
18
30
60
00
ENDCHAR
STARTCHAR ASTERISK
ENCODING 42
SWIDTH 500 0
DWIDTH 7 0
BBX 7 14 0 -3
BITMAP
00
00
00
00
00
10
38
7C
38
6C
00
00
00
00
ENDCHAR
STARTCHAR PLUS SIGN
ENCODING 43
SWIDTH 500 0
DWIDTH 7 0
BBX 7 14 0 -3
BITMAP
00
00
00
00
00
18
18
7E
18
18
00
00
00
00
ENDCHAR
STARTCHAR COMMA
ENCODING 44
SWIDTH 500 0
DWIDTH 7 0
BBX 7 14 0 -3
BITMAP
00
00
00
00
00
00
00
00
00
18
18
30
60
00
ENDCHAR
STARTCHAR HYPHEN-MINUS
ENCODING 45
SWIDTH 500 0
DWIDTH 7 0
BBX 7 14 0 -3
BITMAP
00
00
00
00
00
00
7C
7C
00
00
00
00
00
00
ENDCHAR
STARTCHAR FULL STOP
ENCODING 46
SWIDTH 500 0
DWIDTH 7 0
BBX 7 14 0 -3
BITMAP
00
00
00
00
00
00
00
00
38
38
38
00
00
00
ENDCHAR
STARTCHAR SOLIDUS
ENCODING 47
SWIDTH 500 0
DWIDTH 7 0
BBX 7 14 0 -3
BITMAP
00
06
06
0C
0C
18
18
30
30
60
60
C0
C0
00
ENDCHAR
STARTCHAR DIGIT ZERO
ENCODING 48
SWIDTH 500 0
DWIDTH 7 0
BBX 7 14 0 -3
BITMAP
00
00
18
24
66
66
66
66
66
24
18
00
00
00
ENDCHAR
STARTCHAR DIGIT ONE
ENCODING 49
SWIDTH 500 0
DWIDTH 7 0
BBX 7 14 0 -3
BITMAP
00
00
18
38
78
18
18
18
18
18
7E
00
00
00
ENDCHAR
STARTCHAR DIGIT TWO
ENCODING 50
SWIDTH 500 0
DWIDTH 7 0
BBX 7 14 0 -3
BITMAP
00
00
3C
66
06
06
0C
18
30
60
7E
00
00
00
ENDCHAR
STARTCHAR DIGIT THREE
ENCODING 51
SWIDTH 500 0
DWIDTH 7 0
BBX 7 14 0 -3
BITMAP
00
00
7E
0C
18
3C
06
06
06
66
3C
00
00
00
ENDCHAR
STARTCHAR DIGIT FOUR
ENCODING 52
SWIDTH 500 0
DWIDTH 7 0
BBX 7 14 0 -3
BITMAP
00
00
1C
1C
3C
3C
6C
6C
7E
0C
0C
00
00
00
ENDCHAR
STARTCHAR DIGIT FIVE
ENCODING 53
SWIDTH 500 0
DWIDTH 7 0
BBX 7 14 0 -3
BITMAP
00
00
7E
60
60
7C
06
06
06
66
3C
00
00
00
ENDCHAR
STARTCHAR DIGIT SIX
ENCODING 54
SWIDTH 500 0
DWIDTH 7 0
BBX 7 14 0 -3
BITMAP
00
00
1C
30
60
7C
66
66
66
66
3C
00
00
00
ENDCHAR
STARTCHAR DIGIT SEVEN
ENCODING 55
SWIDTH 500 0
DWIDTH 7 0
BBX 7 14 0 -3
BITMAP
00
00
7E
06
06
0C
0C
18
18
30
30
00
00
00
ENDCHAR
STARTCHAR DIGIT EIGHT
ENCODING 56
SWIDTH 500 0
DWIDTH 7 0
BBX 7 14 0 -3
BITMAP
00
00
3C
66
66
66
3C
66
66
66
3C
00
00
00
ENDCHAR
STARTCHAR DIGIT NINE
ENCODING 57
SWIDTH 500 0
DWIDTH 7 0
BBX 7 14 0 -3
BITMAP
00
00
3C
66
66
66
66
3E
06
0C
38
00
00
00
ENDCHAR
STARTCHAR COLON
ENCODING 58
SWIDTH 500 0
DWIDTH 7 0
BBX 7 14 0 -3
BITMAP
00
00
00
00
38
38
38
00
38
38
38
00
00
00
ENDCHAR
STARTCHAR SEMICOLON
ENCODING 59
SWIDTH 500 0
DWIDTH 7 0
BBX 7 14 0 -3
BITMAP
00
00
00
00
38
38
38
00
00
18
18
30
60
00
ENDCHAR
STARTCHAR LESS-THAN SIGN
ENCODING 60
SWIDTH 500 0
DWIDTH 7 0
BBX 7 14 0 -3
BITMAP
00
00
00
00
06
1E
78
78
1E
06
00
00
00
00
ENDCHAR
STARTCHAR EQUALS SIGN
ENCODING 61
SWIDTH 500 0
DWIDTH 7 0
BBX 7 14 0 -3
BITMAP
00
00
00
00
00
7C
7C
00
7C
7C
00
00
00
00
ENDCHAR
STARTCHAR GREATER-THAN SIGN
ENCODING 62
SWIDTH 500 0
DWIDTH 7 0
BBX 7 14 0 -3
BITMAP
00
00
00
00
60
78
1E
1E
78
60
00
00
00
00
ENDCHAR
STARTCHAR QUESTION MARK
ENCODING 63
SWIDTH 500 0
DWIDTH 7 0
BBX 7 14 0 -3
BITMAP
00
00
3C
66
06
06
3C
00
38
38
38
00
00
00
ENDCHAR
STARTCHAR COMMERCIAL AT
ENCODING 64
SWIDTH 500 0
DWIDTH 7 0
BBX 7 14 0 -3
BITMAP
00
00
3C
66
C6
DE
B6
B6
B6
DE
C0
66
3C
00
ENDCHAR
STARTCHAR LATIN CAPITAL LETTER A
ENCODING 65
SWIDTH 500 0
DWIDTH 7 0
BBX 7 14 0 -3
BITMAP
00
00
18
18
3C
3C
3C
66
7E
66
66
00
00
00
ENDCHAR
STARTCHAR LATIN CAPITAL LETTER B
ENCODING 66
SWIDTH 500 0
DWIDTH 7 0
BBX 7 14 0 -3
BITMAP
00
00
7C
66
66
66
7C
66
66
66
7C
00
00
00
ENDCHAR
STARTCHAR LATIN CAPITAL LETTER C
ENCODING 67
SWIDTH 500 0
DWIDTH 7 0
BBX 7 14 0 -3
BITMAP
00
00
1C
36
60
60
60
60
60
36
1C
00
00
00
ENDCHAR
STARTCHAR LATIN CAPITAL LETTER D
ENCODING 68
SWIDTH 500 0
DWIDTH 7 0
BBX 7 14 0 -3
BITMAP
00
00
78
6C
66
66
66
66
66
6C
78
00
00
00
ENDCHAR
STARTCHAR LATIN CAPITAL LETTER E
ENCODING 69
SWIDTH 500 0
DWIDTH 7 0
BBX 7 14 0 -3
BITMAP
00
00
7E
60
60
60
7C
60
60
60
7E
00
00
00
ENDCHAR
STARTCHAR LATIN CAPITAL LETTER F
ENCODING 70
SWIDTH 500 0
DWIDTH 7 0
BBX 7 14 0 -3
BITMAP
00
00
7E
60
60
60
7C
60
60
60
60
00
00
00
ENDCHAR
STARTCHAR LATIN CAPITAL LETTER G
ENCODING 71
SWIDTH 500 0
DWIDTH 7 0
BBX 7 14 0 -3
BITMAP
00
00
1C
36
60
60
60
6E
66
36
1C
00
00
00
ENDCHAR
STARTCHAR LATIN CAPITAL LETTER H
ENCODING 72
SWIDTH 500 0
DWIDTH 7 0
BBX 7 14 0 -3
BITMAP
00
00
66
66
66
66
7E
66
66
66
66
00
00
00
ENDCHAR
STARTCHAR LATIN CAPITAL LETTER I
ENCODING 73
SWIDTH 500 0
DWIDTH 7 0
BBX 7 14 0 -3
BITMAP
00
00
3C
18
18
18
18
18
18
18
3C
00
00
00
ENDCHAR
STARTCHAR LATIN CAPITAL LETTER J
ENCODING 74
SWIDTH 500 0
DWIDTH 7 0
BBX 7 14 0 -3
BITMAP
00
00
1E
06
06
06
06
06
06
66
3C
00
00
00
ENDCHAR
STARTCHAR LATIN CAPITAL LETTER K
ENCODING 75
SWIDTH 500 0
DWIDTH 7 0
BBX 7 14 0 -3
BITMAP
00
00
66
6C
6C
6C
78
6C
6C
6C
66
00
00
00
ENDCHAR
STARTCHAR LATIN CAPITAL LETTER L
ENCODING 76
SWIDTH 500 0
DWIDTH 7 0
BBX 7 14 0 -3
BITMAP
00
00
60
60
60
60
60
60
60
60
7E
00
00
00
ENDCHAR
STARTCHAR LATIN CAPITAL LETTER M
ENCODING 77
SWIDTH 500 0
DWIDTH 7 0
BBX 7 14 0 -3
BITMAP
00
00
66
66
7E
7E
56
56
46
66
66
00
00
00
ENDCHAR
STARTCHAR LATIN CAPITAL LETTER N
ENCODING 78
SWIDTH 500 0
DWIDTH 7 0
BBX 7 14 0 -3
BITMAP
00
00
66
76
76
7E
7E
6E
6E
66
66
00
00
00
ENDCHAR
STARTCHAR LATIN CAPITAL LETTER O
ENCODING 79
SWIDTH 500 0
DWIDTH 7 0
BBX 7 14 0 -3
BITMAP
00
00
3C
66
66
66
66
66
66
66
3C
00
00
00
ENDCHAR
STARTCHAR LATIN CAPITAL LETTER P
ENCODING 80
SWIDTH 500 0
DWIDTH 7 0
BBX 7 14 0 -3
BITMAP
00
00
7C
66
66
66
7C
60
60
60
60
00
00
00
ENDCHAR
STARTCHAR LATIN CAPITAL LETTER Q
ENCODING 81
SWIDTH 500 0
DWIDTH 7 0
BBX 7 14 0 -3
BITMAP
00
00
3C
66
66
66
66
66
66
66
3C
18
0E
00
ENDCHAR
STARTCHAR LATIN CAPITAL LETTER R
ENCODING 82
SWIDTH 500 0
DWIDTH 7 0
BBX 7 14 0 -3
BITMAP
00
00
7C
66
66
66
7C
78
6C
6C
66
00
00
00
ENDCHAR
STARTCHAR LATIN CAPITAL LETTER S
ENCODING 83
SWIDTH 500 0
DWIDTH 7 0
BBX 7 14 0 -3
BITMAP
00
00
3C
66
60
60
3C
06
06
66
3C
00
00
00
ENDCHAR
STARTCHAR LATIN CAPITAL LETTER T
ENCODING 84
SWIDTH 500 0
DWIDTH 7 0
BBX 7 14 0 -3
BITMAP
00
00
7E
18
18
18
18
18
18
18
18
00
00
00
ENDCHAR
STARTCHAR LATIN CAPITAL LETTER U
ENCODING 85
SWIDTH 500 0
DWIDTH 7 0
BBX 7 14 0 -3
BITMAP
00
00
66
66
66
66
66
66
66
66
3C
00
00
00
ENDCHAR
STARTCHAR LATIN CAPITAL LETTER V
ENCODING 86
SWIDTH 500 0
DWIDTH 7 0
BBX 7 14 0 -3
BITMAP
00
00
66
66
66
66
3C
3C
3C
18
18
00
00
00
ENDCHAR
STARTCHAR LATIN CAPITAL LETTER W
ENCODING 87
SWIDTH 500 0
DWIDTH 7 0
BBX 7 14 0 -3
BITMAP
00
00
66
66
46
56
56
56
7E
2C
2C
00
00
00
ENDCHAR
STARTCHAR LATIN CAPITAL LETTER X
ENCODING 88
SWIDTH 500 0
DWIDTH 7 0
BBX 7 14 0 -3
BITMAP
00
00
66
66
3C
3C
18
3C
3C
66
66
00
00
00
ENDCHAR
STARTCHAR LATIN CAPITAL LETTER Y
ENCODING 89
SWIDTH 500 0
DWIDTH 7 0
BBX 7 14 0 -3
BITMAP
00
00
66
66
3C
3C
18
18
18
18
18
00
00
00
ENDCHAR
STARTCHAR LATIN CAPITAL LETTER Z
ENCODING 90
SWIDTH 500 0
DWIDTH 7 0
BBX 7 14 0 -3
BITMAP
00
00
7E
06
0C
0C
18
30
30
60
7E
00
00
00
ENDCHAR
STARTCHAR LEFT SQUARE BRACKET
ENCODING 91
SWIDTH 500 0
DWIDTH 7 0
BBX 7 14 0 -3
BITMAP
00
00
3E
30
30
30
30
30
30
30
30
3E
00
00
ENDCHAR
STARTCHAR REVERSE SOLIDUS
ENCODING 92
SWIDTH 500 0
DWIDTH 7 0
BBX 7 14 0 -3
BITMAP
00
C0
C0
60
60
30
30
18
18
0C
0C
06
06
00
ENDCHAR
STARTCHAR RIGHT SQUARE BRACKET
ENCODING 93
SWIDTH 500 0
DWIDTH 7 0
BBX 7 14 0 -3
BITMAP
00
00
7C
0C
0C
0C
0C
0C
0C
0C
0C
7C
00
00
ENDCHAR
STARTCHAR CIRCUMFLEX ACCENT
ENCODING 94
SWIDTH 500 0
DWIDTH 7 0
BBX 7 14 0 -3
BITMAP
00
00
18
3C
66
00
00
00
00
00
00
00
00
00
ENDCHAR
STARTCHAR LOW LINE
ENCODING 95
SWIDTH 500 0
DWIDTH 7 0
BBX 7 14 0 -3
BITMAP
00
00
00
00
00
00
00
00
00
00
00
00
FE
00
ENDCHAR
STARTCHAR GRAVE ACCENT
ENCODING 96
SWIDTH 500 0
DWIDTH 7 0
BBX 7 14 0 -3
BITMAP
00
00
30
18
00
00
00
00
00
00
00
00
00
00
ENDCHAR
STARTCHAR LATIN SMALL LETTER A
ENCODING 97
SWIDTH 500 0
DWIDTH 7 0
BBX 7 14 0 -3
BITMAP
00
00
00
00
00
3C
06
3E
66
66
3E
00
00
00
ENDCHAR
STARTCHAR LATIN SMALL LETTER B
ENCODING 98
SWIDTH 500 0
DWIDTH 7 0
BBX 7 14 0 -3
BITMAP
00
00
60
60
60
7C
66
66
66
66
7C
00
00
00
ENDCHAR
STARTCHAR LATIN SMALL LETTER C
ENCODING 99
SWIDTH 500 0
DWIDTH 7 0
BBX 7 14 0 -3
BITMAP
00
00
00
00
00
3C
66
60
60
66
3C
00
00
00
ENDCHAR
STARTCHAR LATIN SMALL LETTER D
ENCODING 100
SWIDTH 500 0
DWIDTH 7 0
BBX 7 14 0 -3
BITMAP
00
00
06
06
06
3E
66
66
66
66
3E
00
00
00
ENDCHAR
STARTCHAR LATIN SMALL LETTER E
ENCODING 101
SWIDTH 500 0
DWIDTH 7 0
BBX 7 14 0 -3
BITMAP
00
00
00
00
00
3C
66
7E
60
66
3C
00
00
00
ENDCHAR
STARTCHAR LATIN SMALL LETTER F
ENCODING 102
SWIDTH 500 0
DWIDTH 7 0
BBX 7 14 0 -3
BITMAP
00
00
1E
30
30
7C
30
30
30
30
30
00
00
00
ENDCHAR
STARTCHAR LATIN SMALL LETTER G
ENCODING 103
SWIDTH 500 0
DWIDTH 7 0
BBX 7 14 0 -3
BITMAP
00
00
00
00
00
3E
66
66
7C
60
3C
06
06
7C
ENDCHAR
STARTCHAR LATIN SMALL LETTER H
ENCODING 104
SWIDTH 500 0
DWIDTH 7 0
BBX 7 14 0 -3
BITMAP
00
00
60
60
60
7C
66
66
66
66
66
00
00
00
ENDCHAR
STARTCHAR LATIN SMALL LETTER I
ENCODING 105
SWIDTH 500 0
DWIDTH 7 0
BBX 7 14 0 -3
BITMAP
00
00
18
18
00
78
18
18
18
18
18
00
00
00
ENDCHAR
STARTCHAR LATIN SMALL LETTER J
ENCODING 106
SWIDTH 500 0
DWIDTH 7 0
BBX 7 14 0 -3
BITMAP
00
00
0C
0C
00
3C
0C
0C
0C
0C
0C
0C
0C
78
ENDCHAR
STARTCHAR LATIN SMALL LETTER K
ENCODING 107
SWIDTH 500 0
DWIDTH 7 0
BBX 7 14 0 -3
BITMAP
00
00
60
60
60
6C
78
70
78
6C
66
00
00
00
ENDCHAR
STARTCHAR LATIN SMALL LETTER L
ENCODING 108
SWIDTH 500 0
DWIDTH 7 0
BBX 7 14 0 -3
BITMAP
00
00
78
18
18
18
18
18
18
18
0E
00
00
00
ENDCHAR
STARTCHAR LATIN SMALL LETTER M
ENCODING 109
SWIDTH 500 0
DWIDTH 7 0
BBX 7 14 0 -3
BITMAP
00
00
00
00
00
7C
7E
56
56
56
56
00
00
00
ENDCHAR
STARTCHAR LATIN SMALL LETTER N
ENCODING 110
SWIDTH 500 0
DWIDTH 7 0
BBX 7 14 0 -3
BITMAP
00
00
00
00
00
7C
66
66
66
66
66
00
00
00
ENDCHAR
STARTCHAR LATIN SMALL LETTER O
ENCODING 111
SWIDTH 500 0
DWIDTH 7 0
BBX 7 14 0 -3
BITMAP
00
00
00
00
00
3C
66
66
66
66
3C
00
00
00
ENDCHAR
STARTCHAR LATIN SMALL LETTER P
ENCODING 112
SWIDTH 500 0
DWIDTH 7 0
BBX 7 14 0 -3
BITMAP
00
00
00
00
00
7C
66
66
66
66
7C
60
60
60
ENDCHAR
STARTCHAR LATIN SMALL LETTER Q
ENCODING 113
SWIDTH 500 0
DWIDTH 7 0
BBX 7 14 0 -3
BITMAP
00
00
00
00
00
3E
66
66
66
66
3E
06
06
06
ENDCHAR
STARTCHAR LATIN SMALL LETTER R
ENCODING 114
SWIDTH 500 0
DWIDTH 7 0
BBX 7 14 0 -3
BITMAP
00
00
00
00
00
7C
76
60
60
60
60
00
00
00
ENDCHAR
STARTCHAR LATIN SMALL LETTER S
ENCODING 115
SWIDTH 500 0
DWIDTH 7 0
BBX 7 14 0 -3
BITMAP
00
00
00
00
00
3C
60
3C
06
66
3C
00
00
00
ENDCHAR
STARTCHAR LATIN SMALL LETTER T
ENCODING 116
SWIDTH 500 0
DWIDTH 7 0
BBX 7 14 0 -3
BITMAP
00
00
30
30
30
7C
30
30
30
30
1E
00
00
00
ENDCHAR
STARTCHAR LATIN SMALL LETTER U
ENCODING 117
SWIDTH 500 0
DWIDTH 7 0
BBX 7 14 0 -3
BITMAP
00
00
00
00
00
66
66
66
66
66
3E
00
00
00
ENDCHAR
STARTCHAR LATIN SMALL LETTER V
ENCODING 118
SWIDTH 500 0
DWIDTH 7 0
BBX 7 14 0 -3
BITMAP
00
00
00
00
00
66
66
3C
3C
18
18
00
00
00
ENDCHAR
STARTCHAR LATIN SMALL LETTER W
ENCODING 119
SWIDTH 500 0
DWIDTH 7 0
BBX 7 14 0 -3
BITMAP
00
00
00
00
00
66
66
56
56
7E
2C
00
00
00
ENDCHAR
STARTCHAR LATIN SMALL LETTER X
ENCODING 120
SWIDTH 500 0
DWIDTH 7 0
BBX 7 14 0 -3
BITMAP
00
00
00
00
00
66
3C
18
18
3C
66
00
00
00
ENDCHAR
STARTCHAR LATIN SMALL LETTER Y
ENCODING 121
SWIDTH 500 0
DWIDTH 7 0
BBX 7 14 0 -3
BITMAP
00
00
00
00
00
66
66
66
3C
3C
3C
18
18
70
ENDCHAR
STARTCHAR LATIN SMALL LETTER Z
ENCODING 122
SWIDTH 500 0
DWIDTH 7 0
BBX 7 14 0 -3
BITMAP
00
00
00
00
00
7E
0C
18
30
60
7E
00
00
00
ENDCHAR
STARTCHAR LEFT CURLY BRACKET
ENCODING 123
SWIDTH 500 0
DWIDTH 7 0
BBX 7 14 0 -3
BITMAP
00
00
0E
18
18
18
18
70
18
18
18
18
0E
00
ENDCHAR
STARTCHAR VERTICAL LINE
ENCODING 124
SWIDTH 500 0
DWIDTH 7 0
BBX 7 14 0 -3
BITMAP
00
00
18
18
18
18
18
18
18
18
18
18
00
00
ENDCHAR
STARTCHAR RIGHT CURLY BRACKET
ENCODING 125
SWIDTH 500 0
DWIDTH 7 0
BBX 7 14 0 -3
BITMAP
00
00
70
18
18
18
18
0E
18
18
18
18
70
00
ENDCHAR
STARTCHAR TILDE
ENCODING 126
SWIDTH 500 0
DWIDTH 7 0
BBX 7 14 0 -3
BITMAP
00
00
00
00
00
00
36
7E
6C
00
00
00
00
00
ENDCHAR
STARTCHAR NO-BREAK SPACE
ENCODING 160
SWIDTH 500 0
DWIDTH 7 0
BBX 7 14 0 -3
BITMAP
00
00
00
00
00
00
00
00
00
00
00
00
00
00
ENDCHAR
STARTCHAR INVERTED EXCLAMATION MARK
ENCODING 161
SWIDTH 500 0
DWIDTH 7 0
BBX 7 14 0 -3
BITMAP
00
00
00
00
00
38
38
38
00
18
18
38
38
38
ENDCHAR
STARTCHAR CENT SIGN
ENCODING 162
SWIDTH 500 0
DWIDTH 7 0
BBX 7 14 0 -3
BITMAP
00
00
00
18
18
3C
66
60
60
66
3C
18
18
00
ENDCHAR
STARTCHAR POUND SIGN
ENCODING 163
SWIDTH 500 0
DWIDTH 7 0
BBX 7 14 0 -3
BITMAP
00
00
1C
36
30
7C
30
30
30
30
7E
00
00
00
ENDCHAR
STARTCHAR CURRENCY SIGN
ENCODING 164
SWIDTH 500 0
DWIDTH 7 0
BBX 7 14 0 -3
BITMAP
00
00
00
00
66
7E
24
24
7E
66
00
00
00
00
ENDCHAR
STARTCHAR YEN SIGN
ENCODING 165
SWIDTH 500 0
DWIDTH 7 0
BBX 7 14 0 -3
BITMAP
00
00
66
66
3C
7E
18
7E
18
18
18
00
00
00
ENDCHAR
STARTCHAR BROKEN BAR
ENCODING 166
SWIDTH 500 0
DWIDTH 7 0
BBX 7 14 0 -3
BITMAP
00
18
18
18
18
18
00
00
18
18
18
18
18
00
ENDCHAR
STARTCHAR SECTION SIGN
ENCODING 167
SWIDTH 500 0
DWIDTH 7 0
BBX 7 14 0 -3
BITMAP
00
00
1C
36
30
38
6C
66
36
1C
0C
6C
38
00
ENDCHAR
STARTCHAR DIAERESIS
ENCODING 168
SWIDTH 500 0
DWIDTH 7 0
BBX 7 14 0 -3
BITMAP
00
00
6C
6C
00
00
00
00
00
00
00
00
00
00
ENDCHAR
STARTCHAR COPYRIGHT SIGN
ENCODING 169
SWIDTH 500 0
DWIDTH 7 0
BBX 7 14 0 -3
BITMAP
00
00
38
7C
C6
BA
A2
A2
A2
BA
C6
7C
38
00
ENDCHAR
STARTCHAR FEMININE ORDINAL INDICATOR
ENCODING 170
SWIDTH 500 0
DWIDTH 7 0
BBX 7 14 0 -3
BITMAP
00
38
0C
3C
4C
3C
00
00
00
00
00
00
00
00
ENDCHAR
STARTCHAR LEFT-POINTING DOUBLE ANGLE QUOTATION MARK
ENCODING 171
SWIDTH 500 0
DWIDTH 7 0
BBX 7 14 0 -3
BITMAP
00
00
00
00
00
18
36
6C
36
18
00
00
00
00
ENDCHAR
STARTCHAR NOT SIGN
ENCODING 172
SWIDTH 500 0
DWIDTH 7 0
BBX 7 14 0 -3
BITMAP
00
00
00
00
00
00
7E
06
06
00
00
00
00
00
ENDCHAR
STARTCHAR SOFT HYPHEN
ENCODING 173
SWIDTH 500 0
DWIDTH 7 0
BBX 7 14 0 -3
BITMAP
00
00
00
00
00
00
00
00
00
00
00
00
00
00
ENDCHAR
STARTCHAR REGISTERED SIGN
ENCODING 174
SWIDTH 500 0
DWIDTH 7 0
BBX 7 14 0 -3
BITMAP
00
00
38
7C
C6
BA
AA
B2
AA
AA
C6
7C
38
00
ENDCHAR
STARTCHAR MACRON
ENCODING 175
SWIDTH 500 0
DWIDTH 7 0
BBX 7 14 0 -3
BITMAP
00
00
3C
00
00
00
00
00
00
00
00
00
00
00
ENDCHAR
STARTCHAR DEGREE SIGN
ENCODING 176
SWIDTH 500 0
DWIDTH 7 0
BBX 7 14 0 -3
BITMAP
00
00
38
6C
6C
38
00
00
00
00
00
00
00
00
ENDCHAR
STARTCHAR PLUS-MINUS SIGN
ENCODING 177
SWIDTH 500 0
DWIDTH 7 0
BBX 7 14 0 -3
BITMAP
00
00
00
18
18
7E
18
18
00
7E
00
00
00
00
ENDCHAR
STARTCHAR SUPERSCRIPT TWO
ENCODING 178
SWIDTH 500 0
DWIDTH 7 0
BBX 7 14 0 -3
BITMAP
38
4C
0C
18
30
7C
00
00
00
00
00
00
00
00
ENDCHAR
STARTCHAR SUPERSCRIPT THREE
ENCODING 179
SWIDTH 500 0
DWIDTH 7 0
BBX 7 14 0 -3
BITMAP
7C
18
38
0C
4C
38
00
00
00
00
00
00
00
00
ENDCHAR
STARTCHAR ACUTE ACCENT
ENCODING 180
SWIDTH 500 0
DWIDTH 7 0
BBX 7 14 0 -3
BITMAP
00
00
18
30
00
00
00
00
00
00
00
00
00
00
ENDCHAR
STARTCHAR MICRO SIGN
ENCODING 181
SWIDTH 500 0
DWIDTH 7 0
BBX 7 14 0 -3
BITMAP
00
00
00
00
00
66
66
66
66
6E
7E
60
60
60
ENDCHAR
STARTCHAR PILCROW SIGN
ENCODING 182
SWIDTH 500 0
DWIDTH 7 0
BBX 7 14 0 -3
BITMAP
00
00
7C
EC
EC
EC
6C
6C
6C
6C
6C
6C
6C
00
ENDCHAR
STARTCHAR MIDDLE DOT
ENCODING 183
SWIDTH 500 0
DWIDTH 7 0
BBX 7 14 0 -3
BITMAP
00
00
00
00
00
00
38
38
38
00
00
00
00
00
ENDCHAR
STARTCHAR CEDILLA
ENCODING 184
SWIDTH 500 0
DWIDTH 7 0
BBX 7 14 0 -3
BITMAP
00
00
00
00
00
00
00
00
00
00
00
18
0C
38
ENDCHAR
STARTCHAR SUPERSCRIPT ONE
ENCODING 185
SWIDTH 500 0
DWIDTH 7 0
BBX 7 14 0 -3
BITMAP
18
38
18
18
18
3C
00
00
00
00
00
00
00
00
ENDCHAR
STARTCHAR MASCULINE ORDINAL INDICATOR
ENCODING 186
SWIDTH 500 0
DWIDTH 7 0
BBX 7 14 0 -3
BITMAP
00
38
64
64
64
38
00
00
00
00
00
00
00
00
ENDCHAR
STARTCHAR RIGHT-POINTING DOUBLE ANGLE QUOTATION MARK
ENCODING 187
SWIDTH 500 0
DWIDTH 7 0
BBX 7 14 0 -3
BITMAP
00
00
00
00
00
18
6C
36
6C
18
00
00
00
00
ENDCHAR
STARTCHAR VULGAR FRACTION ONE QUARTER
ENCODING 188
SWIDTH 500 0
DWIDTH 7 0
BBX 7 14 0 -3
BITMAP
30
70
30
30
36
7C
18
30
66
CE
0E
16
1E
06
ENDCHAR
STARTCHAR VULGAR FRACTION ONE HALF
ENCODING 189
SWIDTH 500 0
DWIDTH 7 0
BBX 7 14 0 -3
BITMAP
30
70
30
30
36
7C
18
30
6C
D6
06
0C
18
1E
ENDCHAR
STARTCHAR VULGAR FRACTION THREE QUARTERS
ENCODING 190
SWIDTH 500 0
DWIDTH 7 0
BBX 7 14 0 -3
BITMAP
78
30
70
18
1A
74
08
10
26
4E
0E
16
1E
06
ENDCHAR
STARTCHAR INVERTED QUESTION MARK
ENCODING 191
SWIDTH 500 0
DWIDTH 7 0
BBX 7 14 0 -3
BITMAP
00
00
00
00
00
38
38
38
00
38
60
60
66
3C
ENDCHAR
STARTCHAR LATIN CAPITAL LETTER A WITH GRAVE
ENCODING 192
SWIDTH 500 0
DWIDTH 7 0
BBX 7 14 0 -3
BITMAP
30
18
00
18
3C
3C
3C
66
7E
66
66
00
00
00
ENDCHAR
STARTCHAR LATIN CAPITAL LETTER A WITH ACUTE
ENCODING 193
SWIDTH 500 0
DWIDTH 7 0
BBX 7 14 0 -3
BITMAP
0C
18
00
18
3C
3C
3C
66
7E
66
66
00
00
00
ENDCHAR
STARTCHAR LATIN CAPITAL LETTER A WITH CIRCUMFLEX
ENCODING 194
SWIDTH 500 0
DWIDTH 7 0
BBX 7 14 0 -3
BITMAP
18
2C
00
18
3C
3C
3C
66
7E
66
66
00
00
00
ENDCHAR
STARTCHAR LATIN CAPITAL LETTER A WITH TILDE
ENCODING 195
SWIDTH 500 0
DWIDTH 7 0
BBX 7 14 0 -3
BITMAP
74
5C
00
18
3C
3C
3C
66
7E
66
66
00
00
00
ENDCHAR
STARTCHAR LATIN CAPITAL LETTER A WITH DIAERESIS
ENCODING 196
SWIDTH 500 0
DWIDTH 7 0
BBX 7 14 0 -3
BITMAP
6C
6C
00
18
3C
3C
3C
66
7E
66
66
00
00
00
ENDCHAR
STARTCHAR LATIN CAPITAL LETTER A WITH RING ABOVE
ENCODING 197
SWIDTH 500 0
DWIDTH 7 0
BBX 7 14 0 -3
BITMAP
38
28
38
18
3C
3C
3C
66
7E
66
66
00
00
00
ENDCHAR
STARTCHAR LATIN CAPITAL LETTER AE
ENCODING 198
SWIDTH 500 0
DWIDTH 7 0
BBX 7 14 0 -3
BITMAP
00
00
1E
3C
2C
6C
6C
7E
6C
6C
6E
00
00
00
ENDCHAR
STARTCHAR LATIN CAPITAL LETTER C WITH CEDILLA
ENCODING 199
SWIDTH 500 0
DWIDTH 7 0
BBX 7 14 0 -3
BITMAP
00
00
1C
36
60
60
60
60
60
36
1C
18
0C
38
ENDCHAR
STARTCHAR LATIN CAPITAL LETTER E WITH GRAVE
ENCODING 200
SWIDTH 500 0
DWIDTH 7 0
BBX 7 14 0 -3
BITMAP
30
18
00
7E
60
60
7C
60
60
60
7E
00
00
00
ENDCHAR
STARTCHAR LATIN CAPITAL LETTER E WITH ACUTE
ENCODING 201
SWIDTH 500 0
DWIDTH 7 0
BBX 7 14 0 -3
BITMAP
0C
18
00
7E
60
60
7C
60
60
60
7E
00
00
00
ENDCHAR
STARTCHAR LATIN CAPITAL LETTER E WITH CIRCUMFLEX
ENCODING 202
SWIDTH 500 0
DWIDTH 7 0
BBX 7 14 0 -3
BITMAP
18
2C
00
7E
60
60
7C
60
60
60
7E
00
00
00
ENDCHAR
STARTCHAR LATIN CAPITAL LETTER E WITH DIAERESIS
ENCODING 203
SWIDTH 500 0
DWIDTH 7 0
BBX 7 14 0 -3
BITMAP
6C
6C
00
7E
60
60
7C
60
60
60
7E
00
00
00
ENDCHAR
STARTCHAR LATIN CAPITAL LETTER I WITH GRAVE
ENCODING 204
SWIDTH 500 0
DWIDTH 7 0
BBX 7 14 0 -3
BITMAP
30
18
00
3C
18
18
18
18
18
18
3C
00
00
00
ENDCHAR
STARTCHAR LATIN CAPITAL LETTER I WITH ACUTE
ENCODING 205
SWIDTH 500 0
DWIDTH 7 0
BBX 7 14 0 -3
BITMAP
0C
18
00
3C
18
18
18
18
18
18
3C
00
00
00
ENDCHAR
STARTCHAR LATIN CAPITAL LETTER I WITH CIRCUMFLEX
ENCODING 206
SWIDTH 500 0
DWIDTH 7 0
BBX 7 14 0 -3
BITMAP
18
2C
00
3C
18
18
18
18
18
18
3C
00
00
00
ENDCHAR
STARTCHAR LATIN CAPITAL LETTER I WITH DIAERESIS
ENCODING 207
SWIDTH 500 0
DWIDTH 7 0
BBX 7 14 0 -3
BITMAP
6C
6C
00
3C
18
18
18
18
18
18
3C
00
00
00
ENDCHAR
STARTCHAR LATIN CAPITAL LETTER ETH
ENCODING 208
SWIDTH 500 0
DWIDTH 7 0
BBX 7 14 0 -3
BITMAP
00
00
78
6C
66
66
F6
66
66
6C
78
00
00
00
ENDCHAR
STARTCHAR LATIN CAPITAL LETTER N WITH TILDE
ENCODING 209
SWIDTH 500 0
DWIDTH 7 0
BBX 7 14 0 -3
BITMAP
3A
2E
00
76
76
7E
7E
6E
6E
66
66
00
00
00
ENDCHAR
STARTCHAR LATIN CAPITAL LETTER O WITH GRAVE
ENCODING 210
SWIDTH 500 0
DWIDTH 7 0
BBX 7 14 0 -3
BITMAP
30
18
00
3C
66
66
66
66
66
66
3C
00
00
00
ENDCHAR
STARTCHAR LATIN CAPITAL LETTER O WITH ACUTE
ENCODING 211
SWIDTH 500 0
DWIDTH 7 0
BBX 7 14 0 -3
BITMAP
0C
18
00
3C
66
66
66
66
66
66
3C
00
00
00
ENDCHAR
STARTCHAR LATIN CAPITAL LETTER O WITH CIRCUMFLEX
ENCODING 212
SWIDTH 500 0
DWIDTH 7 0
BBX 7 14 0 -3
BITMAP
18
2C
00
3C
66
66
66
66
66
66
3C
00
00
00
ENDCHAR
STARTCHAR LATIN CAPITAL LETTER O WITH TILDE
ENCODING 213
SWIDTH 500 0
DWIDTH 7 0
BBX 7 14 0 -3
BITMAP
74
5C
00
3C
66
66
66
66
66
66
3C
00
00
00
ENDCHAR
STARTCHAR LATIN CAPITAL LETTER O WITH DIAERESIS
ENCODING 214
SWIDTH 500 0
DWIDTH 7 0
BBX 7 14 0 -3
BITMAP
6C
6C
00
3C
66
66
66
66
66
66
3C
00
00
00
ENDCHAR
STARTCHAR MULTIPLICATION SIGN
ENCODING 215
SWIDTH 500 0
DWIDTH 7 0
BBX 7 14 0 -3
BITMAP
00
00
00
00
66
3C
18
3C
66
00
00
00
00
00
ENDCHAR
STARTCHAR LATIN CAPITAL LETTER O WITH STROKE
ENCODING 216
SWIDTH 500 0
DWIDTH 7 0
BBX 7 14 0 -3
BITMAP
00
00
3E
64
6E
6E
76
76
66
26
7C
00
00
00
ENDCHAR
STARTCHAR LATIN CAPITAL LETTER U WITH GRAVE
ENCODING 217
SWIDTH 500 0
DWIDTH 7 0
BBX 7 14 0 -3
BITMAP
30
18
00
66
66
66
66
66
66
66
3C
00
00
00
ENDCHAR
STARTCHAR LATIN CAPITAL LETTER U WITH ACUTE
ENCODING 218
SWIDTH 500 0
DWIDTH 7 0
BBX 7 14 0 -3
BITMAP
0C
18
00
66
66
66
66
66
66
66
3C
00
00
00
ENDCHAR
STARTCHAR LATIN CAPITAL LETTER U WITH CIRCUMFLEX
ENCODING 219
SWIDTH 500 0
DWIDTH 7 0
BBX 7 14 0 -3
BITMAP
18
2C
00
66
66
66
66
66
66
66
3C
00
00
00
ENDCHAR
STARTCHAR LATIN CAPITAL LETTER U WITH DIAERESIS
ENCODING 220
SWIDTH 500 0
DWIDTH 7 0
BBX 7 14 0 -3
BITMAP
6C
6C
00
66
66
66
66
66
66
66
3C
00
00
00
ENDCHAR
STARTCHAR LATIN CAPITAL LETTER Y WITH ACUTE
ENCODING 221
SWIDTH 500 0
DWIDTH 7 0
BBX 7 14 0 -3
BITMAP
0C
18
66
66
3C
3C
18
18
18
18
18
00
00
00
ENDCHAR
STARTCHAR LATIN CAPITAL LETTER THORN
ENCODING 222
SWIDTH 500 0
DWIDTH 7 0
BBX 7 14 0 -3
BITMAP
00
00
60
60
7C
66
66
66
7C
60
60
00
00
00
ENDCHAR
STARTCHAR LATIN SMALL LETTER SHARP S
ENCODING 223
SWIDTH 500 0
DWIDTH 7 0
BBX 7 14 0 -3
BITMAP
00
00
38
6C
6C
78
78
6C
66
66
7C
00
00
00
ENDCHAR
STARTCHAR LATIN SMALL LETTER A WITH GRAVE
ENCODING 224
SWIDTH 500 0
DWIDTH 7 0
BBX 7 14 0 -3
BITMAP
00
00
30
18
00
3C
06
3E
66
66
3E
00
00
00
ENDCHAR
STARTCHAR LATIN SMALL LETTER A WITH ACUTE
ENCODING 225
SWIDTH 500 0
DWIDTH 7 0
BBX 7 14 0 -3
BITMAP
00
00
0C
18
00
3C
06
3E
66
66
3E
00
00
00
ENDCHAR
STARTCHAR LATIN SMALL LETTER A WITH CIRCUMFLEX
ENCODING 226
SWIDTH 500 0
DWIDTH 7 0
BBX 7 14 0 -3
BITMAP
00
00
18
2C
00
3C
06
3E
66
66
3E
00
00
00
ENDCHAR
STARTCHAR LATIN SMALL LETTER A WITH TILDE
ENCODING 227
SWIDTH 500 0
DWIDTH 7 0
BBX 7 14 0 -3
BITMAP
00
00
3A
2E
00
3C
06
3E
66
66
3E
00
00
00
ENDCHAR
STARTCHAR LATIN SMALL LETTER A WITH DIAERESIS
ENCODING 228
SWIDTH 500 0
DWIDTH 7 0
BBX 7 14 0 -3
BITMAP
00
00
36
36
00
3C
06
3E
66
66
3E
00
00
00
ENDCHAR
STARTCHAR LATIN SMALL LETTER A WITH RING ABOVE
ENCODING 229
SWIDTH 500 0
DWIDTH 7 0
BBX 7 14 0 -3
BITMAP
00
38
28
38
00
3C
06
3E
66
66
3E
00
00
00
ENDCHAR
STARTCHAR LATIN SMALL LETTER AE
ENCODING 230
SWIDTH 500 0
DWIDTH 7 0
BBX 7 14 0 -3
BITMAP
00
00
00
00
00
6C
1A
3E
58
58
6E
00
00
00
ENDCHAR
STARTCHAR LATIN SMALL LETTER C WITH CEDILLA
ENCODING 231
SWIDTH 500 0
DWIDTH 7 0
BBX 7 14 0 -3
BITMAP
00
00
00
00
00
3C
66
60
60
66
3C
18
0C
38
ENDCHAR
STARTCHAR LATIN SMALL LETTER E WITH GRAVE
ENCODING 232
SWIDTH 500 0
DWIDTH 7 0
BBX 7 14 0 -3
BITMAP
00
00
30
18
00
3C
66
7E
60
66
3C
00
00
00
ENDCHAR
STARTCHAR LATIN SMALL LETTER E WITH ACUTE
ENCODING 233
SWIDTH 500 0
DWIDTH 7 0
BBX 7 14 0 -3
BITMAP
00
00
0C
18
00
3C
66
7E
60
66
3C
00
00
00
ENDCHAR
STARTCHAR LATIN SMALL LETTER E WITH CIRCUMFLEX
ENCODING 234
SWIDTH 500 0
DWIDTH 7 0
BBX 7 14 0 -3
BITMAP
00
00
18
2C
00
3C
66
7E
60
66
3C
00
00
00
ENDCHAR
STARTCHAR LATIN SMALL LETTER E WITH DIAERESIS
ENCODING 235
SWIDTH 500 0
DWIDTH 7 0
BBX 7 14 0 -3
BITMAP
00
00
6C
6C
00
3C
66
7E
60
66
3C
00
00
00
ENDCHAR
STARTCHAR LATIN SMALL LETTER I WITH GRAVE
ENCODING 236
SWIDTH 500 0
DWIDTH 7 0
BBX 7 14 0 -3
BITMAP
00
00
30
18
00
78
18
18
18
18
18
00
00
00
ENDCHAR
STARTCHAR LATIN SMALL LETTER I WITH ACUTE
ENCODING 237
SWIDTH 500 0
DWIDTH 7 0
BBX 7 14 0 -3
BITMAP
00
00
0C
18
00
78
18
18
18
18
18
00
00
00
ENDCHAR
STARTCHAR LATIN SMALL LETTER I WITH CIRCUMFLEX
ENCODING 238
SWIDTH 500 0
DWIDTH 7 0
BBX 7 14 0 -3
BITMAP
00
00
18
2C
00
78
18
18
18
18
18
00
00
00
ENDCHAR
STARTCHAR LATIN SMALL LETTER I WITH DIAERESIS
ENCODING 239
SWIDTH 500 0
DWIDTH 7 0
BBX 7 14 0 -3
BITMAP
00
00
6C
6C
00
78
18
18
18
18
18
00
00
00
ENDCHAR
STARTCHAR LATIN SMALL LETTER ETH
ENCODING 240
SWIDTH 500 0
DWIDTH 7 0
BBX 7 14 0 -3
BITMAP
00
00
30
7E
0C
3E
66
66
66
66
3C
00
00
00
ENDCHAR
STARTCHAR LATIN SMALL LETTER N WITH TILDE
ENCODING 241
SWIDTH 500 0
DWIDTH 7 0
BBX 7 14 0 -3
BITMAP
00
00
74
5C
00
7C
66
66
66
66
66
00
00
00
ENDCHAR
STARTCHAR LATIN SMALL LETTER O WITH GRAVE
ENCODING 242
SWIDTH 500 0
DWIDTH 7 0
BBX 7 14 0 -3
BITMAP
00
00
30
18
00
3C
66
66
66
66
3C
00
00
00
ENDCHAR
STARTCHAR LATIN SMALL LETTER O WITH ACUTE
ENCODING 243
SWIDTH 500 0
DWIDTH 7 0
BBX 7 14 0 -3
BITMAP
00
00
0C
18
00
3C
66
66
66
66
3C
00
00
00
ENDCHAR
STARTCHAR LATIN SMALL LETTER O WITH CIRCUMFLEX
ENCODING 244
SWIDTH 500 0
DWIDTH 7 0
BBX 7 14 0 -3
BITMAP
00
00
18
2C
00
3C
66
66
66
66
3C
00
00
00
ENDCHAR
STARTCHAR LATIN SMALL LETTER O WITH TILDE
ENCODING 245
SWIDTH 500 0
DWIDTH 7 0
BBX 7 14 0 -3
BITMAP
00
00
74
5C
00
3C
66
66
66
66
3C
00
00
00
ENDCHAR
STARTCHAR LATIN SMALL LETTER O WITH DIAERESIS
ENCODING 246
SWIDTH 500 0
DWIDTH 7 0
BBX 7 14 0 -3
BITMAP
00
00
6C
6C
00
3C
66
66
66
66
3C
00
00
00
ENDCHAR
STARTCHAR DIVISION SIGN
ENCODING 247
SWIDTH 500 0
DWIDTH 7 0
BBX 7 14 0 -3
BITMAP
00
00
00
18
18
00
7E
00
18
18
00
00
00
00
ENDCHAR
STARTCHAR LATIN SMALL LETTER O WITH STROKE
ENCODING 248
SWIDTH 500 0
DWIDTH 7 0
BBX 7 14 0 -3
BITMAP
00
00
00
00
00
3E
66
6E
76
66
7C
00
00
00
ENDCHAR
STARTCHAR LATIN SMALL LETTER U WITH GRAVE
ENCODING 249
SWIDTH 500 0
DWIDTH 7 0
BBX 7 14 0 -3
BITMAP
00
00
30
18
00
66
66
66
66
66
3E
00
00
00
ENDCHAR
STARTCHAR LATIN SMALL LETTER U WITH ACUTE
ENCODING 250
SWIDTH 500 0
DWIDTH 7 0
BBX 7 14 0 -3
BITMAP
00
00
0C
18
00
66
66
66
66
66
3E
00
00
00
ENDCHAR
STARTCHAR LATIN SMALL LETTER U WITH CIRCUMFLEX
ENCODING 251
SWIDTH 500 0
DWIDTH 7 0
BBX 7 14 0 -3
BITMAP
00
00
18
2C
00
66
66
66
66
66
3E
00
00
00
ENDCHAR
STARTCHAR LATIN SMALL LETTER U WITH DIAERESIS
ENCODING 252
SWIDTH 500 0
DWIDTH 7 0
BBX 7 14 0 -3
BITMAP
00
00
6C
6C
00
66
66
66
66
66
3E
00
00
00
ENDCHAR
STARTCHAR LATIN SMALL LETTER Y WITH ACUTE
ENCODING 253
SWIDTH 500 0
DWIDTH 7 0
BBX 7 14 0 -3
BITMAP
00
00
0C
18
00
66
66
3C
3C
3C
18
18
18
70
ENDCHAR
STARTCHAR LATIN SMALL LETTER THORN
ENCODING 254
SWIDTH 500 0
DWIDTH 7 0
BBX 7 14 0 -3
BITMAP
00
00
60
60
60
7C
66
66
66
66
7C
60
60
60
ENDCHAR
STARTCHAR LATIN SMALL LETTER Y WITH DIAERESIS
ENCODING 255
SWIDTH 500 0
DWIDTH 7 0
BBX 7 14 0 -3
BITMAP
00
00
6C
6C
00
66
66
3C
3C
3C
18
18
18
70
ENDCHAR
STARTCHAR LATIN CAPITAL LETTER A WITH MACRON
ENCODING 256
SWIDTH 500 0
DWIDTH 7 0
BBX 7 14 0 -3
BITMAP
3C
00
18
18
3C
3C
3C
66
7E
66
66
00
00
00
ENDCHAR
STARTCHAR LATIN SMALL LETTER A WITH MACRON
ENCODING 257
SWIDTH 500 0
DWIDTH 7 0
BBX 7 14 0 -3
BITMAP
00
00
00
3C
00
3C
06
3E
66
66
3E
00
00
00
ENDCHAR
STARTCHAR LATIN CAPITAL LETTER A WITH BREVE
ENCODING 258
SWIDTH 500 0
DWIDTH 7 0
BBX 7 14 0 -3
BITMAP
34
3C
00
18
3C
3C
3C
66
7E
66
66
00
00
00
ENDCHAR
STARTCHAR LATIN SMALL LETTER A WITH BREVE
ENCODING 259
SWIDTH 500 0
DWIDTH 7 0
BBX 7 14 0 -3
BITMAP
00
00
34
3C
00
3C
06
3E
66
66
3E
00
00
00
ENDCHAR
STARTCHAR LATIN CAPITAL LETTER A WITH OGONEK
ENCODING 260
SWIDTH 500 0
DWIDTH 7 0
BBX 7 14 0 -3
BITMAP
00
00
18
18
3C
3C
3C
66
7E
66
66
0C
18
0E
ENDCHAR
STARTCHAR LATIN SMALL LETTER A WITH OGONEK
ENCODING 261
SWIDTH 500 0
DWIDTH 7 0
BBX 7 14 0 -3
BITMAP
00
00
00
00
00
3C
06
3E
66
66
3E
0C
18
0E
ENDCHAR
STARTCHAR LATIN CAPITAL LETTER C WITH ACUTE
ENCODING 262
SWIDTH 500 0
DWIDTH 7 0
BBX 7 14 0 -3
BITMAP
0C
18
00
1C
36
60
60
60
60
36
1C
00
00
00
ENDCHAR
STARTCHAR LATIN SMALL LETTER C WITH ACUTE
ENCODING 263
SWIDTH 500 0
DWIDTH 7 0
BBX 7 14 0 -3
BITMAP
00
00
0C
18
00
3C
66
60
60
66
3C
00
00
00
ENDCHAR
STARTCHAR LATIN CAPITAL LETTER C WITH CIRCUMFLEX
ENCODING 264
SWIDTH 500 0
DWIDTH 7 0
BBX 7 14 0 -3
BITMAP
18
2C
00
1C
36
60
60
60
60
36
1C
00
00
00
ENDCHAR
STARTCHAR LATIN SMALL LETTER C WITH CIRCUMFLEX
ENCODING 265
SWIDTH 500 0
DWIDTH 7 0
BBX 7 14 0 -3
BITMAP
00
00
18
2C
00
3C
66
60
60
66
3C
00
00
00
ENDCHAR
STARTCHAR LATIN CAPITAL LETTER C WITH DOT ABOVE
ENCODING 266
SWIDTH 500 0
DWIDTH 7 0
BBX 7 14 0 -3
BITMAP
18
00
1C
36
60
60
60
60
60
36
1C
00
00
00
ENDCHAR
STARTCHAR LATIN SMALL LETTER C WITH DOT ABOVE
ENCODING 267
SWIDTH 500 0
DWIDTH 7 0
BBX 7 14 0 -3
BITMAP
00
00
18
18
00
3C
66
60
60
66
3C
00
00
00
ENDCHAR
STARTCHAR LATIN CAPITAL LETTER C WITH CARON
ENCODING 268
SWIDTH 500 0
DWIDTH 7 0
BBX 7 14 0 -3
BITMAP
34
18
00
1C
36
60
60
60
60
36
1C
00
00
00
ENDCHAR
STARTCHAR LATIN SMALL LETTER C WITH CARON
ENCODING 269
SWIDTH 500 0
DWIDTH 7 0
BBX 7 14 0 -3
BITMAP
00
00
34
18
00
3C
66
60
60
66
3C
00
00
00
ENDCHAR
STARTCHAR LATIN CAPITAL LETTER D WITH CARON
ENCODING 270
SWIDTH 500 0
DWIDTH 7 0
BBX 7 14 0 -3
BITMAP
34
18
00
78
6C
66
66
66
66
6C
78
00
00
00
ENDCHAR
STARTCHAR LATIN SMALL LETTER D WITH CARON
ENCODING 271
SWIDTH 500 0
DWIDTH 7 0
BBX 7 14 0 -3
BITMAP
00
00
1A
1A
18
38
58
58
58
58
38
00
00
00
ENDCHAR
STARTCHAR LATIN CAPITAL LETTER D WITH STROKE
ENCODING 272
SWIDTH 500 0
DWIDTH 7 0
BBX 7 14 0 -3
BITMAP
00
00
78
6C
66
66
F6
66
66
6C
78
00
00
00
ENDCHAR
STARTCHAR LATIN SMALL LETTER D WITH STROKE
ENCODING 273
SWIDTH 500 0
DWIDTH 7 0
BBX 7 14 0 -3
BITMAP
00
00
06
1E
06
3E
66
66
66
66
3E
00
00
00
ENDCHAR
STARTCHAR LATIN CAPITAL LETTER E WITH MACRON
ENCODING 274
SWIDTH 500 0
DWIDTH 7 0
BBX 7 14 0 -3
BITMAP
3C
00
7E
60
60
60
7C
60
60
60
7E
00
00
00
ENDCHAR
STARTCHAR LATIN SMALL LETTER E WITH MACRON
ENCODING 275
SWIDTH 500 0
DWIDTH 7 0
BBX 7 14 0 -3
BITMAP
00
00
3C
00
00
3C
66
7E
60
66
3C
00
00
00
ENDCHAR
STARTCHAR LATIN CAPITAL LETTER E WITH BREVE
ENCODING 276
SWIDTH 500 0
DWIDTH 7 0
BBX 7 14 0 -3
BITMAP
34
3C
00
7E
60
60
7C
60
60
60
7E
00
00
00
ENDCHAR
STARTCHAR LATIN SMALL LETTER E WITH BREVE
ENCODING 277
SWIDTH 500 0
DWIDTH 7 0
BBX 7 14 0 -3
BITMAP
00
00
34
3C
00
3C
66
7E
60
66
3C
00
00
00
ENDCHAR
STARTCHAR LATIN CAPITAL LETTER E WITH DOT ABOVE
ENCODING 278
SWIDTH 500 0
DWIDTH 7 0
BBX 7 14 0 -3
BITMAP
18
00
7E
60
60
60
7C
60
60
60
7E
00
00
00
ENDCHAR
STARTCHAR LATIN SMALL LETTER E WITH DOT ABOVE
ENCODING 279
SWIDTH 500 0
DWIDTH 7 0
BBX 7 14 0 -3
BITMAP
00
00
18
18
00
3C
66
7E
60
66
3C
00
00
00
ENDCHAR
STARTCHAR LATIN CAPITAL LETTER E WITH OGONEK
ENCODING 280
SWIDTH 500 0
DWIDTH 7 0
BBX 7 14 0 -3
BITMAP
00
00
7E
60
60
60
7C
60
60
60
7E
0C
18
0E
ENDCHAR
STARTCHAR LATIN SMALL LETTER E WITH OGONEK
ENCODING 281
SWIDTH 500 0
DWIDTH 7 0
BBX 7 14 0 -3
BITMAP
00
00
00
00
00
3C
66
7E
60
66
3C
18
30
1C
ENDCHAR
STARTCHAR LATIN CAPITAL LETTER E WITH CARON
ENCODING 282
SWIDTH 500 0
DWIDTH 7 0
BBX 7 14 0 -3
BITMAP
34
18
00
7E
60
60
7C
60
60
60
7E
00
00
00
ENDCHAR
STARTCHAR LATIN SMALL LETTER E WITH CARON
ENCODING 283
SWIDTH 500 0
DWIDTH 7 0
BBX 7 14 0 -3
BITMAP
00
00
34
18
00
3C
66
7E
60
66
3C
00
00
00
ENDCHAR
STARTCHAR LATIN CAPITAL LETTER G WITH CIRCUMFLEX
ENCODING 284
SWIDTH 500 0
DWIDTH 7 0
BBX 7 14 0 -3
BITMAP
18
2C
00
1C
36
60
60
6E
66
36
1C
00
00
00
ENDCHAR
STARTCHAR LATIN SMALL LETTER G WITH CIRCUMFLEX
ENCODING 285
SWIDTH 500 0
DWIDTH 7 0
BBX 7 14 0 -3
BITMAP
00
00
18
2C
00
3E
66
66
7C
60
3C
06
06
7C
ENDCHAR
STARTCHAR LATIN CAPITAL LETTER G WITH BREVE
ENCODING 286
SWIDTH 500 0
DWIDTH 7 0
BBX 7 14 0 -3
BITMAP
34
3C
00
1C
36
60
60
6E
66
36
1C
00
00
00
ENDCHAR
STARTCHAR LATIN SMALL LETTER G WITH BREVE
ENCODING 287
SWIDTH 500 0
DWIDTH 7 0
BBX 7 14 0 -3
BITMAP
00
00
34
3C
00
3E
66
66
7C
60
3C
06
06
7C
ENDCHAR
STARTCHAR LATIN CAPITAL LETTER G WITH DOT ABOVE
ENCODING 288
SWIDTH 500 0
DWIDTH 7 0
BBX 7 14 0 -3
BITMAP
18
00
1C
36
60
60
60
6E
66
36
1C
00
00
00
ENDCHAR
STARTCHAR LATIN SMALL LETTER G WITH DOT ABOVE
ENCODING 289
SWIDTH 500 0
DWIDTH 7 0
BBX 7 14 0 -3
BITMAP
00
00
18
18
00
3E
66
66
7C
60
3C
06
06
7C
ENDCHAR
STARTCHAR LATIN CAPITAL LETTER G WITH CEDILLA
ENCODING 290
SWIDTH 500 0
DWIDTH 7 0
BBX 7 14 0 -3
BITMAP
00
00
1C
36
60
60
60
6E
66
36
1C
18
0C
38
ENDCHAR
STARTCHAR LATIN SMALL LETTER G WITH CEDILLA
ENCODING 291
SWIDTH 500 0
DWIDTH 7 0
BBX 7 14 0 -3
BITMAP
00
00
1C
30
18
3E
66
66
7C
60
3C
06
06
7C
ENDCHAR
STARTCHAR LATIN CAPITAL LETTER H WITH CIRCUMFLEX
ENCODING 292
SWIDTH 500 0
DWIDTH 7 0
BBX 7 14 0 -3
BITMAP
18
2C
00
66
66
66
7E
66
66
66
66
00
00
00
ENDCHAR
STARTCHAR LATIN SMALL LETTER H WITH CIRCUMFLEX
ENCODING 293
SWIDTH 500 0
DWIDTH 7 0
BBX 7 14 0 -3
BITMAP
60
B0
00
60
60
7C
66
66
66
66
66
00
00
00
ENDCHAR
STARTCHAR LATIN CAPITAL LETTER H WITH STROKE
ENCODING 294
SWIDTH 500 0
DWIDTH 7 0
BBX 7 14 0 -3
BITMAP
00
00
66
66
7E
66
7E
66
66
66
66
00
00
00
ENDCHAR
STARTCHAR LATIN SMALL LETTER H WITH STROKE
ENCODING 295
SWIDTH 500 0
DWIDTH 7 0
BBX 7 14 0 -3
BITMAP
00
00
60
FC
60
7C
66
66
66
66
66
00
00
00
ENDCHAR
STARTCHAR LATIN CAPITAL LETTER I WITH TILDE
ENCODING 296
SWIDTH 500 0
DWIDTH 7 0
BBX 7 14 0 -3
BITMAP
74
5C
00
3C
18
18
18
18
18
18
3C
00
00
00
ENDCHAR
STARTCHAR LATIN SMALL LETTER I WITH TILDE
ENCODING 297
SWIDTH 500 0
DWIDTH 7 0
BBX 7 14 0 -3
BITMAP
00
00
74
5C
00
78
18
18
18
18
18
00
00
00
ENDCHAR
STARTCHAR LATIN CAPITAL LETTER I WITH MACRON
ENCODING 298
SWIDTH 500 0
DWIDTH 7 0
BBX 7 14 0 -3
BITMAP
3C
00
3C
18
18
18
18
18
18
18
3C
00
00
00
ENDCHAR
STARTCHAR LATIN SMALL LETTER I WITH MACRON
ENCODING 299
SWIDTH 500 0
DWIDTH 7 0
BBX 7 14 0 -3
BITMAP
00
00
00
3C
00
78
18
18
18
18
18
00
00
00
ENDCHAR
STARTCHAR LATIN CAPITAL LETTER I WITH BREVE
ENCODING 300
SWIDTH 500 0
DWIDTH 7 0
BBX 7 14 0 -3
BITMAP
34
3C
00
3C
18
18
18
18
18
18
3C
00
00
00
ENDCHAR
STARTCHAR LATIN SMALL LETTER I WITH BREVE
ENCODING 301
SWIDTH 500 0
DWIDTH 7 0
BBX 7 14 0 -3
BITMAP
00
00
34
3C
00
78
18
18
18
18
18
00
00
00
ENDCHAR
STARTCHAR LATIN CAPITAL LETTER I WITH OGONEK
ENCODING 302
SWIDTH 500 0
DWIDTH 7 0
BBX 7 14 0 -3
BITMAP
00
00
3C
18
18
18
18
18
18
18
3C
18
30
1C
ENDCHAR
STARTCHAR LATIN SMALL LETTER I WITH OGONEK
ENCODING 303
SWIDTH 500 0
DWIDTH 7 0
BBX 7 14 0 -3
BITMAP
00
00
00
00
00
78
18
18
18
18
18
18
30
1C
ENDCHAR
STARTCHAR LATIN CAPITAL LETTER I WITH DOT ABOVE
ENCODING 304
SWIDTH 500 0
DWIDTH 7 0
BBX 7 14 0 -3
BITMAP
18
00
3C
18
18
18
18
18
18
18
3C
00
00
00
ENDCHAR
STARTCHAR LATIN SMALL LETTER DOTLESS I
ENCODING 305
SWIDTH 500 0
DWIDTH 7 0
BBX 7 14 0 -3
BITMAP
00
00
00
00
00
78
18
18
18
18
18
00
00
00
ENDCHAR
STARTCHAR LATIN CAPITAL LIGATURE OE
ENCODING 338
SWIDTH 500 0
DWIDTH 7 0
BBX 7 14 0 -3
BITMAP
00
00
3E
6C
6C
6C
6E
6C
6C
6C
3E
00
00
00
ENDCHAR
STARTCHAR LATIN SMALL LIGATURE OE
ENCODING 339
SWIDTH 500 0
DWIDTH 7 0
BBX 7 14 0 -3
BITMAP
00
00
00
00
00
2C
5A
5E
58
58
36
00
00
00
ENDCHAR
STARTCHAR LATIN CAPITAL LETTER Y WITH DIAERESIS
ENCODING 376
SWIDTH 500 0
DWIDTH 7 0
BBX 7 14 0 -3
BITMAP
6C
6C
00
66
66
3C
18
18
18
18
18
00
00
00
ENDCHAR
STARTCHAR LATIN CAPITAL LETTER F WITH HOOK
ENCODING 401
SWIDTH 500 0
DWIDTH 7 0
BBX 7 14 0 -3
BITMAP
00
00
7E
60
60
60
7C
60
60
60
60
60
60
C0
ENDCHAR
STARTCHAR LATIN SMALL LETTER F WITH HOOK
ENCODING 402
SWIDTH 500 0
DWIDTH 7 0
BBX 7 14 0 -3
BITMAP
00
00
1E
30
30
7C
30
30
30
30
30
30
30
E0
ENDCHAR
STARTCHAR GREEK CAPITAL LETTER HETA
ENCODING 880
SWIDTH 500 0
DWIDTH 7 0
BBX 7 14 0 -3
BITMAP
00
00
60
60
60
60
7E
60
60
60
60
00
00
00
ENDCHAR
STARTCHAR GREEK SMALL LETTER HETA
ENCODING 881
SWIDTH 500 0
DWIDTH 7 0
BBX 7 14 0 -3
BITMAP
00
00
00
00
00
60
60
7E
60
60
60
00
00
00
ENDCHAR
STARTCHAR GREEK CAPITAL LETTER ARCHAIC SAMPI
ENCODING 882
SWIDTH 500 0
DWIDTH 7 0
BBX 7 14 0 -3
BITMAP
00
00
7E
5A
5A
18
18
18
18
18
18
00
00
00
ENDCHAR
STARTCHAR GREEK SMALL LETTER ARCHAIC SAMPI
ENCODING 883
SWIDTH 500 0
DWIDTH 7 0
BBX 7 14 0 -3
BITMAP
00
00
7E
5A
5A
5A
18
18
18
18
18
00
00
00
ENDCHAR
STARTCHAR GREEK NUMERAL SIGN
ENCODING 884
SWIDTH 500 0
DWIDTH 7 0
BBX 7 14 0 -3
BITMAP
0C
18
30
30
00
00
00
00
00
00
00
00
00
00
ENDCHAR
STARTCHAR GREEK LOWER NUMERAL SIGN
ENCODING 885
SWIDTH 500 0
DWIDTH 7 0
BBX 7 14 0 -3
BITMAP
00
00
00
00
00
00
00
00
00
18
18
30
60
00
ENDCHAR
STARTCHAR GREEK CAPITAL LETTER PAMPHYLIAN DIGAMMA
ENCODING 886
SWIDTH 500 0
DWIDTH 7 0
BBX 7 14 0 -3
BITMAP
00
00
66
66
6E
6E
7E
7E
76
76
66
00
00
00
ENDCHAR
STARTCHAR GREEK SMALL LETTER PAMPHYLIAN DIGAMMA
ENCODING 887
SWIDTH 500 0
DWIDTH 7 0
BBX 7 14 0 -3
BITMAP
00
00
00
00
00
66
66
6E
7E
76
66
00
00
00
ENDCHAR
STARTCHAR GREEK YPOGEGRAMMENI
ENCODING 890
SWIDTH 500 0
DWIDTH 7 0
BBX 7 14 0 -3
BITMAP
00
00
00
00
00
00
00
00
00
70
30
30
30
1C
ENDCHAR
STARTCHAR GREEK SMALL REVERSED LUNATE SIGMA SYMBOL
ENCODING 891
SWIDTH 500 0
DWIDTH 7 0
BBX 7 14 0 -3
BITMAP
00
00
00
00
00
3C
66
60
60
66
3C
00
00
00
ENDCHAR
STARTCHAR GREEK SMALL DOTTED LUNATE SIGMA SYMBOL
ENCODING 892
SWIDTH 500 0
DWIDTH 7 0
BBX 7 14 0 -3
BITMAP
00
00
00
00
00
3C
62
68
68
62
3C
00
00
00
ENDCHAR
STARTCHAR GREEK SMALL REVERSED DOTTED LUNATE SIGMA SYMBOL
ENCODING 893
SWIDTH 500 0
DWIDTH 7 0
BBX 7 14 0 -3
BITMAP
00
00
00
00
00
3C
46
16
16
46
3C
00
00
00
ENDCHAR
STARTCHAR GREEK QUESTION MARK
ENCODING 894
SWIDTH 500 0
DWIDTH 7 0
BBX 7 14 0 -3
BITMAP
00
00
00
00
38
38
38
00
00
18
18
30
60
00
ENDCHAR
STARTCHAR GREEK CAPITAL LETTER YOT
ENCODING 895
SWIDTH 500 0
DWIDTH 7 0
BBX 7 14 0 -3
BITMAP
00
00
1E
06
06
06
06
06
06
66
3C
00
00
00
ENDCHAR
STARTCHAR GREEK TONOS
ENCODING 900
SWIDTH 500 0
DWIDTH 7 0
BBX 7 14 0 -3
BITMAP
00
00
0C
18
00
00
00
00
00
00
00
00
00
00
ENDCHAR
STARTCHAR GREEK DIALYTIKA TONOS
ENCODING 901
SWIDTH 500 0
DWIDTH 7 0
BBX 7 14 0 -3
BITMAP
0C
18
66
66
00
00
00
00
00
00
00
00
00
00
ENDCHAR
STARTCHAR GREEK CAPITAL LETTER ALPHA WITH TONOS
ENCODING 902
SWIDTH 500 0
DWIDTH 7 0
BBX 7 14 0 -3
BITMAP
0C
18
00
18
3C
3C
3C
66
7E
66
66
00
00
00
ENDCHAR
STARTCHAR GREEK ANO TELEIA
ENCODING 903
SWIDTH 500 0
DWIDTH 7 0
BBX 7 14 0 -3
BITMAP
00
00
00
00
00
00
38
38
38
00
00
00
00
00
ENDCHAR
STARTCHAR GREEK CAPITAL LETTER EPSILON WITH TONOS
ENCODING 904
SWIDTH 500 0
DWIDTH 7 0
BBX 7 14 0 -3
BITMAP
0C
18
00
7E
60
60
7C
60
60
60
7E
00
00
00
ENDCHAR
STARTCHAR GREEK CAPITAL LETTER ETA WITH TONOS
ENCODING 905
SWIDTH 500 0
DWIDTH 7 0
BBX 7 14 0 -3
BITMAP
0C
18
00
66
66
66
7E
66
66
66
66
00
00
00
ENDCHAR
STARTCHAR GREEK CAPITAL LETTER IOTA WITH TONOS
ENCODING 906
SWIDTH 500 0
DWIDTH 7 0
BBX 7 14 0 -3
BITMAP
0C
18
00
3C
18
18
18
18
18
18
3C
00
00
00
ENDCHAR
STARTCHAR GREEK CAPITAL LETTER OMICRON WITH TONOS
ENCODING 908
SWIDTH 500 0
DWIDTH 7 0
BBX 7 14 0 -3
BITMAP
0C
18
00
3C
66
66
66
66
66
66
3C
00
00
00
ENDCHAR
STARTCHAR GREEK CAPITAL LETTER UPSILON WITH TONOS
ENCODING 910
SWIDTH 500 0
DWIDTH 7 0
BBX 7 14 0 -3
BITMAP
0C
18
00
66
66
3C
3C
18
18
18
18
00
00
00
ENDCHAR
STARTCHAR GREEK CAPITAL LETTER OMEGA WITH TONOS
ENCODING 911
SWIDTH 500 0
DWIDTH 7 0
BBX 7 14 0 -3
BITMAP
0C
18
00
3C
66
66
66
66
34
34
76
00
00
00
ENDCHAR
STARTCHAR GREEK SMALL LETTER IOTA WITH DIALYTIKA AND TONOS
ENCODING 912
SWIDTH 500 0
DWIDTH 7 0
BBX 7 14 0 -3
BITMAP
0C
18
66
66
00
70
30
30
30
30
1C
00
00
00
ENDCHAR
STARTCHAR GREEK CAPITAL LETTER ALPHA
ENCODING 913
SWIDTH 500 0
DWIDTH 7 0
BBX 7 14 0 -3
BITMAP
00
00
18
18
3C
3C
3C
66
7E
66
66
00
00
00
ENDCHAR
STARTCHAR GREEK CAPITAL LETTER BETA
ENCODING 914
SWIDTH 500 0
DWIDTH 7 0
BBX 7 14 0 -3
BITMAP
00
00
7C
66
66
66
7C
66
66
66
7C
00
00
00
ENDCHAR
STARTCHAR GREEK CAPITAL LETTER GAMMA
ENCODING 915
SWIDTH 500 0
DWIDTH 7 0
BBX 7 14 0 -3
BITMAP
00
00
7E
60
60
60
60
60
60
60
60
00
00
00
ENDCHAR
STARTCHAR GREEK CAPITAL LETTER DELTA
ENCODING 916
SWIDTH 500 0
DWIDTH 7 0
BBX 7 14 0 -3
BITMAP
00
00
18
18
18
3C
3C
3C
66
66
7E
00
00
00
ENDCHAR
STARTCHAR GREEK CAPITAL LETTER EPSILON
ENCODING 917
SWIDTH 500 0
DWIDTH 7 0
BBX 7 14 0 -3
BITMAP
00
00
7E
60
60
60
7C
60
60
60
7E
00
00
00
ENDCHAR
STARTCHAR GREEK CAPITAL LETTER ZETA
ENCODING 918
SWIDTH 500 0
DWIDTH 7 0
BBX 7 14 0 -3
BITMAP
00
00
7E
06
0C
0C
18
30
30
60
7E
00
00
00
ENDCHAR
STARTCHAR GREEK CAPITAL LETTER ETA
ENCODING 919
SWIDTH 500 0
DWIDTH 7 0
BBX 7 14 0 -3
BITMAP
00
00
66
66
66
66
7E
66
66
66
66
00
00
00
ENDCHAR
STARTCHAR GREEK CAPITAL LETTER THETA
ENCODING 920
SWIDTH 500 0
DWIDTH 7 0
BBX 7 14 0 -3
BITMAP
00
00
3C
7E
42
5A
5A
42
42
7E
3C
00
00
00
ENDCHAR
STARTCHAR GREEK CAPITAL LETTER IOTA
ENCODING 921
SWIDTH 500 0
DWIDTH 7 0
BBX 7 14 0 -3
BITMAP
00
00
3C
18
18
18
18
18
18
18
3C
00
00
00
ENDCHAR
STARTCHAR GREEK CAPITAL LETTER KAPPA
ENCODING 922
SWIDTH 500 0
DWIDTH 7 0
BBX 7 14 0 -3
BITMAP
00
00
66
6C
6C
6C
78
6C
6C
6C
66
00
00
00
ENDCHAR
STARTCHAR GREEK CAPITAL LETTER LAMDA
ENCODING 923
SWIDTH 500 0
DWIDTH 7 0
BBX 7 14 0 -3
BITMAP
00
00
18
18
18
3C
3C
3C
66
66
66
00
00
00
ENDCHAR
STARTCHAR GREEK CAPITAL LETTER MU
ENCODING 924
SWIDTH 500 0
DWIDTH 7 0
BBX 7 14 0 -3
BITMAP
00
00
66
66
7E
7E
56
56
46
66
66
00
00
00
ENDCHAR
STARTCHAR GREEK CAPITAL LETTER NU
ENCODING 925
SWIDTH 500 0
DWIDTH 7 0
BBX 7 14 0 -3
BITMAP
00
00
66
76
76
7E
7E
6E
6E
66
66
00
00
00
ENDCHAR
STARTCHAR GREEK CAPITAL LETTER XI
ENCODING 926
SWIDTH 500 0
DWIDTH 7 0
BBX 7 14 0 -3
BITMAP
00
00
7E
7E
00
3C
3C
00
00
7E
7E
00
00
00
ENDCHAR
STARTCHAR GREEK CAPITAL LETTER OMICRON
ENCODING 927
SWIDTH 500 0
DWIDTH 7 0
BBX 7 14 0 -3
BITMAP
00
00
3C
66
66
66
66
66
66
66
3C
00
00
00
ENDCHAR
STARTCHAR GREEK CAPITAL LETTER PI
ENCODING 928
SWIDTH 500 0
DWIDTH 7 0
BBX 7 14 0 -3
BITMAP
00
00
7E
66
66
66
66
66
66
66
66
00
00
00
ENDCHAR
STARTCHAR GREEK CAPITAL LETTER RHO
ENCODING 929
SWIDTH 500 0
DWIDTH 7 0
BBX 7 14 0 -3
BITMAP
00
00
7C
66
66
66
7C
60
60
60
60
00
00
00
ENDCHAR
STARTCHAR GREEK CAPITAL LETTER SIGMA
ENCODING 931
SWIDTH 500 0
DWIDTH 7 0
BBX 7 14 0 -3
BITMAP
00
00
7E
60
30
18
0C
18
30
60
7E
00
00
00
ENDCHAR
STARTCHAR GREEK CAPITAL LETTER TAU
ENCODING 932
SWIDTH 500 0
DWIDTH 7 0
BBX 7 14 0 -3
BITMAP
00
00
7E
18
18
18
18
18
18
18
18
00
00
00
ENDCHAR
STARTCHAR GREEK CAPITAL LETTER UPSILON
ENCODING 933
SWIDTH 500 0
DWIDTH 7 0
BBX 7 14 0 -3
BITMAP
00
00
66
66
3C
3C
18
18
18
18
18
00
00
00
ENDCHAR
STARTCHAR GREEK CAPITAL LETTER PHI
ENCODING 934
SWIDTH 500 0
DWIDTH 7 0
BBX 7 14 0 -3
BITMAP
00
00
18
7E
5A
5A
5A
5A
7E
18
18
00
00
00
ENDCHAR
STARTCHAR GREEK CAPITAL LETTER CHI
ENCODING 935
SWIDTH 500 0
DWIDTH 7 0
BBX 7 14 0 -3
BITMAP
00
00
66
66
3C
3C
18
3C
3C
66
66
00
00
00
ENDCHAR
STARTCHAR GREEK CAPITAL LETTER PSI
ENCODING 936
SWIDTH 500 0
DWIDTH 7 0
BBX 7 14 0 -3
BITMAP
00
00
5A
5A
5A
5A
3C
18
18
18
18
00
00
00
ENDCHAR
STARTCHAR GREEK CAPITAL LETTER OMEGA
ENCODING 937
SWIDTH 500 0
DWIDTH 7 0
BBX 7 14 0 -3
BITMAP
00
00
3C
66
66
66
66
66
34
34
76
00
00
00
ENDCHAR
STARTCHAR GREEK CAPITAL LETTER IOTA WITH DIALYTIKA
ENCODING 938
SWIDTH 500 0
DWIDTH 7 0
BBX 7 14 0 -3
BITMAP
66
00
3C
18
18
18
18
18
18
18
3C
00
00
00
ENDCHAR
STARTCHAR GREEK CAPITAL LETTER UPSILON WITH DIALYTIKA
ENCODING 939
SWIDTH 500 0
DWIDTH 7 0
BBX 7 14 0 -3
BITMAP
66
00
66
66
3C
3C
18
18
18
18
18
00
00
00
ENDCHAR
STARTCHAR GREEK SMALL LETTER ALPHA WITH TONOS
ENCODING 940
SWIDTH 500 0
DWIDTH 7 0
BBX 7 14 0 -3
BITMAP
00
00
0C
18
00
3E
66
66
66
66
3E
00
00
00
ENDCHAR
STARTCHAR GREEK SMALL LETTER EPSILON WITH TONOS
ENCODING 941
SWIDTH 500 0
DWIDTH 7 0
BBX 7 14 0 -3
BITMAP
00
00
0C
18
00
3E
60
3C
60
60
3E
00
00
00
ENDCHAR
STARTCHAR GREEK SMALL LETTER ETA WITH TONOS
ENCODING 942
SWIDTH 500 0
DWIDTH 7 0
BBX 7 14 0 -3
BITMAP
00
00
0C
18
00
7C
66
66
66
66
66
06
06
06
ENDCHAR
STARTCHAR GREEK SMALL LETTER IOTA WITH TONOS
ENCODING 943
SWIDTH 500 0
DWIDTH 7 0
BBX 7 14 0 -3
BITMAP
00
00
18
30
00
70
30
30
30
30
1C
00
00
00
ENDCHAR
STARTCHAR GREEK SMALL LETTER UPSILON WITH DIALYTIKA AND TONOS
ENCODING 944
SWIDTH 500 0
DWIDTH 7 0
BBX 7 14 0 -3
BITMAP
0C
18
66
66
00
66
66
66
66
66
3C
00
00
00
ENDCHAR
STARTCHAR GREEK SMALL LETTER ALPHA
ENCODING 945
SWIDTH 500 0
DWIDTH 7 0
BBX 7 14 0 -3
BITMAP
00
00
00
00
00
3E
66
66
66
66
3E
00
00
00
ENDCHAR
STARTCHAR GREEK SMALL LETTER BETA
ENCODING 946
SWIDTH 500 0
DWIDTH 7 0
BBX 7 14 0 -3
BITMAP
00
00
3C
66
66
7C
66
66
66
66
7C
60
60
60
ENDCHAR
STARTCHAR GREEK SMALL LETTER GAMMA
ENCODING 947
SWIDTH 500 0
DWIDTH 7 0
BBX 7 14 0 -3
BITMAP
00
00
00
00
00
66
66
3C
3C
18
18
18
18
18
ENDCHAR
STARTCHAR GREEK SMALL LETTER DELTA
ENCODING 948
SWIDTH 500 0
DWIDTH 7 0
BBX 7 14 0 -3
BITMAP
00
00
3C
60
60
3C
66
66
66
66
3C
00
00
00
ENDCHAR
STARTCHAR GREEK SMALL LETTER EPSILON
ENCODING 949
SWIDTH 500 0
DWIDTH 7 0
BBX 7 14 0 -3
BITMAP
00
00
00
00
00
3E
60
3C
60
60
3E
00
00
00
ENDCHAR
STARTCHAR GREEK SMALL LETTER ZETA
ENCODING 950
SWIDTH 500 0
DWIDTH 7 0
BBX 7 14 0 -3
BITMAP
00
00
7E
0C
18
30
60
60
60
60
3C
06
06
3C
ENDCHAR
STARTCHAR GREEK SMALL LETTER ETA
ENCODING 951
SWIDTH 500 0
DWIDTH 7 0
BBX 7 14 0 -3
BITMAP
00
00
00
00
00
7C
66
66
66
66
66
06
06
06
ENDCHAR
STARTCHAR GREEK SMALL LETTER THETA
ENCODING 952
SWIDTH 500 0
DWIDTH 7 0
BBX 7 14 0 -3
BITMAP
00
00
3C
66
66
66
7E
66
66
66
3C
00
00
00
ENDCHAR
STARTCHAR GREEK SMALL LETTER IOTA
ENCODING 953
SWIDTH 500 0
DWIDTH 7 0
BBX 7 14 0 -3
BITMAP
00
00
00
00
00
70
30
30
30
30
1C
00
00
00
ENDCHAR
STARTCHAR GREEK SMALL LETTER KAPPA
ENCODING 954
SWIDTH 500 0
DWIDTH 7 0
BBX 7 14 0 -3
BITMAP
00
00
00
00
00
66
6C
78
78
6C
66
00
00
00
ENDCHAR
STARTCHAR GREEK SMALL LETTER LAMDA
ENCODING 955
SWIDTH 500 0
DWIDTH 7 0
BBX 7 14 0 -3
BITMAP
00
00
70
18
18
3C
3C
3C
66
66
66
00
00
00
ENDCHAR
STARTCHAR GREEK SMALL LETTER MU
ENCODING 956
SWIDTH 500 0
DWIDTH 7 0
BBX 7 14 0 -3
BITMAP
00
00
00
00
00
66
66
66
66
6E
7E
60
60
60
ENDCHAR
STARTCHAR GREEK SMALL LETTER NU
ENCODING 957
SWIDTH 500 0
DWIDTH 7 0
BBX 7 14 0 -3
BITMAP
00
00
00
00
00
66
66
3C
3C
18
18
00
00
00
ENDCHAR
STARTCHAR GREEK SMALL LETTER XI
ENCODING 958
SWIDTH 500 0
DWIDTH 7 0
BBX 7 14 0 -3
BITMAP
00
00
3E
60
60
60
3C
60
60
60
3C
06
06
3C
ENDCHAR
STARTCHAR GREEK SMALL LETTER OMICRON
ENCODING 959
SWIDTH 500 0
DWIDTH 7 0
BBX 7 14 0 -3
BITMAP
00
00
00
00
00
3C
66
66
66
66
3C
00
00
00
ENDCHAR
STARTCHAR GREEK SMALL LETTER PI
ENCODING 960
SWIDTH 500 0
DWIDTH 7 0
BBX 7 14 0 -3
BITMAP
00
00
00
00
00
7E
66
66
66
66
66
00
00
00
ENDCHAR
STARTCHAR GREEK SMALL LETTER RHO
ENCODING 961
SWIDTH 500 0
DWIDTH 7 0
BBX 7 14 0 -3
BITMAP
00
00
00
00
00
3C
66
66
66
66
7C
60
60
60
ENDCHAR
STARTCHAR GREEK SMALL LETTER FINAL SIGMA
ENCODING 962
SWIDTH 500 0
DWIDTH 7 0
BBX 7 14 0 -3
BITMAP
00
00
00
00
00
3C
66
60
60
60
3C
06
06
3C
ENDCHAR
STARTCHAR GREEK SMALL LETTER SIGMA
ENCODING 963
SWIDTH 500 0
DWIDTH 7 0
BBX 7 14 0 -3
BITMAP
00
00
00
00
00
3E
6C
66
66
66
3C
00
00
00
ENDCHAR
STARTCHAR GREEK SMALL LETTER TAU
ENCODING 964
SWIDTH 500 0
DWIDTH 7 0
BBX 7 14 0 -3
BITMAP
00
00
00
00
00
7E
18
18
18
18
0C
00
00
00
ENDCHAR
STARTCHAR GREEK SMALL LETTER UPSILON
ENCODING 965
SWIDTH 500 0
DWIDTH 7 0
BBX 7 14 0 -3
BITMAP
00
00
00
00
00
66
66
66
66
66
3C
00
00
00
ENDCHAR
STARTCHAR GREEK SMALL LETTER PHI
ENCODING 966
SWIDTH 500 0
DWIDTH 7 0
BBX 7 14 0 -3
BITMAP
00
00
00
00
00
4C
5A
5A
5A
5A
3C
18
18
18
ENDCHAR
STARTCHAR GREEK SMALL LETTER CHI
ENCODING 967
SWIDTH 500 0
DWIDTH 7 0
BBX 7 14 0 -3
BITMAP
00
00
00
00
00
66
36
3C
1C
18
38
3C
6C
66
ENDCHAR
STARTCHAR GREEK SMALL LETTER PSI
ENCODING 968
SWIDTH 500 0
DWIDTH 7 0
BBX 7 14 0 -3
BITMAP
00
00
18
18
18
5A
5A
5A
5A
5A
3C
18
18
18
ENDCHAR
STARTCHAR GREEK SMALL LETTER OMEGA
ENCODING 969
SWIDTH 500 0
DWIDTH 7 0
BBX 7 14 0 -3
BITMAP
00
00
00
00
00
34
62
6A
6A
7E
34
00
00
00
ENDCHAR
STARTCHAR GREEK SMALL LETTER IOTA WITH DIALYTIKA
ENCODING 970
SWIDTH 500 0
DWIDTH 7 0
BBX 7 14 0 -3
BITMAP
00
00
6C
6C
00
70
30
30
30
30
1C
00
00
00
ENDCHAR
STARTCHAR GREEK SMALL LETTER UPSILON WITH DIALYTIKA
ENCODING 971
SWIDTH 500 0
DWIDTH 7 0
BBX 7 14 0 -3
BITMAP
00
00
6C
6C
00
66
66
66
66
66
3C
00
00
00
ENDCHAR
STARTCHAR GREEK SMALL LETTER OMICRON WITH TONOS
ENCODING 972
SWIDTH 500 0
DWIDTH 7 0
BBX 7 14 0 -3
BITMAP
00
00
0C
18
00
3C
66
66
66
66
3C
00
00
00
ENDCHAR
STARTCHAR GREEK SMALL LETTER UPSILON WITH TONOS
ENCODING 973
SWIDTH 500 0
DWIDTH 7 0
BBX 7 14 0 -3
BITMAP
00
00
0C
18
00
66
66
66
66
66
3C
00
00
00
ENDCHAR
STARTCHAR GREEK SMALL LETTER OMEGA WITH TONOS
ENCODING 974
SWIDTH 500 0
DWIDTH 7 0
BBX 7 14 0 -3
BITMAP
00
00
0C
18
00
34
62
6A
6A
7E
34
00
00
00
ENDCHAR
STARTCHAR GREEK CAPITAL KAI SYMBOL
ENCODING 975
SWIDTH 500 0
DWIDTH 7 0
BBX 7 14 0 -3
BITMAP
00
00
66
6C
6C
6C
78
6C
6C
6C
66
0C
18
00
ENDCHAR
STARTCHAR GREEK BETA SYMBOL
ENCODING 976
SWIDTH 500 0
DWIDTH 7 0
BBX 7 14 0 -3
BITMAP
00
00
3C
66
66
7C
66
66
66
66
3C
00
00
00
ENDCHAR
STARTCHAR GREEK THETA SYMBOL
ENCODING 977
SWIDTH 500 0
DWIDTH 7 0
BBX 7 14 0 -3
BITMAP
00
00
3C
66
66
3E
06
66
66
66
3C
00
00
00
ENDCHAR
STARTCHAR GREEK UPSILON WITH HOOK SYMBOL
ENCODING 978
SWIDTH 500 0
DWIDTH 7 0
BBX 7 14 0 -3
BITMAP
00
00
4C
5A
72
30
30
30
30
30
30
00
00
00
ENDCHAR
STARTCHAR GREEK UPSILON WITH ACUTE AND HOOK SYMBOL
ENCODING 979
SWIDTH 500 0
DWIDTH 7 0
BBX 7 14 0 -3
BITMAP
18
30
4C
5A
72
30
30
30
30
30
30
00
00
00
ENDCHAR
STARTCHAR GREEK UPSILON WITH DIAERESIS AND HOOK SYMBOL
ENCODING 980
SWIDTH 500 0
DWIDTH 7 0
BBX 7 14 0 -3
BITMAP
6C
00
4C
5A
72
30
30
30
30
30
30
00
00
00
ENDCHAR
STARTCHAR GREEK PHI SYMBOL
ENCODING 981
SWIDTH 500 0
DWIDTH 7 0
BBX 7 14 0 -3
BITMAP
00
00
18
18
18
7E
5A
5A
5A
5A
7E
18
18
18
ENDCHAR
STARTCHAR GREEK PI SYMBOL
ENCODING 982
SWIDTH 500 0
DWIDTH 7 0
BBX 7 14 0 -3
BITMAP
00
00
00
00
00
7E
62
6A
6A
7E
34
00
00
00
ENDCHAR
STARTCHAR GREEK KAI SYMBOL
ENCODING 983
SWIDTH 500 0
DWIDTH 7 0
BBX 7 14 0 -3
BITMAP
00
00
00
00
00
66
2E
3C
3C
76
66
06
06
1C
ENDCHAR
STARTCHAR GREEK LETTER ARCHAIC KOPPA
ENCODING 984
SWIDTH 500 0
DWIDTH 7 0
BBX 7 14 0 -3
BITMAP
00
00
3C
66
66
66
66
66
66
66
3C
18
18
00
ENDCHAR
STARTCHAR GREEK SMALL LETTER ARCHAIC KOPPA
ENCODING 985
SWIDTH 500 0
DWIDTH 7 0
BBX 7 14 0 -3
BITMAP
00
00
00
00
00
3C
66
66
66
66
3C
18
18
00
ENDCHAR
STARTCHAR GREEK LETTER STIGMA
ENCODING 986
SWIDTH 500 0
DWIDTH 7 0
BBX 7 14 0 -3
BITMAP
00
00
3E
70
60
60
60
60
60
60
30
18
18
70
ENDCHAR
STARTCHAR GREEK SMALL LETTER STIGMA
ENCODING 987
SWIDTH 500 0
DWIDTH 7 0
BBX 7 14 0 -3
BITMAP
00
00
00
00
00
3E
60
60
60
60
30
18
18
70
ENDCHAR
STARTCHAR GREEK LETTER DIGAMMA
ENCODING 988
SWIDTH 500 0
DWIDTH 7 0
BBX 7 14 0 -3
BITMAP
00
00
7E
60
60
60
7C
60
60
60
60
00
00
00
ENDCHAR
STARTCHAR GREEK SMALL LETTER DIGAMMA
ENCODING 989
SWIDTH 500 0
DWIDTH 7 0
BBX 7 14 0 -3
BITMAP
00
00
0E
18
18
1E
18
18
18
18
18
18
18
70
ENDCHAR
STARTCHAR GREEK LETTER KOPPA
ENCODING 990
SWIDTH 500 0
DWIDTH 7 0
BBX 7 14 0 -3
BITMAP
00
00
70
18
18
36
3C
6C
18
18
0E
00
00
00
ENDCHAR
STARTCHAR GREEK SMALL LETTER KOPPA
ENCODING 991
SWIDTH 500 0
DWIDTH 7 0
BBX 7 14 0 -3
BITMAP
00
00
18
18
30
30
7E
0C
0C
18
18
00
00
00
ENDCHAR
STARTCHAR GREEK LETTER SAMPI
ENCODING 992
SWIDTH 500 0
DWIDTH 7 0
BBX 7 14 0 -3
BITMAP
00
00
78
0C
16
26
4E
16
26
06
0C
0C
18
30
ENDCHAR
STARTCHAR GREEK SMALL LETTER SAMPI
ENCODING 993
SWIDTH 500 0
DWIDTH 7 0
BBX 7 14 0 -3
BITMAP
00
00
00
00
00
70
18
0C
1C
2E
56
06
06
06
ENDCHAR
STARTCHAR COPTIC CAPITAL LETTER SHEI
ENCODING 994
SWIDTH 500 0
DWIDTH 7 0
BBX 7 14 0 -3
BITMAP
00
00
34
62
62
6A
6A
6A
6A
7E
36
06
06
0C
ENDCHAR
STARTCHAR COPTIC SMALL LETTER SHEI
ENCODING 995
SWIDTH 500 0
DWIDTH 7 0
BBX 7 14 0 -3
BITMAP
00
00
00
00
00
34
62
6A
6A
7E
36
06
06
0C
ENDCHAR
STARTCHAR COPTIC CAPITAL LETTER FEI
ENCODING 996
SWIDTH 500 0
DWIDTH 7 0
BBX 7 14 0 -3
BITMAP
00
00
16
36
36
66
66
66
66
6E
36
06
06
06
ENDCHAR
STARTCHAR COPTIC SMALL LETTER FEI
ENCODING 997
SWIDTH 500 0
DWIDTH 7 0
BBX 7 14 0 -3
BITMAP
00
00
00
00
00
16
36
66
66
6E
36
06
06
06
ENDCHAR
STARTCHAR COPTIC CAPITAL LETTER KHEI
ENCODING 998
SWIDTH 500 0
DWIDTH 7 0
BBX 7 14 0 -3
BITMAP
00
00
60
60
60
78
6C
66
66
66
66
06
0C
78
ENDCHAR
STARTCHAR COPTIC SMALL LETTER KHEI
ENCODING 999
SWIDTH 500 0
DWIDTH 7 0
BBX 7 14 0 -3
BITMAP
00
00
00
00
00
3A
6C
36
06
66
3C
00
00
00
ENDCHAR
STARTCHAR COPTIC CAPITAL LETTER HORI
ENCODING 1000
SWIDTH 500 0
DWIDTH 7 0
BBX 7 14 0 -3
BITMAP
00
00
3C
66
06
06
0C
0C
18
30
60
36
1C
00
ENDCHAR
STARTCHAR COPTIC SMALL LETTER HORI
ENCODING 1001
SWIDTH 500 0
DWIDTH 7 0
BBX 7 14 0 -3
BITMAP
00
00
00
00
00
3C
66
06
1C
30
60
36
1C
00
ENDCHAR
STARTCHAR COPTIC CAPITAL LETTER GANGIA
ENCODING 1002
SWIDTH 500 0
DWIDTH 7 0
BBX 7 14 0 -3
BITMAP
00
00
66
3C
3C
18
18
3C
3C
66
7E
00
00
00
ENDCHAR
STARTCHAR COPTIC SMALL LETTER GANGIA
ENCODING 1003
SWIDTH 500 0
DWIDTH 7 0
BBX 7 14 0 -3
BITMAP
00
00
00
00
00
66
3C
18
18
3C
7E
00
00
00
ENDCHAR
STARTCHAR COPTIC CAPITAL LETTER SHIMA
ENCODING 1004
SWIDTH 500 0
DWIDTH 7 0
BBX 7 14 0 -3
BITMAP
00
00
3E
60
7C
66
66
66
66
66
3C
00
00
00
ENDCHAR
STARTCHAR COPTIC SMALL LETTER SHIMA
ENCODING 1005
SWIDTH 500 0
DWIDTH 7 0
BBX 7 14 0 -3
BITMAP
00
06
3C
60
60
7C
66
66
66
66
3C
00
00
00
ENDCHAR
STARTCHAR COPTIC CAPITAL LETTER DEI
ENCODING 1006
SWIDTH 500 0
DWIDTH 7 0
BBX 7 14 0 -3
BITMAP
00
00
18
7E
5A
18
18
18
18
18
18
00
00
00
ENDCHAR
STARTCHAR COPTIC SMALL LETTER DEI
ENCODING 1007
SWIDTH 500 0
DWIDTH 7 0
BBX 7 14 0 -3
BITMAP
00
00
18
18
18
7E
5A
5A
18
18
18
18
18
18
ENDCHAR
STARTCHAR GREEK KAPPA SYMBOL
ENCODING 1008
SWIDTH 500 0
DWIDTH 7 0
BBX 7 14 0 -3
BITMAP
00
00
00
00
00
66
6E
3C
3C
76
66
00
00
00
ENDCHAR
STARTCHAR GREEK RHO SYMBOL
ENCODING 1009
SWIDTH 500 0
DWIDTH 7 0
BBX 7 14 0 -3
BITMAP
00
00
00
00
00
3C
66
66
66
66
7C
60
60
3E
ENDCHAR
STARTCHAR GREEK LUNATE SIGMA SYMBOL
ENCODING 1010
SWIDTH 500 0
DWIDTH 7 0
BBX 7 14 0 -3
BITMAP
00
00
00
00
00
3C
66
60
60
66
3C
00
00
00
ENDCHAR
STARTCHAR GREEK LETTER YOT
ENCODING 1011
SWIDTH 500 0
DWIDTH 7 0
BBX 7 14 0 -3
BITMAP
00
00
0C
0C
00
3C
0C
0C
0C
0C
0C
0C
0C
78
ENDCHAR
STARTCHAR GREEK CAPITAL THETA SYMBOL
ENCODING 1012
SWIDTH 500 0
DWIDTH 7 0
BBX 7 14 0 -3
BITMAP
00
00
3C
66
66
66
7E
66
66
66
3C
00
00
00
ENDCHAR
STARTCHAR GREEK LUNATE EPSILON SYMBOL
ENCODING 1013
SWIDTH 500 0
DWIDTH 7 0
BBX 7 14 0 -3
BITMAP
00
00
00
00
00
3E
60
7C
60
60
3E
00
00
00
ENDCHAR
STARTCHAR GREEK REVERSED LUNATE EPSILON SYMBOL
ENCODING 1014
SWIDTH 500 0
DWIDTH 7 0
BBX 7 14 0 -3
BITMAP
00
00
00
00
00
7C
06
3E
06
06
7C
00
00
00
ENDCHAR
STARTCHAR GREEK CAPITAL LETTER SHO
ENCODING 1015
SWIDTH 500 0
DWIDTH 7 0
BBX 7 14 0 -3
BITMAP
00
00
60
60
7C
66
66
66
7C
60
60
00
00
00
ENDCHAR
STARTCHAR GREEK SMALL LETTER SHO
ENCODING 1016
SWIDTH 500 0
DWIDTH 7 0
BBX 7 14 0 -3
BITMAP
00
00
60
60
60
7C
66
66
66
66
7C
60
60
60
ENDCHAR
STARTCHAR GREEK CAPITAL LUNATE SIGMA SYMBOL
ENCODING 1017
SWIDTH 500 0
DWIDTH 7 0
BBX 7 14 0 -3
BITMAP
00
00
1C
36
60
60
60
60
60
36
1C
00
00
00
ENDCHAR
STARTCHAR GREEK CAPITAL LETTER SAN
ENCODING 1018
SWIDTH 500 0
DWIDTH 7 0
BBX 7 14 0 -3
BITMAP
00
00
66
7E
7E
56
46
66
66
66
66
00
00
00
ENDCHAR
STARTCHAR GREEK SMALL LETTER SAN
ENCODING 1019
SWIDTH 500 0
DWIDTH 7 0
BBX 7 14 0 -3
BITMAP
00
00
00
00
00
66
7E
7E
6A
62
62
60
60
60
ENDCHAR
STARTCHAR GREEK RHO WITH STROKE SYMBOL
ENCODING 1020
SWIDTH 500 0
DWIDTH 7 0
BBX 7 14 0 -3
BITMAP
00
00
00
00
00
3C
66
66
66
66
7C
60
FC
60
ENDCHAR
STARTCHAR GREEK CAPITAL REVERSED LUNATE SIGMA SYMBOL
ENCODING 1021
SWIDTH 500 0
DWIDTH 7 0
BBX 7 14 0 -3
BITMAP
00
00
38
6C
06
06
06
06
06
6C
38
00
00
00
ENDCHAR
STARTCHAR GREEK CAPITAL DOTTED LUNATE SIGMA SYMBOL
ENCODING 1022
SWIDTH 500 0
DWIDTH 7 0
BBX 7 14 0 -3
BITMAP
00
00
1C
36
60
6C
6C
60
60
36
1C
00
00
00
ENDCHAR
STARTCHAR GREEK CAPITAL REVERSED DOTTED LUNATE SIGMA SYMBOL
ENCODING 1023
SWIDTH 500 0
DWIDTH 7 0
BBX 7 14 0 -3
BITMAP
00
00
38
6C
06
36
36
06
06
6C
38
00
00
00
ENDCHAR
STARTCHAR CYRILLIC CAPITAL LETTER IE WITH GRAVE
ENCODING 1024
SWIDTH 500 0
DWIDTH 7 0
BBX 7 14 0 -3
BITMAP
30
18
00
7E
60
60
7C
60
60
60
7E
00
00
00
ENDCHAR
STARTCHAR CYRILLIC CAPITAL LETTER IO
ENCODING 1025
SWIDTH 500 0
DWIDTH 7 0
BBX 7 14 0 -3
BITMAP
6C
6C
00
7E
60
60
7C
60
60
60
7E
00
00
00
ENDCHAR
STARTCHAR CYRILLIC CAPITAL LETTER DJE
ENCODING 1026
SWIDTH 500 0
DWIDTH 7 0
BBX 7 14 0 -3
BITMAP
00
00
7E
30
30
3C
36
36
36
36
36
06
06
1C
ENDCHAR
STARTCHAR CYRILLIC CAPITAL LETTER GJE
ENCODING 1027
SWIDTH 500 0
DWIDTH 7 0
BBX 7 14 0 -3
BITMAP
0C
18
00
7E
60
60
60
60
60
60
60
00
00
00
ENDCHAR
STARTCHAR CYRILLIC CAPITAL LETTER UKRAINIAN IE
ENCODING 1028
SWIDTH 500 0
DWIDTH 7 0
BBX 7 14 0 -3
BITMAP
00
00
1C
36
60
60
78
60
60
36
1C
00
00
00
ENDCHAR
STARTCHAR CYRILLIC CAPITAL LETTER DZE
ENCODING 1029
SWIDTH 500 0
DWIDTH 7 0
BBX 7 14 0 -3
BITMAP
00
00
3C
66
60
60
3C
06
06
66
3C
00
00
00
ENDCHAR
STARTCHAR CYRILLIC CAPITAL LETTER BYELORUSSIAN-UKRAINIAN I
ENCODING 1030
SWIDTH 500 0
DWIDTH 7 0
BBX 7 14 0 -3
BITMAP
00
00
3C
18
18
18
18
18
18
18
3C
00
00
00
ENDCHAR
STARTCHAR CYRILLIC CAPITAL LETTER YI
ENCODING 1031
SWIDTH 500 0
DWIDTH 7 0
BBX 7 14 0 -3
BITMAP
6C
6C
00
3C
18
18
18
18
18
18
3C
00
00
00
ENDCHAR
STARTCHAR CYRILLIC CAPITAL LETTER JE
ENCODING 1032
SWIDTH 500 0
DWIDTH 7 0
BBX 7 14 0 -3
BITMAP
00
00
1E
06
06
06
06
06
06
66
3C
00
00
00
ENDCHAR
STARTCHAR CYRILLIC CAPITAL LETTER LJE
ENCODING 1033
SWIDTH 500 0
DWIDTH 7 0
BBX 7 14 0 -3
BITMAP
00
00
18
38
38
58
5C
5A
5A
5A
5C
00
00
00
ENDCHAR
STARTCHAR CYRILLIC CAPITAL LETTER NJE
ENCODING 1034
SWIDTH 500 0
DWIDTH 7 0
BBX 7 14 0 -3
BITMAP
00
00
58
58
58
58
7C
5A
5A
5A
5C
00
00
00
ENDCHAR
STARTCHAR CYRILLIC CAPITAL LETTER TSHE
ENCODING 1035
SWIDTH 500 0
DWIDTH 7 0
BBX 7 14 0 -3
BITMAP
00
00
7E
30
30
3C
36
36
36
36
36
00
00
00
ENDCHAR
STARTCHAR CYRILLIC CAPITAL LETTER KJE
ENCODING 1036
SWIDTH 500 0
DWIDTH 7 0
BBX 7 14 0 -3
BITMAP
0C
18
00
66
6C
6C
78
6C
6C
6C
66
00
00
00
ENDCHAR
STARTCHAR CYRILLIC CAPITAL LETTER I WITH GRAVE
ENCODING 1037
SWIDTH 500 0
DWIDTH 7 0
BBX 7 14 0 -3
BITMAP
30
18
00
66
6E
6E
7E
7E
76
76
66
00
00
00
ENDCHAR
STARTCHAR CYRILLIC CAPITAL LETTER SHORT U
ENCODING 1038
SWIDTH 500 0
DWIDTH 7 0
BBX 7 14 0 -3
BITMAP
34
3C
00
66
66
3C
3C
3C
18
18
70
00
00
00
ENDCHAR
STARTCHAR CYRILLIC CAPITAL LETTER DZHE
ENCODING 1039
SWIDTH 500 0
DWIDTH 7 0
BBX 7 14 0 -3
BITMAP
00
00
66
66
66
66
66
66
66
66
7E
18
18
00
ENDCHAR
STARTCHAR CYRILLIC CAPITAL LETTER A
ENCODING 1040
SWIDTH 500 0
DWIDTH 7 0
BBX 7 14 0 -3
BITMAP
00
00
18
18
3C
3C
3C
66
7E
66
66
00
00
00
ENDCHAR
STARTCHAR CYRILLIC CAPITAL LETTER BE
ENCODING 1041
SWIDTH 500 0
DWIDTH 7 0
BBX 7 14 0 -3
BITMAP
00
00
7E
60
60
60
7C
66
66
66
7C
00
00
00
ENDCHAR
STARTCHAR CYRILLIC CAPITAL LETTER VE
ENCODING 1042
SWIDTH 500 0
DWIDTH 7 0
BBX 7 14 0 -3
BITMAP
00
00
7C
66
66
66
7C
66
66
66
7C
00
00
00
ENDCHAR
STARTCHAR CYRILLIC CAPITAL LETTER GHE
ENCODING 1043
SWIDTH 500 0
DWIDTH 7 0
BBX 7 14 0 -3
BITMAP
00
00
7E
60
60
60
60
60
60
60
60
00
00
00
ENDCHAR
STARTCHAR CYRILLIC CAPITAL LETTER DE
ENCODING 1044
SWIDTH 500 0
DWIDTH 7 0
BBX 7 14 0 -3
BITMAP
00
00
7C
6C
6C
6C
6C
6C
6C
6C
FE
C6
C6
00
ENDCHAR
STARTCHAR CYRILLIC CAPITAL LETTER IE
ENCODING 1045
SWIDTH 500 0
DWIDTH 7 0
BBX 7 14 0 -3
BITMAP
00
00
7E
60
60
60
7C
60
60
60
7E
00
00
00
ENDCHAR
STARTCHAR CYRILLIC CAPITAL LETTER ZHE
ENCODING 1046
SWIDTH 500 0
DWIDTH 7 0
BBX 7 14 0 -3
BITMAP
00
00
54
54
54
38
38
38
54
54
54
00
00
00
ENDCHAR
STARTCHAR CYRILLIC CAPITAL LETTER ZE
ENCODING 1047
SWIDTH 500 0
DWIDTH 7 0
BBX 7 14 0 -3
BITMAP
00
00
3C
66
06
06
1C
06
06
66
3C
00
00
00
ENDCHAR
STARTCHAR CYRILLIC CAPITAL LETTER I
ENCODING 1048
SWIDTH 500 0
DWIDTH 7 0
BBX 7 14 0 -3
BITMAP
00
00
66
66
6E
6E
7E
7E
76
76
66
00
00
00
ENDCHAR
STARTCHAR CYRILLIC CAPITAL LETTER SHORT I
ENCODING 1049
SWIDTH 500 0
DWIDTH 7 0
BBX 7 14 0 -3
BITMAP
34
3C
00
66
6E
6E
7E
7E
76
76
66
00
00
00
ENDCHAR
STARTCHAR CYRILLIC CAPITAL LETTER KA
ENCODING 1050
SWIDTH 500 0
DWIDTH 7 0
BBX 7 14 0 -3
BITMAP
00
00
66
6C
6C
6C
78
6C
6C
6C
66
00
00
00
ENDCHAR
STARTCHAR CYRILLIC CAPITAL LETTER EL
ENCODING 1051
SWIDTH 500 0
DWIDTH 7 0
BBX 7 14 0 -3
BITMAP
00
00
3E
36
36
36
36
36
36
36
E6
00
00
00
ENDCHAR
STARTCHAR CYRILLIC CAPITAL LETTER EM
ENCODING 1052
SWIDTH 500 0
DWIDTH 7 0
BBX 7 14 0 -3
BITMAP
00
00
66
66
7E
7E
56
56
46
66
66
00
00
00
ENDCHAR
STARTCHAR CYRILLIC CAPITAL LETTER EN
ENCODING 1053
SWIDTH 500 0
DWIDTH 7 0
BBX 7 14 0 -3
BITMAP
00
00
66
66
66
66
7E
66
66
66
66
00
00
00
ENDCHAR
STARTCHAR CYRILLIC CAPITAL LETTER O
ENCODING 1054
SWIDTH 500 0
DWIDTH 7 0
BBX 7 14 0 -3
BITMAP
00
00
3C
66
66
66
66
66
66
66
3C
00
00
00
ENDCHAR
STARTCHAR CYRILLIC CAPITAL LETTER PE
ENCODING 1055
SWIDTH 500 0
DWIDTH 7 0
BBX 7 14 0 -3
BITMAP
00
00
7E
66
66
66
66
66
66
66
66
00
00
00
ENDCHAR
STARTCHAR CYRILLIC CAPITAL LETTER ER
ENCODING 1056
SWIDTH 500 0
DWIDTH 7 0
BBX 7 14 0 -3
BITMAP
00
00
7C
66
66
66
7C
60
60
60
60
00
00
00
ENDCHAR
STARTCHAR CYRILLIC CAPITAL LETTER ES
ENCODING 1057
SWIDTH 500 0
DWIDTH 7 0
BBX 7 14 0 -3
BITMAP
00
00
1C
36
60
60
60
60
60
36
1C
00
00
00
ENDCHAR
STARTCHAR CYRILLIC CAPITAL LETTER TE
ENCODING 1058
SWIDTH 500 0
DWIDTH 7 0
BBX 7 14 0 -3
BITMAP
00
00
7E
18
18
18
18
18
18
18
18
00
00
00
ENDCHAR
STARTCHAR CYRILLIC CAPITAL LETTER U
ENCODING 1059
SWIDTH 500 0
DWIDTH 7 0
BBX 7 14 0 -3
BITMAP
00
00
66
66
66
3C
3C
3C
18
18
70
00
00
00
ENDCHAR
STARTCHAR CYRILLIC CAPITAL LETTER EF
ENCODING 1060
SWIDTH 500 0
DWIDTH 7 0
BBX 7 14 0 -3
BITMAP
00
00
18
7E
5A
5A
5A
5A
7E
18
18
00
00
00
ENDCHAR
STARTCHAR CYRILLIC CAPITAL LETTER HA
ENCODING 1061
SWIDTH 500 0
DWIDTH 7 0
BBX 7 14 0 -3
BITMAP
00
00
66
66
3C
3C
18
3C
3C
66
66
00
00
00
ENDCHAR
STARTCHAR CYRILLIC CAPITAL LETTER TSE
ENCODING 1062
SWIDTH 500 0
DWIDTH 7 0
BBX 7 14 0 -3
BITMAP
00
00
6C
6C
6C
6C
6C
6C
6C
6C
7E
06
06
00
ENDCHAR
STARTCHAR CYRILLIC CAPITAL LETTER CHE
ENCODING 1063
SWIDTH 500 0
DWIDTH 7 0
BBX 7 14 0 -3
BITMAP
00
00
66
66
66
66
3E
06
06
06
06
00
00
00
ENDCHAR
STARTCHAR CYRILLIC CAPITAL LETTER SHA
ENCODING 1064
SWIDTH 500 0
DWIDTH 7 0
BBX 7 14 0 -3
BITMAP
00
00
56
56
56
56
56
56
56
7E
7E
00
00
00
ENDCHAR
STARTCHAR CYRILLIC CAPITAL LETTER SHCHA
ENCODING 1065
SWIDTH 500 0
DWIDTH 7 0
BBX 7 14 0 -3
BITMAP
00
00
56
56
56
56
56
56
56
7E
7E
06
06
00
ENDCHAR
STARTCHAR CYRILLIC CAPITAL LETTER HARD SIGN
ENCODING 1066
SWIDTH 500 0
DWIDTH 7 0
BBX 7 14 0 -3
BITMAP
00
00
F0
30
30
30
3C
36
36
36
3C
00
00
00
ENDCHAR
STARTCHAR CYRILLIC CAPITAL LETTER YERU
ENCODING 1067
SWIDTH 500 0
DWIDTH 7 0
BBX 7 14 0 -3
BITMAP
00
00
66
66
66
66
72
6A
6A
6A
72
00
00
00
ENDCHAR
STARTCHAR CYRILLIC CAPITAL LETTER SOFT SIGN
ENCODING 1068
SWIDTH 500 0
DWIDTH 7 0
BBX 7 14 0 -3
BITMAP
00
00
60
60
60
60
7C
66
66
66
7C
00
00
00
ENDCHAR
STARTCHAR CYRILLIC CAPITAL LETTER E
ENCODING 1069
SWIDTH 500 0
DWIDTH 7 0
BBX 7 14 0 -3
BITMAP
00
00
38
6C
06
06
1E
06
06
6C
38
00
00
00
ENDCHAR
STARTCHAR CYRILLIC CAPITAL LETTER YU
ENCODING 1070
SWIDTH 500 0
DWIDTH 7 0
BBX 7 14 0 -3
BITMAP
00
00
4C
56
56
56
76
56
56
56
4C
00
00
00
ENDCHAR
STARTCHAR CYRILLIC CAPITAL LETTER YA
ENCODING 1071
SWIDTH 500 0
DWIDTH 7 0
BBX 7 14 0 -3
BITMAP
00
00
3E
66
66
66
3E
1E
36
36
66
00
00
00
ENDCHAR
STARTCHAR CYRILLIC SMALL LETTER A
ENCODING 1072
SWIDTH 500 0
DWIDTH 7 0
BBX 7 14 0 -3
BITMAP
00
00
00
00
00
3C
06
3E
66
66
3E
00
00
00
ENDCHAR
STARTCHAR CYRILLIC SMALL LETTER BE
ENCODING 1073
SWIDTH 500 0
DWIDTH 7 0
BBX 7 14 0 -3
BITMAP
00
06
3C
60
60
7C
66
66
66
66
3C
00
00
00
ENDCHAR
STARTCHAR CYRILLIC SMALL LETTER VE
ENCODING 1074
SWIDTH 500 0
DWIDTH 7 0
BBX 7 14 0 -3
BITMAP
00
00
00
00
00
7C
66
7C
66
66
7C
00
00
00
ENDCHAR
STARTCHAR CYRILLIC SMALL LETTER GHE
ENCODING 1075
SWIDTH 500 0
DWIDTH 7 0
BBX 7 14 0 -3
BITMAP
00
00
00
00
00
7E
60
60
60
60
60
00
00
00
ENDCHAR
STARTCHAR CYRILLIC SMALL LETTER DE
ENCODING 1076
SWIDTH 500 0
DWIDTH 7 0
BBX 7 14 0 -3
BITMAP
00
00
00
00
00
7C
6C
6C
6C
6C
FE
C6
C6
00
ENDCHAR
STARTCHAR CYRILLIC SMALL LETTER IE
ENCODING 1077
SWIDTH 500 0
DWIDTH 7 0
BBX 7 14 0 -3
BITMAP
00
00
00
00
00
3C
66
7E
60
66
3C
00
00
00
ENDCHAR
STARTCHAR CYRILLIC SMALL LETTER ZHE
ENCODING 1078
SWIDTH 500 0
DWIDTH 7 0
BBX 7 14 0 -3
BITMAP
00
00
00
00
00
5A
5A
3C
3C
5A
5A
00
00
00
ENDCHAR
STARTCHAR CYRILLIC SMALL LETTER ZE
ENCODING 1079
SWIDTH 500 0
DWIDTH 7 0
BBX 7 14 0 -3
BITMAP
00
00
00
00
00
3C
66
1C
06
66
3C
00
00
00
ENDCHAR
STARTCHAR CYRILLIC SMALL LETTER I
ENCODING 1080
SWIDTH 500 0
DWIDTH 7 0
BBX 7 14 0 -3
BITMAP
00
00
00
00
00
66
66
6E
7E
76
66
00
00
00
ENDCHAR
STARTCHAR CYRILLIC SMALL LETTER SHORT I
ENCODING 1081
SWIDTH 500 0
DWIDTH 7 0
BBX 7 14 0 -3
BITMAP
00
00
34
3C
00
66
66
6E
7E
76
66
00
00
00
ENDCHAR
STARTCHAR CYRILLIC SMALL LETTER KA
ENCODING 1082
SWIDTH 500 0
DWIDTH 7 0
BBX 7 14 0 -3
BITMAP
00
00
00
00
00
66
6C
78
78
6C
66
00
00
00
ENDCHAR
STARTCHAR CYRILLIC SMALL LETTER EL
ENCODING 1083
SWIDTH 500 0
DWIDTH 7 0
BBX 7 14 0 -3
BITMAP
00
00
00
00
00
3E
36
36
36
36
66
00
00
00
ENDCHAR
STARTCHAR CYRILLIC SMALL LETTER EM
ENCODING 1084
SWIDTH 500 0
DWIDTH 7 0
BBX 7 14 0 -3
BITMAP
00
00
00
00
00
66
7E
7E
56
66
66
00
00
00
ENDCHAR
STARTCHAR CYRILLIC SMALL LETTER EN
ENCODING 1085
SWIDTH 500 0
DWIDTH 7 0
BBX 7 14 0 -3
BITMAP
00
00
00
00
00
66
66
7E
66
66
66
00
00
00
ENDCHAR
STARTCHAR CYRILLIC SMALL LETTER O
ENCODING 1086
SWIDTH 500 0
DWIDTH 7 0
BBX 7 14 0 -3
BITMAP
00
00
00
00
00
3C
66
66
66
66
3C
00
00
00
ENDCHAR
STARTCHAR CYRILLIC SMALL LETTER PE
ENCODING 1087
SWIDTH 500 0
DWIDTH 7 0
BBX 7 14 0 -3
BITMAP
00
00
00
00
00
7E
66
66
66
66
66
00
00
00
ENDCHAR
STARTCHAR CYRILLIC SMALL LETTER ER
ENCODING 1088
SWIDTH 500 0
DWIDTH 7 0
BBX 7 14 0 -3
BITMAP
00
00
00
00
00
7C
66
66
66
66
7C
60
60
60
ENDCHAR
STARTCHAR CYRILLIC SMALL LETTER ES
ENCODING 1089
SWIDTH 500 0
DWIDTH 7 0
BBX 7 14 0 -3
BITMAP
00
00
00
00
00
3C
66
60
60
66
3C
00
00
00
ENDCHAR
STARTCHAR CYRILLIC SMALL LETTER TE
ENCODING 1090
SWIDTH 500 0
DWIDTH 7 0
BBX 7 14 0 -3
BITMAP
00
00
00
00
00
7E
18
18
18
18
18
00
00
00
ENDCHAR
STARTCHAR CYRILLIC SMALL LETTER U
ENCODING 1091
SWIDTH 500 0
DWIDTH 7 0
BBX 7 14 0 -3
BITMAP
00
00
00
00
00
66
66
66
3C
3C
3C
18
18
70
ENDCHAR
STARTCHAR CYRILLIC SMALL LETTER EF
ENCODING 1092
SWIDTH 500 0
DWIDTH 7 0
BBX 7 14 0 -3
BITMAP
00
00
18
18
18
7E
5A
5A
5A
5A
7E
18
18
18
ENDCHAR
STARTCHAR CYRILLIC SMALL LETTER HA
ENCODING 1093
SWIDTH 500 0
DWIDTH 7 0
BBX 7 14 0 -3
BITMAP
00
00
00
00
00
66
3C
18
18
3C
66
00
00
00
ENDCHAR
STARTCHAR CYRILLIC SMALL LETTER TSE
ENCODING 1094
SWIDTH 500 0
DWIDTH 7 0
BBX 7 14 0 -3
BITMAP
00
00
00
00
00
6C
6C
6C
6C
6C
7E
06
06
00
ENDCHAR
STARTCHAR CYRILLIC SMALL LETTER CHE
ENCODING 1095
SWIDTH 500 0
DWIDTH 7 0
BBX 7 14 0 -3
BITMAP
00
00
00
00
00
66
66
66
3E
06
06
00
00
00
ENDCHAR
STARTCHAR CYRILLIC SMALL LETTER SHA
ENCODING 1096
SWIDTH 500 0
DWIDTH 7 0
BBX 7 14 0 -3
BITMAP
00
00
00
00
00
56
56
56
56
7E
7E
00
00
00
ENDCHAR
STARTCHAR CYRILLIC SMALL LETTER SHCHA
ENCODING 1097
SWIDTH 500 0
DWIDTH 7 0
BBX 7 14 0 -3
BITMAP
00
00
00
00
00
56
56
56
56
7E
7E
06
06
00
ENDCHAR
STARTCHAR CYRILLIC SMALL LETTER HARD SIGN
ENCODING 1098
SWIDTH 500 0
DWIDTH 7 0
BBX 7 14 0 -3
BITMAP
00
00
00
00
00
F0
30
3C
36
36
3C
00
00
00
ENDCHAR
STARTCHAR CYRILLIC SMALL LETTER YERU
ENCODING 1099
SWIDTH 500 0
DWIDTH 7 0
BBX 7 14 0 -3
BITMAP
00
00
00
00
00
66
66
76
5A
5A
76
00
00
00
ENDCHAR
STARTCHAR CYRILLIC SMALL LETTER SOFT SIGN
ENCODING 1100
SWIDTH 500 0
DWIDTH 7 0
BBX 7 14 0 -3
BITMAP
00
00
00
00
00
60
60
7C
66
66
7C
00
00
00
ENDCHAR
STARTCHAR CYRILLIC SMALL LETTER E
ENCODING 1101
SWIDTH 500 0
DWIDTH 7 0
BBX 7 14 0 -3
BITMAP
00
00
00
00
00
3C
66
1E
06
66
3C
00
00
00
ENDCHAR
STARTCHAR CYRILLIC SMALL LETTER YU
ENCODING 1102
SWIDTH 500 0
DWIDTH 7 0
BBX 7 14 0 -3
BITMAP
00
00
00
00
00
5C
56
76
56
56
5C
00
00
00
ENDCHAR
STARTCHAR CYRILLIC SMALL LETTER YA
ENCODING 1103
SWIDTH 500 0
DWIDTH 7 0
BBX 7 14 0 -3
BITMAP
00
00
00
00
00
3E
66
66
3E
36
66
00
00
00
ENDCHAR
STARTCHAR CYRILLIC SMALL LETTER IE WITH GRAVE
ENCODING 1104
SWIDTH 500 0
DWIDTH 7 0
BBX 7 14 0 -3
BITMAP
00
00
30
18
00
3C
66
7E
60
66
3C
00
00
00
ENDCHAR
STARTCHAR CYRILLIC SMALL LETTER IO
ENCODING 1105
SWIDTH 500 0
DWIDTH 7 0
BBX 7 14 0 -3
BITMAP
00
00
6C
6C
00
3C
66
7E
60
66
3C
00
00
00
ENDCHAR
STARTCHAR CYRILLIC SMALL LETTER DJE
ENCODING 1106
SWIDTH 500 0
DWIDTH 7 0
BBX 7 14 0 -3
BITMAP
00
00
30
30
7C
30
3C
36
36
36
36
06
06
1C
ENDCHAR
STARTCHAR CYRILLIC SMALL LETTER GJE
ENCODING 1107
SWIDTH 500 0
DWIDTH 7 0
BBX 7 14 0 -3
BITMAP
00
00
0C
18
00
7E
60
60
60
60
60
00
00
00
ENDCHAR
STARTCHAR CYRILLIC SMALL LETTER UKRAINIAN IE
ENCODING 1108
SWIDTH 500 0
DWIDTH 7 0
BBX 7 14 0 -3
BITMAP
00
00
00
00
00
3C
62
78
60
66
3C
00
00
00
ENDCHAR
STARTCHAR CYRILLIC SMALL LETTER DZE
ENCODING 1109
SWIDTH 500 0
DWIDTH 7 0
BBX 7 14 0 -3
BITMAP
00
00
00
00
00
3C
60
3C
06
66
3C
00
00
00
ENDCHAR
STARTCHAR CYRILLIC SMALL LETTER BYELORUSSIAN-UKRAINIAN I
ENCODING 1110
SWIDTH 500 0
DWIDTH 7 0
BBX 7 14 0 -3
BITMAP
00
00
18
18
00
78
18
18
18
18
18
00
00
00
ENDCHAR
STARTCHAR CYRILLIC SMALL LETTER YI
ENCODING 1111
SWIDTH 500 0
DWIDTH 7 0
BBX 7 14 0 -3
BITMAP
00
00
6C
6C
00
78
18
18
18
18
18
00
00
00
ENDCHAR
STARTCHAR CYRILLIC SMALL LETTER JE
ENCODING 1112
SWIDTH 500 0
DWIDTH 7 0
BBX 7 14 0 -3
BITMAP
00
00
0C
0C
00
3C
0C
0C
0C
0C
0C
0C
0C
78
ENDCHAR
STARTCHAR CYRILLIC SMALL LETTER LJE
ENCODING 1113
SWIDTH 500 0
DWIDTH 7 0
BBX 7 14 0 -3
BITMAP
00
00
00
00
00
18
38
5C
5A
5A
5C
00
00
00
ENDCHAR
STARTCHAR CYRILLIC SMALL LETTER NJE
ENCODING 1114
SWIDTH 500 0
DWIDTH 7 0
BBX 7 14 0 -3
BITMAP
00
00
00
00
00
58
58
7C
5A
5A
5C
00
00
00
ENDCHAR
STARTCHAR CYRILLIC SMALL LETTER TSHE
ENCODING 1115
SWIDTH 500 0
DWIDTH 7 0
BBX 7 14 0 -3
BITMAP
00
00
30
30
7C
30
3C
36
36
36
36
00
00
00
ENDCHAR
STARTCHAR CYRILLIC SMALL LETTER KJE
ENCODING 1116
SWIDTH 500 0
DWIDTH 7 0
BBX 7 14 0 -3
BITMAP
00
00
0C
18
00
66
6C
78
78
6C
66
00
00
00
ENDCHAR
STARTCHAR CYRILLIC SMALL LETTER I WITH GRAVE
ENCODING 1117
SWIDTH 500 0
DWIDTH 7 0
BBX 7 14 0 -3
BITMAP
00
00
30
18
00
66
66
6E
7E
76
66
00
00
00
ENDCHAR
STARTCHAR CYRILLIC SMALL LETTER SHORT U
ENCODING 1118
SWIDTH 500 0
DWIDTH 7 0
BBX 7 14 0 -3
BITMAP
00
00
34
3C
00
66
66
66
3C
3C
3C
18
18
70
ENDCHAR
STARTCHAR CYRILLIC SMALL LETTER DZHE
ENCODING 1119
SWIDTH 500 0
DWIDTH 7 0
BBX 7 14 0 -3
BITMAP
00
00
00
00
00
66
66
66
66
66
7E
18
18
00
ENDCHAR
STARTCHAR CYRILLIC CAPITAL LETTER GHE WITH UPTURN
ENCODING 1168
SWIDTH 500 0
DWIDTH 7 0
BBX 7 14 0 -3
BITMAP
02
02
7E
60
60
60
60
60
60
60
60
00
00
00
ENDCHAR
STARTCHAR CYRILLIC SMALL LETTER GHE WITH UPTURN
ENCODING 1169
SWIDTH 500 0
DWIDTH 7 0
BBX 7 14 0 -3
BITMAP
00
00
00
02
02
7E
60
60
60
60
60
00
00
00
ENDCHAR
STARTCHAR EN QUAD
ENCODING 8192
SWIDTH 500 0
DWIDTH 7 0
BBX 7 14 0 -3
BITMAP
00
00
00
00
00
00
00
00
00
00
00
00
00
00
ENDCHAR
STARTCHAR EM QUAD
ENCODING 8193
SWIDTH 500 0
DWIDTH 7 0
BBX 7 14 0 -3
BITMAP
00
00
00
00
00
00
00
00
00
00
00
00
00
00
ENDCHAR
STARTCHAR EN SPACE
ENCODING 8194
SWIDTH 500 0
DWIDTH 7 0
BBX 7 14 0 -3
BITMAP
00
00
00
00
00
00
00
00
00
00
00
00
00
00
ENDCHAR
STARTCHAR EM SPACE
ENCODING 8195
SWIDTH 500 0
DWIDTH 7 0
BBX 7 14 0 -3
BITMAP
00
00
00
00
00
00
00
00
00
00
00
00
00
00
ENDCHAR
STARTCHAR THREE-PER-EM SPACE
ENCODING 8196
SWIDTH 500 0
DWIDTH 7 0
BBX 7 14 0 -3
BITMAP
00
00
00
00
00
00
00
00
00
00
00
00
00
00
ENDCHAR
STARTCHAR FOUR-PER-EM SPACE
ENCODING 8197
SWIDTH 500 0
DWIDTH 7 0
BBX 7 14 0 -3
BITMAP
00
00
00
00
00
00
00
00
00
00
00
00
00
00
ENDCHAR
STARTCHAR SIX-PER-EM SPACE
ENCODING 8198
SWIDTH 500 0
DWIDTH 7 0
BBX 7 14 0 -3
BITMAP
00
00
00
00
00
00
00
00
00
00
00
00
00
00
ENDCHAR
STARTCHAR FIGURE SPACE
ENCODING 8199
SWIDTH 500 0
DWIDTH 7 0
BBX 7 14 0 -3
BITMAP
00
00
00
00
00
00
00
00
00
00
00
00
00
00
ENDCHAR
STARTCHAR PUNCTUATION SPACE
ENCODING 8200
SWIDTH 500 0
DWIDTH 7 0
BBX 7 14 0 -3
BITMAP
00
00
00
00
00
00
00
00
00
00
00
00
00
00
ENDCHAR
STARTCHAR THIN SPACE
ENCODING 8201
SWIDTH 500 0
DWIDTH 7 0
BBX 7 14 0 -3
BITMAP
00
00
00
00
00
00
00
00
00
00
00
00
00
00
ENDCHAR
STARTCHAR HAIR SPACE
ENCODING 8202
SWIDTH 500 0
DWIDTH 7 0
BBX 7 14 0 -3
BITMAP
00
00
00
00
00
00
00
00
00
00
00
00
00
00
ENDCHAR
STARTCHAR HYPHEN
ENCODING 8208
SWIDTH 500 0
DWIDTH 7 0
BBX 7 14 0 -3
BITMAP
00
00
00
00
00
00
00
3C
3C
00
00
00
00
00
ENDCHAR
STARTCHAR NON-BREAKING HYPHEN
ENCODING 8209
SWIDTH 500 0
DWIDTH 7 0
BBX 7 14 0 -3
BITMAP
00
00
00
00
00
00
00
3C
3C
00
00
00
00
00
ENDCHAR
STARTCHAR FIGURE DASH
ENCODING 8210
SWIDTH 500 0
DWIDTH 7 0
BBX 7 14 0 -3
BITMAP
00
00
00
00
00
00
7C
7C
00
00
00
00
00
00
ENDCHAR
STARTCHAR EN DASH
ENCODING 8211
SWIDTH 500 0
DWIDTH 7 0
BBX 7 14 0 -3
BITMAP
00
00
00
00
00
00
00
7C
7C
00
00
00
00
00
ENDCHAR
STARTCHAR EM DASH
ENCODING 8212
SWIDTH 500 0
DWIDTH 7 0
BBX 7 14 0 -3
BITMAP
00
00
00
00
00
00
00
FE
FE
00
00
00
00
00
ENDCHAR
STARTCHAR HORIZONTAL BAR
ENCODING 8213
SWIDTH 500 0
DWIDTH 7 0
BBX 7 14 0 -3
BITMAP
00
00
00
00
00
00
00
FE
FE
00
00
00
00
00
ENDCHAR
STARTCHAR DOUBLE VERTICAL LINE
ENCODING 8214
SWIDTH 500 0
DWIDTH 7 0
BBX 7 14 0 -3
BITMAP
00
00
6C
6C
6C
6C
6C
6C
6C
6C
6C
6C
6C
00
ENDCHAR
STARTCHAR DOUBLE LOW LINE
ENCODING 8215
SWIDTH 500 0
DWIDTH 7 0
BBX 7 14 0 -3
BITMAP
00
00
00
00
00
00
00
00
00
00
00
FE
00
FE
ENDCHAR
STARTCHAR LEFT SINGLE QUOTATION MARK
ENCODING 8216
SWIDTH 500 0
DWIDTH 7 0
BBX 7 14 0 -3
BITMAP
0C
18
30
30
00
00
00
00
00
00
00
00
00
00
ENDCHAR
STARTCHAR RIGHT SINGLE QUOTATION MARK
ENCODING 8217
SWIDTH 500 0
DWIDTH 7 0
BBX 7 14 0 -3
BITMAP
00
00
18
18
30
60
00
00
00
00
00
00
00
00
ENDCHAR
STARTCHAR SINGLE LOW-9 QUOTATION MARK
ENCODING 8218
SWIDTH 500 0
DWIDTH 7 0
BBX 7 14 0 -3
BITMAP
00
00
00
00
00
00
00
00
00
18
18
30
60
00
ENDCHAR
STARTCHAR SINGLE HIGH-REVERSED-9 QUOTATION MARK
ENCODING 8219
SWIDTH 500 0
DWIDTH 7 0
BBX 7 14 0 -3
BITMAP
00
00
30
30
18
0C
00
00
00
00
00
00
00
00
ENDCHAR
STARTCHAR LEFT DOUBLE QUOTATION MARK
ENCODING 8220
SWIDTH 500 0
DWIDTH 7 0
BBX 7 14 0 -3
BITMAP
36
6C
D8
D8
00
00
00
00
00
00
00
00
00
00
ENDCHAR
STARTCHAR RIGHT DOUBLE QUOTATION MARK
ENCODING 8221
SWIDTH 500 0
DWIDTH 7 0
BBX 7 14 0 -3
BITMAP
00
00
36
36
6C
D8
00
00
00
00
00
00
00
00
ENDCHAR
STARTCHAR DOUBLE LOW-9 QUOTATION MARK
ENCODING 8222
SWIDTH 500 0
DWIDTH 7 0
BBX 7 14 0 -3
BITMAP
00
00
00
00
00
00
00
00
00
36
36
6C
D8
00
ENDCHAR
STARTCHAR DOUBLE HIGH-REVERSED-9 QUOTATION MARK
ENCODING 8223
SWIDTH 500 0
DWIDTH 7 0
BBX 7 14 0 -3
BITMAP
00
00
D8
D8
6C
36
00
00
00
00
00
00
00
00
ENDCHAR
STARTCHAR DAGGER
ENCODING 8224
SWIDTH 500 0
DWIDTH 7 0
BBX 7 14 0 -3
BITMAP
00
00
18
18
18
7E
18
18
18
18
18
18
18
18
ENDCHAR
STARTCHAR DOUBLE DAGGER
ENCODING 8225
SWIDTH 500 0
DWIDTH 7 0
BBX 7 14 0 -3
BITMAP
00
00
18
18
18
7E
18
18
18
18
7E
18
18
18
ENDCHAR
STARTCHAR BULLET
ENCODING 8226
SWIDTH 500 0
DWIDTH 7 0
BBX 7 14 0 -3
BITMAP
00
00
00
00
00
18
3C
3C
18
00
00
00
00
00
ENDCHAR
STARTCHAR TRIANGULAR BULLET
ENCODING 8227
SWIDTH 500 0
DWIDTH 7 0
BBX 7 14 0 -3
BITMAP
00
00
00
00
00
40
70
7C
70
40
00
00
00
00
ENDCHAR
STARTCHAR ONE DOT LEADER
ENCODING 8228
SWIDTH 500 0
DWIDTH 7 0
BBX 7 14 0 -3
BITMAP
00
00
00
00
00
00
00
00
38
38
38
00
00
00
ENDCHAR
STARTCHAR TWO DOT LEADER
ENCODING 8229
SWIDTH 500 0
DWIDTH 7 0
BBX 7 14 0 -3
BITMAP
00
00
00
00
00
00
00
00
66
66
66
00
00
00
ENDCHAR
STARTCHAR HORIZONTAL ELLIPSIS
ENCODING 8230
SWIDTH 500 0
DWIDTH 7 0
BBX 7 14 0 -3
BITMAP
00
00
00
00
00
00
00
00
D6
D6
D6
00
00
00
ENDCHAR
STARTCHAR HYPHENATION POINT
ENCODING 8231
SWIDTH 500 0
DWIDTH 7 0
BBX 7 14 0 -3
BITMAP
00
00
00
00
00
00
38
38
38
00
00
00
00
00
ENDCHAR
STARTCHAR PER MILLE SIGN
ENCODING 8240
SWIDTH 500 0
DWIDTH 7 0
BBX 7 14 0 -3
BITMAP
00
00
70
50
70
0E
78
00
7E
5A
7E
00
00
00
ENDCHAR
STARTCHAR PER TEN THOUSAND SIGN
ENCODING 8241
SWIDTH 500 0
DWIDTH 7 0
BBX 7 14 0 -3
BITMAP
00
00
70
50
70
0E
78
00
FE
AA
FE
00
00
00
ENDCHAR
STARTCHAR PRIME
ENCODING 8242
SWIDTH 500 0
DWIDTH 7 0
BBX 7 14 0 -3
BITMAP
00
00
0C
18
30
00
00
00
00
00
00
00
00
00
ENDCHAR
STARTCHAR DOUBLE PRIME
ENCODING 8243
SWIDTH 500 0
DWIDTH 7 0
BBX 7 14 0 -3
BITMAP
00
00
36
6C
D8
00
00
00
00
00
00
00
00
00
ENDCHAR
STARTCHAR TRIPLE PRIME
ENCODING 8244
SWIDTH 500 0
DWIDTH 7 0
BBX 7 14 0 -3
BITMAP
00
00
2A
54
A8
00
00
00
00
00
00
00
00
00
ENDCHAR
STARTCHAR REVERSED PRIME
ENCODING 8245
SWIDTH 500 0
DWIDTH 7 0
BBX 7 14 0 -3
BITMAP
00
00
30
18
0C
00
00
00
00
00
00
00
00
00
ENDCHAR
STARTCHAR REVERSED DOUBLE PRIME
ENCODING 8246
SWIDTH 500 0
DWIDTH 7 0
BBX 7 14 0 -3
BITMAP
00
00
D8
6C
36
00
00
00
00
00
00
00
00
00
ENDCHAR
STARTCHAR REVERSED TRIPLE PRIME
ENCODING 8247
SWIDTH 500 0
DWIDTH 7 0
BBX 7 14 0 -3
BITMAP
00
00
A8
54
2A
00
00
00
00
00
00
00
00
00
ENDCHAR
STARTCHAR CARET
ENCODING 8248
SWIDTH 500 0
DWIDTH 7 0
BBX 7 14 0 -3
BITMAP
00
00
00
00
00
00
00
00
00
00
18
3C
66
00
ENDCHAR
STARTCHAR SINGLE LEFT-POINTING ANGLE QUOTATION MARK
ENCODING 8249
SWIDTH 500 0
DWIDTH 7 0
BBX 7 14 0 -3
BITMAP
00
00
00
00
00
18
30
60
30
18
00
00
00
00
ENDCHAR
STARTCHAR SINGLE RIGHT-POINTING ANGLE QUOTATION MARK
ENCODING 8250
SWIDTH 500 0
DWIDTH 7 0
BBX 7 14 0 -3
BITMAP
00
00
00
00
00
30
18
0C
18
30
00
00
00
00
ENDCHAR
STARTCHAR REFERENCE MARK
ENCODING 8251
SWIDTH 500 0
DWIDTH 7 0
BBX 7 14 0 -3
BITMAP
00
00
00
00
10
54
28
D6
28
54
10
00
00
00
ENDCHAR
STARTCHAR DOUBLE EXCLAMATION MARK
ENCODING 8252
SWIDTH 500 0
DWIDTH 7 0
BBX 7 14 0 -3
BITMAP
00
00
66
66
66
66
66
00
66
66
66
00
00
00
ENDCHAR
STARTCHAR INTERROBANG
ENCODING 8253
SWIDTH 500 0
DWIDTH 7 0
BBX 7 14 0 -3
BITMAP
00
00
7C
F6
36
3C
30
00
38
38
38
00
00
00
ENDCHAR
STARTCHAR OVERLINE
ENCODING 8254
SWIDTH 500 0
DWIDTH 7 0
BBX 7 14 0 -3
BITMAP
00
FE
00
00
00
00
00
00
00
00
00
00
00
00
ENDCHAR
STARTCHAR UNDERTIE
ENCODING 8255
SWIDTH 500 0
DWIDTH 7 0
BBX 7 14 0 -3
BITMAP
00
00
00
00
00
00
00
00
00
00
00
C6
6C
38
ENDCHAR
STARTCHAR CHARACTER TIE
ENCODING 8256
SWIDTH 500 0
DWIDTH 7 0
BBX 7 14 0 -3
BITMAP
38
6C
C6
00
00
00
00
00
00
00
00
00
00
00
ENDCHAR
STARTCHAR CARET INSERTION POINT
ENCODING 8257
SWIDTH 500 0
DWIDTH 7 0
BBX 7 14 0 -3
BITMAP
00
00
00
00
06
06
0C
0C
18
18
38
38
6C
6C
ENDCHAR
STARTCHAR ASTERISM
ENCODING 8258
SWIDTH 500 0
DWIDTH 7 0
BBX 7 14 0 -3
BITMAP
00
18
18
7E
18
66
00
24
24
7E
24
5A
00
00
ENDCHAR
STARTCHAR HYPHEN BULLET
ENCODING 8259
SWIDTH 500 0
DWIDTH 7 0
BBX 7 14 0 -3
BITMAP
00
00
00
00
00
00
7C
7C
7C
00
00
00
00
00
ENDCHAR
STARTCHAR FRACTION SLASH
ENCODING 8260
SWIDTH 500 0
DWIDTH 7 0
BBX 7 14 0 -3
BITMAP
00
00
06
06
0C
0C
18
18
30
30
60
60
00
00
ENDCHAR
STARTCHAR LEFT SQUARE BRACKET WITH QUILL
ENCODING 8261
SWIDTH 500 0
DWIDTH 7 0
BBX 7 14 0 -3
BITMAP
00
00
3E
30
30
30
3E
30
30
30
30
3E
00
00
ENDCHAR
STARTCHAR RIGHT SQUARE BRACKET WITH QUILL
ENCODING 8262
SWIDTH 500 0
DWIDTH 7 0
BBX 7 14 0 -3
BITMAP
00
00
7C
0C
0C
0C
7C
0C
0C
0C
0C
7C
00
00
ENDCHAR
STARTCHAR DOUBLE QUESTION MARK
ENCODING 8263
SWIDTH 500 0
DWIDTH 7 0
BBX 7 14 0 -3
BITMAP
00
00
EC
36
36
6C
6C
00
6C
6C
6C
00
00
00
ENDCHAR
STARTCHAR QUESTION EXCLAMATION MARK
ENCODING 8264
SWIDTH 500 0
DWIDTH 7 0
BBX 7 14 0 -3
BITMAP
00
00
E6
36
36
66
66
00
66
66
66
00
00
00
ENDCHAR
STARTCHAR EXCLAMATION QUESTION MARK
ENCODING 8265
SWIDTH 500 0
DWIDTH 7 0
BBX 7 14 0 -3
BITMAP
00
00
7C
66
66
6C
6C
00
6C
6C
6C
00
00
00
ENDCHAR
STARTCHAR TIRONIAN SIGN ET
ENCODING 8266
SWIDTH 500 0
DWIDTH 7 0
BBX 7 14 0 -3
BITMAP
00
00
00
00
00
7E
06
0C
0C
18
18
30
30
00
ENDCHAR
STARTCHAR REVERSED PILCROW SIGN
ENCODING 8267
SWIDTH 500 0
DWIDTH 7 0
BBX 7 14 0 -3
BITMAP
00
00
7C
6E
6E
6E
6C
6C
6C
6C
6C
6C
6C
00
ENDCHAR
STARTCHAR BLACK LEFTWARDS BULLET
ENCODING 8268
SWIDTH 500 0
DWIDTH 7 0
BBX 7 14 0 -3
BITMAP
00
00
00
00
00
36
76
76
36
00
00
00
00
00
ENDCHAR
STARTCHAR BLACK RIGHTWARDS BULLET
ENCODING 8269
SWIDTH 500 0
DWIDTH 7 0
BBX 7 14 0 -3
BITMAP
00
00
00
00
00
6C
6E
6E
6C
00
00
00
00
00
ENDCHAR
STARTCHAR LOW ASTERISK
ENCODING 8270
SWIDTH 500 0
DWIDTH 7 0
BBX 7 14 0 -3
BITMAP
00
00
00
00
00
00
10
38
7C
38
6C
00
00
00
ENDCHAR
STARTCHAR REVERSED SEMICOLON
ENCODING 8271
SWIDTH 500 0
DWIDTH 7 0
BBX 7 14 0 -3
BITMAP
00
00
00
00
38
38
38
00
00
30
30
18
0C
00
ENDCHAR
STARTCHAR CLOSE UP
ENCODING 8272
SWIDTH 500 0
DWIDTH 7 0
BBX 7 14 0 -3
BITMAP
38
6C
C6
00
00
00
00
00
00
00
00
C6
6C
38
ENDCHAR
STARTCHAR TWO ASTERISKS ALIGNED VERTICALLY
ENCODING 8273
SWIDTH 500 0
DWIDTH 7 0
BBX 7 14 0 -3
BITMAP
00
10
38
7C
38
6C
00
10
38
7C
38
6C
00
00
ENDCHAR
STARTCHAR COMMERCIAL MINUS SIGN
ENCODING 8274
SWIDTH 500 0
DWIDTH 7 0
BBX 7 14 0 -3
BITMAP
00
0C
6C
6C
6C
18
18
18
18
36
36
36
30
00
ENDCHAR
STARTCHAR SWUNG DASH
ENCODING 8275
SWIDTH 500 0
DWIDTH 7 0
BBX 7 14 0 -3
BITMAP
00
00
00
00
00
00
00
76
DC
00
00
00
00
00
ENDCHAR
STARTCHAR INVERTED UNDERTIE
ENCODING 8276
SWIDTH 500 0
DWIDTH 7 0
BBX 7 14 0 -3
BITMAP
00
00
00
00
00
00
00
00
00
00
00
38
6C
C6
ENDCHAR
STARTCHAR FLOWER PUNCTUATION MARK
ENCODING 8277
SWIDTH 500 0
DWIDTH 7 0
BBX 7 14 0 -3
BITMAP
00
00
00
00
10
54
38
FE
38
54
10
00
00
00
ENDCHAR
STARTCHAR THREE DOT PUNCTUATION
ENCODING 8278
SWIDTH 500 0
DWIDTH 7 0
BBX 7 14 0 -3
BITMAP
00
00
00
00
00
0C
0C
60
60
0C
0C
00
00
00
ENDCHAR
STARTCHAR QUADRUPLE PRIME
ENCODING 8279
SWIDTH 500 0
DWIDTH 7 0
BBX 7 14 0 -3
BITMAP
00
00
AA
B4
D4
00
00
00
00
00
00
00
00
00
ENDCHAR
STARTCHAR FOUR DOT PUNCTUATION
ENCODING 8280
SWIDTH 500 0
DWIDTH 7 0
BBX 7 14 0 -3
BITMAP
00
00
00
00
00
18
18
66
66
18
18
00
00
00
ENDCHAR
STARTCHAR FIVE DOT PUNCTUATION
ENCODING 8281
SWIDTH 500 0
DWIDTH 7 0
BBX 7 14 0 -3
BITMAP
00
00
00
00
00
66
66
18
18
66
66
00
00
00
ENDCHAR
STARTCHAR TWO DOT PUNCTUATION
ENCODING 8282
SWIDTH 500 0
DWIDTH 7 0
BBX 7 14 0 -3
BITMAP
00
00
00
18
18
00
00
00
00
18
18
00
00
00
ENDCHAR
STARTCHAR FOUR DOT MARK
ENCODING 8283
SWIDTH 500 0
DWIDTH 7 0
BBX 7 14 0 -3
BITMAP
00
00
00
18
18
00
66
66
00
18
18
00
00
00
ENDCHAR
STARTCHAR DOTTED CROSS
ENCODING 8284
SWIDTH 500 0
DWIDTH 7 0
BBX 7 14 0 -3
BITMAP
00
00
00
00
D6
D6
10
FE
10
D6
D6
00
00
00
ENDCHAR
STARTCHAR TRICOLON
ENCODING 8285
SWIDTH 500 0
DWIDTH 7 0
BBX 7 14 0 -3
BITMAP
00
00
00
18
18
00
18
18
00
18
18
00
00
00
ENDCHAR
STARTCHAR VERTICAL FOUR DOTS
ENCODING 8286
SWIDTH 500 0
DWIDTH 7 0
BBX 7 14 0 -3
BITMAP
00
18
18
00
18
18
00
18
18
00
18
18
00
00
ENDCHAR
STARTCHAR MEDIUM MATHEMATICAL SPACE
ENCODING 8287
SWIDTH 500 0
DWIDTH 7 0
BBX 7 14 0 -3
BITMAP
00
00
00
00
00
00
00
00
00
00
00
00
00
00
ENDCHAR
STARTCHAR SUPERSCRIPT ZERO
ENCODING 8304
SWIDTH 500 0
DWIDTH 7 0
BBX 7 14 0 -3
BITMAP
38
64
64
64
64
38
00
00
00
00
00
00
00
00
ENDCHAR
STARTCHAR SUPERSCRIPT LATIN SMALL LETTER I
ENCODING 8305
SWIDTH 500 0
DWIDTH 7 0
BBX 7 14 0 -3
BITMAP
18
00
38
18
18
18
00
00
00
00
00
00
00
00
ENDCHAR
STARTCHAR SUPERSCRIPT FOUR
ENCODING 8308
SWIDTH 500 0
DWIDTH 7 0
BBX 7 14 0 -3
BITMAP
18
38
38
58
7C
18
00
00
00
00
00
00
00
00
ENDCHAR
STARTCHAR SUPERSCRIPT FIVE
ENCODING 8309
SWIDTH 500 0
DWIDTH 7 0
BBX 7 14 0 -3
BITMAP
7C
60
78
0C
4C
38
00
00
00
00
00
00
00
00
ENDCHAR
STARTCHAR SUPERSCRIPT SIX
ENCODING 8310
SWIDTH 500 0
DWIDTH 7 0
BBX 7 14 0 -3
BITMAP
38
60
78
64
64
38
00
00
00
00
00
00
00
00
ENDCHAR
STARTCHAR SUPERSCRIPT SEVEN
ENCODING 8311
SWIDTH 500 0
DWIDTH 7 0
BBX 7 14 0 -3
BITMAP
7C
0C
18
18
30
30
00
00
00
00
00
00
00
00
ENDCHAR
STARTCHAR SUPERSCRIPT EIGHT
ENCODING 8312
SWIDTH 500 0
DWIDTH 7 0
BBX 7 14 0 -3
BITMAP
38
64
64
38
4C
4C
38
00
00
00
00
00
00
00
ENDCHAR
STARTCHAR SUPERSCRIPT NINE
ENCODING 8313
SWIDTH 500 0
DWIDTH 7 0
BBX 7 14 0 -3
BITMAP
38
4C
4C
3C
0C
38
00
00
00
00
00
00
00
00
ENDCHAR
STARTCHAR SUPERSCRIPT PLUS SIGN
ENCODING 8314
SWIDTH 500 0
DWIDTH 7 0
BBX 7 14 0 -3
BITMAP
00
18
18
7E
18
18
00
00
00
00
00
00
00
00
ENDCHAR
STARTCHAR SUPERSCRIPT MINUS
ENCODING 8315
SWIDTH 500 0
DWIDTH 7 0
BBX 7 14 0 -3
BITMAP
00
00
00
7E
00
00
00
00
00
00
00
00
00
00
ENDCHAR
STARTCHAR SUPERSCRIPT EQUALS SIGN
ENCODING 8316
SWIDTH 500 0
DWIDTH 7 0
BBX 7 14 0 -3
BITMAP
00
00
7E
00
7E
00
00
00
00
00
00
00
00
00
ENDCHAR
STARTCHAR SUPERSCRIPT LEFT PARENTHESIS
ENCODING 8317
SWIDTH 500 0
DWIDTH 7 0
BBX 7 14 0 -3
BITMAP
18
30
30
30
30
18
00
00
00
00
00
00
00
00
ENDCHAR
STARTCHAR SUPERSCRIPT RIGHT PARENTHESIS
ENCODING 8318
SWIDTH 500 0
DWIDTH 7 0
BBX 7 14 0 -3
BITMAP
30
18
18
18
18
30
00
00
00
00
00
00
00
00
ENDCHAR
STARTCHAR SUPERSCRIPT LATIN SMALL LETTER N
ENCODING 8319
SWIDTH 500 0
DWIDTH 7 0
BBX 7 14 0 -3
BITMAP
00
78
64
64
64
64
00
00
00
00
00
00
00
00
ENDCHAR
STARTCHAR SUBSCRIPT ZERO
ENCODING 8320
SWIDTH 500 0
DWIDTH 7 0
BBX 7 14 0 -3
BITMAP
00
00
00
00
00
00
00
00
38
64
64
64
64
38
ENDCHAR
STARTCHAR SUBSCRIPT ONE
ENCODING 8321
SWIDTH 500 0
DWIDTH 7 0
BBX 7 14 0 -3
BITMAP
00
00
00
00
00
00
00
00
18
38
18
18
18
3C
ENDCHAR
STARTCHAR SUBSCRIPT TWO
ENCODING 8322
SWIDTH 500 0
DWIDTH 7 0
BBX 7 14 0 -3
BITMAP
00
00
00
00
00
00
00
00
38
4C
0C
18
30
7C
ENDCHAR
STARTCHAR SUBSCRIPT THREE
ENCODING 8323
SWIDTH 500 0
DWIDTH 7 0
BBX 7 14 0 -3
BITMAP
00
00
00
00
00
00
00
00
7C
18
38
0C
4C
38
ENDCHAR
STARTCHAR SUBSCRIPT FOUR
ENCODING 8324
SWIDTH 500 0
DWIDTH 7 0
BBX 7 14 0 -3
BITMAP
00
00
00
00
00
00
00
00
18
38
38
58
7C
18
ENDCHAR
STARTCHAR SUBSCRIPT FIVE
ENCODING 8325
SWIDTH 500 0
DWIDTH 7 0
BBX 7 14 0 -3
BITMAP
00
00
00
00
00
00
00
00
7C
60
78
0C
4C
38
ENDCHAR
STARTCHAR SUBSCRIPT SIX
ENCODING 8326
SWIDTH 500 0
DWIDTH 7 0
BBX 7 14 0 -3
BITMAP
00
00
00
00
00
00
00
00
38
60
78
64
64
38
ENDCHAR
STARTCHAR SUBSCRIPT SEVEN
ENCODING 8327
SWIDTH 500 0
DWIDTH 7 0
BBX 7 14 0 -3
BITMAP
00
00
00
00
00
00
00
00
7C
0C
18
18
30
30
ENDCHAR
STARTCHAR SUBSCRIPT EIGHT
ENCODING 8328
SWIDTH 500 0
DWIDTH 7 0
BBX 7 14 0 -3
BITMAP
00
00
00
00
00
00
00
38
64
64
38
4C
4C
38
ENDCHAR
STARTCHAR SUBSCRIPT NINE
ENCODING 8329
SWIDTH 500 0
DWIDTH 7 0
BBX 7 14 0 -3
BITMAP
00
00
00
00
00
00
00
00
38
4C
4C
3C
0C
38
ENDCHAR
STARTCHAR SUBSCRIPT PLUS SIGN
ENCODING 8330
SWIDTH 500 0
DWIDTH 7 0
BBX 7 14 0 -3
BITMAP
00
00
00
00
00
00
00
00
00
18
18
7E
18
18
ENDCHAR
STARTCHAR SUBSCRIPT MINUS
ENCODING 8331
SWIDTH 500 0
DWIDTH 7 0
BBX 7 14 0 -3
BITMAP
00
00
00
00
00
00
00
00
00
00
00
7E
00
00
ENDCHAR
STARTCHAR SUBSCRIPT EQUALS SIGN
ENCODING 8332
SWIDTH 500 0
DWIDTH 7 0
BBX 7 14 0 -3
BITMAP
00
00
00
00
00
00
00
00
00
00
7E
00
7E
00
ENDCHAR
STARTCHAR SUBSCRIPT LEFT PARENTHESIS
ENCODING 8333
SWIDTH 500 0
DWIDTH 7 0
BBX 7 14 0 -3
BITMAP
00
00
00
00
00
00
00
00
18
30
30
30
30
18
ENDCHAR
STARTCHAR SUBSCRIPT RIGHT PARENTHESIS
ENCODING 8334
SWIDTH 500 0
DWIDTH 7 0
BBX 7 14 0 -3
BITMAP
00
00
00
00
00
00
00
00
30
18
18
18
18
30
ENDCHAR
STARTCHAR LATIN SUBSCRIPT SMALL LETTER A
ENCODING 8336
SWIDTH 500 0
DWIDTH 7 0
BBX 7 14 0 -3
BITMAP
00
00
00
00
00
00
00
00
00
38
0C
3C
4C
3C
ENDCHAR
STARTCHAR LATIN SUBSCRIPT SMALL LETTER E
ENCODING 8337
SWIDTH 500 0
DWIDTH 7 0
BBX 7 14 0 -3
BITMAP
00
00
00
00
00
00
00
00
00
38
64
7C
60
38
ENDCHAR
STARTCHAR LATIN SUBSCRIPT SMALL LETTER O
ENCODING 8338
SWIDTH 500 0
DWIDTH 7 0
BBX 7 14 0 -3
BITMAP
00
00
00
00
00
00
00
00
00
38
64
64
64
38
ENDCHAR
STARTCHAR LATIN SUBSCRIPT SMALL LETTER X
ENCODING 8339
SWIDTH 500 0
DWIDTH 7 0
BBX 7 14 0 -3
BITMAP
00
00
00
00
00
00
00
00
00
4C
4C
38
64
64
ENDCHAR
STARTCHAR LATIN SUBSCRIPT SMALL LETTER SCHWA
ENCODING 8340
SWIDTH 500 0
DWIDTH 7 0
BBX 7 14 0 -3
BITMAP
00
00
00
00
00
00
00
00
00
38
0C
7C
4C
38
ENDCHAR
STARTCHAR LATIN SUBSCRIPT SMALL LETTER H
ENCODING 8341
SWIDTH 500 0
DWIDTH 7 0
BBX 7 14 0 -3
BITMAP
00
00
00
00
00
00
00
00
60
78
64
64
64
64
ENDCHAR
STARTCHAR LATIN SUBSCRIPT SMALL LETTER K
ENCODING 8342
SWIDTH 500 0
DWIDTH 7 0
BBX 7 14 0 -3
BITMAP
00
00
00
00
00
00
00
00
60
64
68
70
68
64
ENDCHAR
STARTCHAR LATIN SUBSCRIPT SMALL LETTER L
ENCODING 8343
SWIDTH 500 0
DWIDTH 7 0
BBX 7 14 0 -3
BITMAP
00
00
00
00
00
00
00
00
70
30
30
30
30
1C
ENDCHAR
STARTCHAR LATIN SUBSCRIPT SMALL LETTER M
ENCODING 8344
SWIDTH 500 0
DWIDTH 7 0
BBX 7 14 0 -3
BITMAP
00
00
00
00
00
00
00
00
00
78
7C
54
54
54
ENDCHAR
STARTCHAR LATIN SUBSCRIPT SMALL LETTER N
ENCODING 8345
SWIDTH 500 0
DWIDTH 7 0
BBX 7 14 0 -3
BITMAP
00
00
00
00
00
00
00
00
00
78
64
64
64
64
ENDCHAR
STARTCHAR LATIN SUBSCRIPT SMALL LETTER P
ENCODING 8346
SWIDTH 500 0
DWIDTH 7 0
BBX 7 14 0 -3
BITMAP
00
00
00
00
00
00
00
00
00
78
64
64
78
60
ENDCHAR
STARTCHAR LATIN SUBSCRIPT SMALL LETTER S
ENCODING 8347
SWIDTH 500 0
DWIDTH 7 0
BBX 7 14 0 -3
BITMAP
00
00
00
00
00
00
00
00
00
38
60
38
0C
78
ENDCHAR
STARTCHAR LATIN SUBSCRIPT SMALL LETTER T
ENCODING 8348
SWIDTH 500 0
DWIDTH 7 0
BBX 7 14 0 -3
BITMAP
00
00
00
00
00
00
00
00
30
7C
30
30
30
1C
ENDCHAR
STARTCHAR PESETA SIGN
ENCODING 8359
SWIDTH 500 0
DWIDTH 7 0
BBX 7 14 0 -3
BITMAP
00
00
7C
44
7C
50
50
7E
54
5A
5E
00
00
00
ENDCHAR
STARTCHAR EURO SIGN
ENCODING 8364
SWIDTH 500 0
DWIDTH 7 0
BBX 7 14 0 -3
BITMAP
00
00
38
64
60
F8
60
F0
60
64
38
00
00
00
ENDCHAR
STARTCHAR TUGRIK SIGN
ENCODING 8366
SWIDTH 500 0
DWIDTH 7 0
BBX 7 14 0 -3
BITMAP
00
00
7E
18
18
1C
38
1C
38
18
18
00
00
00
ENDCHAR
STARTCHAR DRACHMA SIGN
ENCODING 8367
SWIDTH 500 0
DWIDTH 7 0
BBX 7 14 0 -3
BITMAP
00
00
60
70
50
54
5E
5A
5A
7E
6C
08
18
10
ENDCHAR
STARTCHAR HRYVNIA SIGN
ENCODING 8372
SWIDTH 500 0
DWIDTH 7 0
BBX 7 14 0 -3
BITMAP
00
00
38
4C
0C
7C
30
7C
60
64
38
00
00
00
ENDCHAR
STARTCHAR RUBLE SIGN
ENCODING 8381
SWIDTH 500 0
DWIDTH 7 0
BBX 7 14 0 -3
BITMAP
00
00
78
6C
6C
6C
F8
60
F8
60
60
00
00
00
ENDCHAR
STARTCHAR NUMERO SIGN
ENCODING 8470
SWIDTH 500 0
DWIDTH 7 0
BBX 7 14 0 -3
BITMAP
00
00
56
56
76
70
76
70
50
50
50
00
00
00
ENDCHAR
STARTCHAR TRADE MARK SIGN
ENCODING 8482
SWIDTH 500 0
DWIDTH 7 0
BBX 7 14 0 -3
BITMAP
EA
EE
4E
4E
4A
4A
00
00
00
00
00
00
00
00
ENDCHAR
STARTCHAR OHM SIGN
ENCODING 8486
SWIDTH 500 0
DWIDTH 7 0
BBX 7 14 0 -3
BITMAP
00
00
3C
66
66
66
66
66
34
34
76
00
00
00
ENDCHAR
STARTCHAR LEFTWARDS ARROW
ENCODING 8592
SWIDTH 500 0
DWIDTH 7 0
BBX 7 14 0 -3
BITMAP
00
00
00
00
30
60
FE
FE
60
30
00
00
00
00
ENDCHAR
STARTCHAR UPWARDS ARROW
ENCODING 8593
SWIDTH 500 0
DWIDTH 7 0
BBX 7 14 0 -3
BITMAP
00
00
00
18
3C
7E
5A
18
18
18
18
18
18
18
ENDCHAR
STARTCHAR RIGHTWARDS ARROW
ENCODING 8594
SWIDTH 500 0
DWIDTH 7 0
BBX 7 14 0 -3
BITMAP
00
00
00
00
18
0C
FE
FE
0C
18
00
00
00
00
ENDCHAR
STARTCHAR DOWNWARDS ARROW
ENCODING 8595
SWIDTH 500 0
DWIDTH 7 0
BBX 7 14 0 -3
BITMAP
18
18
18
18
18
18
18
5A
7E
3C
18
00
00
00
ENDCHAR
STARTCHAR LEFT RIGHT ARROW
ENCODING 8596
SWIDTH 500 0
DWIDTH 7 0
BBX 7 14 0 -3
BITMAP
00
00
00
00
28
6C
FE
FE
6C
28
00
00
00
00
ENDCHAR
STARTCHAR UP DOWN ARROW
ENCODING 8597
SWIDTH 500 0
DWIDTH 7 0
BBX 7 14 0 -3
BITMAP
00
00
00
18
3C
7E
18
18
7E
3C
18
00
00
00
ENDCHAR
STARTCHAR NORTH WEST ARROW
ENCODING 8598
SWIDTH 500 0
DWIDTH 7 0
BBX 7 14 0 -3
BITMAP
00
00
00
00
7C
7E
78
7C
6E
24
00
00
00
00
ENDCHAR
STARTCHAR NORTH EAST ARROW
ENCODING 8599
SWIDTH 500 0
DWIDTH 7 0
BBX 7 14 0 -3
BITMAP
00
00
00
00
7C
FC
3C
7C
EC
48
00
00
00
00
ENDCHAR
STARTCHAR SOUTH EAST ARROW
ENCODING 8600
SWIDTH 500 0
DWIDTH 7 0
BBX 7 14 0 -3
BITMAP
00
00
00
00
48
EC
7C
3C
FC
7C
00
00
00
00
ENDCHAR
STARTCHAR SOUTH WEST ARROW
ENCODING 8601
SWIDTH 500 0
DWIDTH 7 0
BBX 7 14 0 -3
BITMAP
00
00
00
00
24
6E
7C
78
7E
7C
00
00
00
00
ENDCHAR
STARTCHAR LEFTWARDS ARROW WITH STROKE
ENCODING 8602
SWIDTH 500 0
DWIDTH 7 0
BBX 7 14 0 -3
BITMAP
00
00
00
00
24
64
FE
FE
68
28
00
00
00
00
ENDCHAR
STARTCHAR RIGHTWARDS ARROW WITH STROKE
ENCODING 8603
SWIDTH 500 0
DWIDTH 7 0
BBX 7 14 0 -3
BITMAP
00
00
00
00
28
2C
FE
FE
4C
48
00
00
00
00
ENDCHAR
STARTCHAR LEFTWARDS WAVE ARROW
ENCODING 8604
SWIDTH 500 0
DWIDTH 7 0
BBX 7 14 0 -3
BITMAP
00
00
00
00
30
64
EE
FA
70
30
00
00
00
00
ENDCHAR
STARTCHAR RIGHTWARDS WAVE ARROW
ENCODING 8605
SWIDTH 500 0
DWIDTH 7 0
BBX 7 14 0 -3
BITMAP
00
00
00
00
18
4C
EE
BE
1C
18
00
00
00
00
ENDCHAR
STARTCHAR LEFTWARDS TWO HEADED ARROW
ENCODING 8606
SWIDTH 500 0
DWIDTH 7 0
BBX 7 14 0 -3
BITMAP
00
00
00
00
24
6C
FE
FE
6C
24
00
00
00
00
ENDCHAR
STARTCHAR UPWARDS TWO HEADED ARROW
ENCODING 8607
SWIDTH 500 0
DWIDTH 7 0
BBX 7 14 0 -3
BITMAP
00
00
00
18
3C
7E
5A
18
3C
7E
5A
18
18
18
ENDCHAR
STARTCHAR RIGHTWARDS TWO HEADED ARROW
ENCODING 8608
SWIDTH 500 0
DWIDTH 7 0
BBX 7 14 0 -3
BITMAP
00
00
00
00
48
6C
FE
FE
6C
48
00
00
00
00
ENDCHAR
STARTCHAR DOWNWARDS TWO HEADED ARROW
ENCODING 8609
SWIDTH 500 0
DWIDTH 7 0
BBX 7 14 0 -3
BITMAP
18
18
18
5A
7E
3C
18
5A
7E
3C
18
00
00
00
ENDCHAR
STARTCHAR LEFTWARDS ARROW WITH TAIL
ENCODING 8610
SWIDTH 500 0
DWIDTH 7 0
BBX 7 14 0 -3
BITMAP
00
00
00
00
36
6C
F8
F8
6C
36
00
00
00
00
ENDCHAR
STARTCHAR RIGHTWARDS ARROW WITH TAIL
ENCODING 8611
SWIDTH 500 0
DWIDTH 7 0
BBX 7 14 0 -3
BITMAP
00
00
00
00
D8
6C
3E
3E
6C
D8
00
00
00
00
ENDCHAR
STARTCHAR LEFTWARDS ARROW FROM BAR
ENCODING 8612
SWIDTH 500 0
DWIDTH 7 0
BBX 7 14 0 -3
BITMAP
00
00
00
00
2C
6C
FC
FC
6C
2C
00
00
00
00
ENDCHAR
STARTCHAR UPWARDS ARROW FROM BAR
ENCODING 8613
SWIDTH 500 0
DWIDTH 7 0
BBX 7 14 0 -3
BITMAP
00
00
00
18
3C
7E
5A
18
18
7E
7E
00
00
00
ENDCHAR
STARTCHAR RIGHTWARDS ARROW FROM BAR
ENCODING 8614
SWIDTH 500 0
DWIDTH 7 0
BBX 7 14 0 -3
BITMAP
00
00
00
00
68
6C
7E
7E
6C
68
00
00
00
00
ENDCHAR
STARTCHAR DOWNWARDS ARROW FROM BAR
ENCODING 8615
SWIDTH 500 0
DWIDTH 7 0
BBX 7 14 0 -3
BITMAP
00
00
00
7E
7E
18
18
5A
7E
3C
18
00
00
00
ENDCHAR
STARTCHAR UP DOWN ARROW WITH BASE
ENCODING 8616
SWIDTH 500 0
DWIDTH 7 0
BBX 7 14 0 -3
BITMAP
00
00
00
18
3C
7E
18
7E
3C
18
7E
00
00
00
ENDCHAR
STARTCHAR LEFTWARDS ARROW WITH HOOK
ENCODING 8617
SWIDTH 500 0
DWIDTH 7 0
BBX 7 14 0 -3
BITMAP
00
00
00
0C
2E
66
FE
FC
60
20
00
00
00
00
ENDCHAR
STARTCHAR RIGHTWARDS ARROW WITH HOOK
ENCODING 8618
SWIDTH 500 0
DWIDTH 7 0
BBX 7 14 0 -3
BITMAP
00
00
00
60
E8
CC
FE
7E
0C
08
00
00
00
00
ENDCHAR
STARTCHAR LEFTWARDS ARROW WITH LOOP
ENCODING 8619
SWIDTH 500 0
DWIDTH 7 0
BBX 7 14 0 -3
BITMAP
00
00
00
04
2E
6A
FE
FC
68
28
00
00
00
00
ENDCHAR
STARTCHAR RIGHTWARDS ARROW WITH LOOP
ENCODING 8620
SWIDTH 500 0
DWIDTH 7 0
BBX 7 14 0 -3
BITMAP
00
00
00
40
E8
AC
FE
7E
2C
28
00
00
00
00
ENDCHAR
STARTCHAR LEFT RIGHT WAVE ARROW
ENCODING 8621
SWIDTH 500 0
DWIDTH 7 0
BBX 7 14 0 -3
BITMAP
00
00
00
00
44
54
FE
EE
44
44
00
00
00
00
ENDCHAR
STARTCHAR LEFT RIGHT ARROW WITH STROKE
ENCODING 8622
SWIDTH 500 0
DWIDTH 7 0
BBX 7 14 0 -3
BITMAP
00
00
00
00
54
54
FE
FE
54
54
00
00
00
00
ENDCHAR
STARTCHAR DOWNWARDS ZIGZAG ARROW
ENCODING 8623
SWIDTH 500 0
DWIDTH 7 0
BBX 7 14 0 -3
BITMAP
00
00
18
38
70
7E
0E
5C
78
70
78
00
00
00
ENDCHAR
STARTCHAR UPWARDS ARROW WITH TIP LEFTWARDS
ENCODING 8624
SWIDTH 500 0
DWIDTH 7 0
BBX 7 14 0 -3
BITMAP
00
00
20
60
FC
FC
6C
2C
0C
0C
0C
00
00
00
ENDCHAR
STARTCHAR UPWARDS ARROW WITH TIP RIGHTWARDS
ENCODING 8625
SWIDTH 500 0
DWIDTH 7 0
BBX 7 14 0 -3
BITMAP
00
00
08
0C
7E
7E
6C
68
60
60
60
00
00
00
ENDCHAR
STARTCHAR DOWNWARDS ARROW WITH TIP LEFTWARDS
ENCODING 8626
SWIDTH 500 0
DWIDTH 7 0
BBX 7 14 0 -3
BITMAP
00
00
0C
0C
0C
2C
6C
FC
FC
60
20
00
00
00
ENDCHAR
STARTCHAR DOWNWARDS ARROW WITH TIP RIGHTWARDS
ENCODING 8627
SWIDTH 500 0
DWIDTH 7 0
BBX 7 14 0 -3
BITMAP
00
00
60
60
60
68
6C
7E
7E
0C
08
00
00
00
ENDCHAR
STARTCHAR RIGHTWARDS ARROW WITH CORNER DOWNWARDS
ENCODING 8628
SWIDTH 500 0
DWIDTH 7 0
BBX 7 14 0 -3
BITMAP
00
00
F8
F8
18
18
18
5A
7E
3C
18
00
00
00
ENDCHAR
STARTCHAR DOWNWARDS ARROW WITH CORNER LEFTWARDS
ENCODING 8629
SWIDTH 500 0
DWIDTH 7 0
BBX 7 14 0 -3
BITMAP
00
00
00
06
36
66
FE
FE
60
30
00
00
00
00
ENDCHAR
STARTCHAR ANTICLOCKWISE TOP SEMICIRCLE ARROW
ENCODING 8630
SWIDTH 500 0
DWIDTH 7 0
BBX 7 14 0 -3
BITMAP
00
00
00
00
3C
7E
66
F6
60
00
00
00
00
00
ENDCHAR
STARTCHAR CLOCKWISE TOP SEMICIRCLE ARROW
ENCODING 8631
SWIDTH 500 0
DWIDTH 7 0
BBX 7 14 0 -3
BITMAP
00
00
00
00
78
FC
CC
DE
0C
00
00
00
00
00
ENDCHAR
STARTCHAR NORTH WEST ARROW TO LONG BAR
ENCODING 8632
SWIDTH 500 0
DWIDTH 7 0
BBX 7 14 0 -3
BITMAP
00
7E
7E
00
7C
7E
78
7C
6E
24
00
00
00
00
ENDCHAR
STARTCHAR LEFTWARDS ARROW TO BAR OVER RIGHTWARDS ARROW TO BAR
ENCODING 8633
SWIDTH 500 0
DWIDTH 7 0
BBX 7 14 0 -3
BITMAP
00
48
58
7E
7E
58
48
12
1A
7E
7E
1A
12
00
ENDCHAR
STARTCHAR ANTICLOCKWISE OPEN CIRCLE ARROW
ENCODING 8634
SWIDTH 500 0
DWIDTH 7 0
BBX 7 14 0 -3
BITMAP
00
00
00
1E
1C
DE
D6
C6
C6
FE
7C
00
00
00
ENDCHAR
STARTCHAR CLOCKWISE OPEN CIRCLE ARROW
ENCODING 8635
SWIDTH 500 0
DWIDTH 7 0
BBX 7 14 0 -3
BITMAP
00
00
00
F0
70
F6
D6
C6
C6
FE
7C
00
00
00
ENDCHAR
STARTCHAR LEFTWARDS HARPOON WITH BARB UPWARDS
ENCODING 8636
SWIDTH 500 0
DWIDTH 7 0
BBX 7 14 0 -3
BITMAP
00
00
00
00
30
60
FE
FE
00
00
00
00
00
00
ENDCHAR
STARTCHAR LEFTWARDS HARPOON WITH BARB DOWNWARDS
ENCODING 8637
SWIDTH 500 0
DWIDTH 7 0
BBX 7 14 0 -3
BITMAP
00
00
00
00
00
00
FE
FE
60
30
00
00
00
00
ENDCHAR
STARTCHAR UPWARDS HARPOON WITH BARB RIGHTWARDS
ENCODING 8638
SWIDTH 500 0
DWIDTH 7 0
BBX 7 14 0 -3
BITMAP
00
00
00
18
1C
1E
1A
18
18
18
18
18
18
18
ENDCHAR
STARTCHAR UPWARDS HARPOON WITH BARB LEFTWARDS
ENCODING 8639
SWIDTH 500 0
DWIDTH 7 0
BBX 7 14 0 -3
BITMAP
00
00
00
18
38
78
58
18
18
18
18
18
18
18
ENDCHAR
STARTCHAR RIGHTWARDS HARPOON WITH BARB UPWARDS
ENCODING 8640
SWIDTH 500 0
DWIDTH 7 0
BBX 7 14 0 -3
BITMAP
00
00
00
00
18
0C
FE
FE
00
00
00
00
00
00
ENDCHAR
STARTCHAR RIGHTWARDS HARPOON WITH BARB DOWNWARDS
ENCODING 8641
SWIDTH 500 0
DWIDTH 7 0
BBX 7 14 0 -3
BITMAP
00
00
00
00
00
00
FE
FE
0C
18
00
00
00
00
ENDCHAR
STARTCHAR DOWNWARDS HARPOON WITH BARB RIGHTWARDS
ENCODING 8642
SWIDTH 500 0
DWIDTH 7 0
BBX 7 14 0 -3
BITMAP
18
18
18
18
18
18
18
1A
1E
1C
18
00
00
00
ENDCHAR
STARTCHAR DOWNWARDS HARPOON WITH BARB LEFTWARDS
ENCODING 8643
SWIDTH 500 0
DWIDTH 7 0
BBX 7 14 0 -3
BITMAP
18
18
18
18
18
18
18
58
78
38
18
00
00
00
ENDCHAR
STARTCHAR RIGHTWARDS ARROW OVER LEFTWARDS ARROW
ENCODING 8644
SWIDTH 500 0
DWIDTH 7 0
BBX 7 14 0 -3
BITMAP
00
00
18
0C
FE
FE
0C
38
60
FE
FE
60
30
00
ENDCHAR
STARTCHAR UPWARDS ARROW LEFTWARDS OF DOWNWARDS ARROW
ENCODING 8645
SWIDTH 500 0
DWIDTH 7 0
BBX 7 14 0 -3
BITMAP
00
00
00
6C
FC
FC
6C
6C
7E
7E
6C
00
00
00
ENDCHAR
STARTCHAR LEFTWARDS ARROW OVER RIGHTWARDS ARROW
ENCODING 8646
SWIDTH 500 0
DWIDTH 7 0
BBX 7 14 0 -3
BITMAP
00
00
30
60
FE
FE
60
38
0C
FE
FE
0C
18
00
ENDCHAR
STARTCHAR LEFTWARDS PAIRED ARROWS
ENCODING 8647
SWIDTH 500 0
DWIDTH 7 0
BBX 7 14 0 -3
BITMAP
00
00
30
60
FE
FE
60
30
60
FE
FE
60
30
00
ENDCHAR
STARTCHAR UPWARDS PAIRED ARROWS
ENCODING 8648
SWIDTH 500 0
DWIDTH 7 0
BBX 7 14 0 -3
BITMAP
00
00
00
6C
FE
FE
6C
6C
6C
6C
6C
00
00
00
ENDCHAR
STARTCHAR RIGHTWARDS PAIRED ARROWS
ENCODING 8649
SWIDTH 500 0
DWIDTH 7 0
BBX 7 14 0 -3
BITMAP
00
00
18
0C
FE
FE
0C
18
0C
FE
FE
0C
18
00
ENDCHAR
STARTCHAR DOWNWARDS PAIRED ARROWS
ENCODING 8650
SWIDTH 500 0
DWIDTH 7 0
BBX 7 14 0 -3
BITMAP
00
00
00
6C
6C
6C
6C
6C
FE
FE
6C
00
00
00
ENDCHAR
STARTCHAR LEFTWARDS HARPOON OVER RIGHTWARDS HARPOON
ENCODING 8651
SWIDTH 500 0
DWIDTH 7 0
BBX 7 14 0 -3
BITMAP
00
00
30
60
FE
FE
00
00
FE
FE
0C
18
00
00
ENDCHAR
STARTCHAR RIGHTWARDS HARPOON OVER LEFTWARDS HARPOON
ENCODING 8652
SWIDTH 500 0
DWIDTH 7 0
BBX 7 14 0 -3
BITMAP
00
00
18
0C
FE
FE
00
00
FE
FE
60
30
00
00
ENDCHAR
STARTCHAR LEFTWARDS DOUBLE ARROW WITH STROKE
ENCODING 8653
SWIDTH 500 0
DWIDTH 7 0
BBX 7 14 0 -3
BITMAP
00
00
00
00
24
7E
7E
C4
7E
7E
28
00
00
00
ENDCHAR
STARTCHAR LEFT RIGHT DOUBLE ARROW WITH STROKE
ENCODING 8654
SWIDTH 500 0
DWIDTH 7 0
BBX 7 14 0 -3
BITMAP
00
00
00
00
54
7C
FE
D6
FE
7C
54
00
00
00
ENDCHAR
STARTCHAR RIGHTWARDS DOUBLE ARROW WITH STROKE
ENCODING 8655
SWIDTH 500 0
DWIDTH 7 0
BBX 7 14 0 -3
BITMAP
00
00
00
00
48
FC
FC
46
FC
FC
28
00
00
00
ENDCHAR
STARTCHAR LEFTWARDS DOUBLE ARROW
ENCODING 8656
SWIDTH 500 0
DWIDTH 7 0
BBX 7 14 0 -3
BITMAP
00
00
00
00
18
3E
7E
C0
7E
3E
18
00
00
00
ENDCHAR
STARTCHAR UPWARDS DOUBLE ARROW
ENCODING 8657
SWIDTH 500 0
DWIDTH 7 0
BBX 7 14 0 -3
BITMAP
00
00
00
10
38
6C
EE
EE
6C
6C
6C
6C
6C
6C
ENDCHAR
STARTCHAR RIGHTWARDS DOUBLE ARROW
ENCODING 8658
SWIDTH 500 0
DWIDTH 7 0
BBX 7 14 0 -3
BITMAP
00
00
00
00
30
F8
FC
06
FC
F8
30
00
00
00
ENDCHAR
STARTCHAR DOWNWARDS DOUBLE ARROW
ENCODING 8659
SWIDTH 500 0
DWIDTH 7 0
BBX 7 14 0 -3
BITMAP
6C
6C
6C
6C
6C
6C
EE
EE
6C
38
10
00
00
00
ENDCHAR
STARTCHAR LEFT RIGHT DOUBLE ARROW
ENCODING 8660
SWIDTH 500 0
DWIDTH 7 0
BBX 7 14 0 -3
BITMAP
00
00
00
00
28
7C
7C
C6
7C
7C
28
00
00
00
ENDCHAR
STARTCHAR UP DOWN DOUBLE ARROW
ENCODING 8661
SWIDTH 500 0
DWIDTH 7 0
BBX 7 14 0 -3
BITMAP
00
00
00
10
7C
EE
6C
6C
EE
7C
10
00
00
00
ENDCHAR
STARTCHAR NORTH WEST DOUBLE ARROW
ENCODING 8662
SWIDTH 500 0
DWIDTH 7 0
BBX 7 14 0 -3
BITMAP
00
00
00
00
7E
5C
6E
76
78
58
00
00
00
00
ENDCHAR
STARTCHAR NORTH EAST DOUBLE ARROW
ENCODING 8663
SWIDTH 500 0
DWIDTH 7 0
BBX 7 14 0 -3
BITMAP
00
00
00
00
FC
74
EC
DC
3C
34
00
00
00
00
ENDCHAR
STARTCHAR SOUTH EAST DOUBLE ARROW
ENCODING 8664
SWIDTH 500 0
DWIDTH 7 0
BBX 7 14 0 -3
BITMAP
00
00
00
00
34
3C
DC
EC
74
FC
00
00
00
00
ENDCHAR
STARTCHAR SOUTH WEST DOUBLE ARROW
ENCODING 8665
SWIDTH 500 0
DWIDTH 7 0
BBX 7 14 0 -3
BITMAP
00
00
00
00
58
78
76
6E
5C
7E
00
00
00
00
ENDCHAR
STARTCHAR LEFTWARDS TRIPLE ARROW
ENCODING 8666
SWIDTH 500 0
DWIDTH 7 0
BBX 7 14 0 -3
BITMAP
00
00
20
3E
7E
40
FE
FE
40
7E
3E
20
00
00
ENDCHAR
STARTCHAR RIGHTWARDS TRIPLE ARROW
ENCODING 8667
SWIDTH 500 0
DWIDTH 7 0
BBX 7 14 0 -3
BITMAP
00
00
08
F8
FC
04
FE
FE
04
FC
F8
08
00
00
ENDCHAR
STARTCHAR LEFTWARDS SQUIGGLE ARROW
ENCODING 8668
SWIDTH 500 0
DWIDTH 7 0
BBX 7 14 0 -3
BITMAP
00
00
00
00
30
6A
FE
F4
60
30
00
00
00
00
ENDCHAR
STARTCHAR RIGHTWARDS SQUIGGLE ARROW
ENCODING 8669
SWIDTH 500 0
DWIDTH 7 0
BBX 7 14 0 -3
BITMAP
00
00
00
00
18
AC
FE
5E
0C
18
00
00
00
00
ENDCHAR
STARTCHAR UPWARDS ARROW WITH DOUBLE STROKE
ENCODING 8670
SWIDTH 500 0
DWIDTH 7 0
BBX 7 14 0 -3
BITMAP
00
00
00
18
3C
7E
5A
18
7E
7E
18
7E
7E
18
ENDCHAR
STARTCHAR DOWNWARDS ARROW WITH DOUBLE STROKE
ENCODING 8671
SWIDTH 500 0
DWIDTH 7 0
BBX 7 14 0 -3
BITMAP
18
7E
7E
18
7E
7E
18
5A
7E
3C
18
00
00
00
ENDCHAR
STARTCHAR LEFTWARDS DASHED ARROW
ENCODING 8672
SWIDTH 500 0
DWIDTH 7 0
BBX 7 14 0 -3
BITMAP
00
00
00
00
30
60
EA
EA
60
30
00
00
00
00
ENDCHAR
STARTCHAR UPWARDS DASHED ARROW
ENCODING 8673
SWIDTH 500 0
DWIDTH 7 0
BBX 7 14 0 -3
BITMAP
00
00
00
18
3C
7E
42
18
18
18
00
18
18
18
ENDCHAR
STARTCHAR RIGHTWARDS DASHED ARROW
ENCODING 8674
SWIDTH 500 0
DWIDTH 7 0
BBX 7 14 0 -3
BITMAP
00
00
00
00
18
0C
AE
AE
0C
18
00
00
00
00
ENDCHAR
STARTCHAR DOWNWARDS DASHED ARROW
ENCODING 8675
SWIDTH 500 0
DWIDTH 7 0
BBX 7 14 0 -3
BITMAP
18
18
18
00
18
18
18
42
7E
3C
18
00
00
00
ENDCHAR
STARTCHAR LEFTWARDS ARROW TO BAR
ENCODING 8676
SWIDTH 500 0
DWIDTH 7 0
BBX 7 14 0 -3
BITMAP
00
00
00
00
64
6C
7E
7E
6C
64
00
00
00
00
ENDCHAR
STARTCHAR RIGHTWARDS ARROW TO BAR
ENCODING 8677
SWIDTH 500 0
DWIDTH 7 0
BBX 7 14 0 -3
BITMAP
00
00
00
00
4C
6C
FC
FC
6C
4C
00
00
00
00
ENDCHAR
STARTCHAR LEFTWARDS WHITE ARROW
ENCODING 8678
SWIDTH 500 0
DWIDTH 7 0
BBX 7 14 0 -3
BITMAP
00
00
00
00
10
3C
7C
CC
7C
3C
10
00
00
00
ENDCHAR
STARTCHAR UPWARDS WHITE ARROW
ENCODING 8679
SWIDTH 500 0
DWIDTH 7 0
BBX 7 14 0 -3
BITMAP
00
00
00
10
38
6C
EE
EE
6C
7C
7C
00
00
00
ENDCHAR
STARTCHAR RIGHTWARDS WHITE ARROW
ENCODING 8680
SWIDTH 500 0
DWIDTH 7 0
BBX 7 14 0 -3
BITMAP
00
00
00
00
10
78
7C
66
7C
78
10
00
00
00
ENDCHAR
STARTCHAR DOWNWARDS WHITE ARROW
ENCODING 8681
SWIDTH 500 0
DWIDTH 7 0
BBX 7 14 0 -3
BITMAP
00
00
00
7C
7C
6C
EE
EE
6C
38
10
00
00
00
ENDCHAR
STARTCHAR UPWARDS WHITE ARROW FROM BAR
ENCODING 8682
SWIDTH 500 0
DWIDTH 7 0
BBX 7 14 0 -3
BITMAP
00
00
00
10
38
6C
FE
00
7C
6C
7C
00
00
00
ENDCHAR
STARTCHAR UPWARDS WHITE ARROW ON PEDESTAL
ENCODING 8683
SWIDTH 500 0
DWIDTH 7 0
BBX 7 14 0 -3
BITMAP
00
00
00
10
38
6C
EE
6C
6C
C6
FE
00
00
00
ENDCHAR
STARTCHAR UPWARDS WHITE ARROW ON PEDESTAL WITH HORIZONTAL BAR
ENCODING 8684
SWIDTH 500 0
DWIDTH 7 0
BBX 7 14 0 -3
BITMAP
00
00
00
10
38
6C
FE
6C
6C
C6
FE
00
00
00
ENDCHAR
STARTCHAR UPWARDS WHITE ARROW ON PEDESTAL WITH VERTICAL BAR
ENCODING 8685
SWIDTH 500 0
DWIDTH 7 0
BBX 7 14 0 -3
BITMAP
00
00
00
10
38
7C
D6
54
D6
92
FE
00
00
00
ENDCHAR
STARTCHAR UPWARDS WHITE DOUBLE ARROW
ENCODING 8686
SWIDTH 500 0
DWIDTH 7 0
BBX 7 14 0 -3
BITMAP
00
00
00
10
38
6C
FE
6C
EE
7C
7C
00
00
00
ENDCHAR
STARTCHAR UPWARDS WHITE DOUBLE ARROW ON PEDESTAL
ENCODING 8687
SWIDTH 500 0
DWIDTH 7 0
BBX 7 14 0 -3
BITMAP
00
00
00
10
7C
EE
7C
EE
6C
C6
FE
00
00
00
ENDCHAR
STARTCHAR RIGHTWARDS WHITE ARROW FROM WALL
ENCODING 8688
SWIDTH 500 0
DWIDTH 7 0
BBX 7 14 0 -3
BITMAP
00
00
00
00
68
78
5C
46
5C
78
68
00
00
00
ENDCHAR
STARTCHAR NORTH WEST ARROW TO CORNER
ENCODING 8689
SWIDTH 500 0
DWIDTH 7 0
BBX 7 14 0 -3
BITMAP
00
00
00
00
FE
80
BE
B8
BC
AE
A4
00
00
00
ENDCHAR
STARTCHAR SOUTH EAST ARROW TO CORNER
ENCODING 8690
SWIDTH 500 0
DWIDTH 7 0
BBX 7 14 0 -3
BITMAP
00
00
00
00
4A
EA
7A
3A
FA
02
FE
00
00
00
ENDCHAR
STARTCHAR UP DOWN WHITE ARROW
ENCODING 8691
SWIDTH 500 0
DWIDTH 7 0
BBX 7 14 0 -3
BITMAP
00
00
00
10
7C
EE
6C
6C
EE
7C
10
00
00
00
ENDCHAR
STARTCHAR RIGHT ARROW WITH SMALL CIRCLE
ENCODING 8692
SWIDTH 500 0
DWIDTH 7 0
BBX 7 14 0 -3
BITMAP
00
00
00
00
08
2C
DE
DE
2C
08
00
00
00
00
ENDCHAR
STARTCHAR DOWNWARDS ARROW LEFTWARDS OF UPWARDS ARROW
ENCODING 8693
SWIDTH 500 0
DWIDTH 7 0
BBX 7 14 0 -3
BITMAP
00
00
00
6C
7E
7E
6C
6C
FC
FC
6C
00
00
00
ENDCHAR
STARTCHAR THREE RIGHTWARDS ARROWS
ENCODING 8694
SWIDTH 500 0
DWIDTH 7 0
BBX 7 14 0 -3
BITMAP
18
0C
FE
FE
0C
0C
FE
FE
0C
0C
FE
FE
0C
18
ENDCHAR
STARTCHAR LEFTWARDS ARROW WITH VERTICAL STROKE
ENCODING 8695
SWIDTH 500 0
DWIDTH 7 0
BBX 7 14 0 -3
BITMAP
00
00
00
00
28
68
FE
FE
68
28
00
00
00
00
ENDCHAR
STARTCHAR RIGHTWARDS ARROW WITH VERTICAL STROKE
ENCODING 8696
SWIDTH 500 0
DWIDTH 7 0
BBX 7 14 0 -3
BITMAP
00
00
00
00
28
2C
FE
FE
2C
28
00
00
00
00
ENDCHAR
STARTCHAR LEFT RIGHT ARROW WITH VERTICAL STROKE
ENCODING 8697
SWIDTH 500 0
DWIDTH 7 0
BBX 7 14 0 -3
BITMAP
00
00
00
00
54
54
FE
FE
54
54
00
00
00
00
ENDCHAR
STARTCHAR LEFTWARDS ARROW WITH DOUBLE VERTICAL STROKE
ENCODING 8698
SWIDTH 500 0
DWIDTH 7 0
BBX 7 14 0 -3
BITMAP
00
00
00
00
2C
6C
FE
FE
6C
2C
00
00
00
00
ENDCHAR
STARTCHAR RIGHTWARDS ARROW WITH DOUBLE VERTICAL STROKE
ENCODING 8699
SWIDTH 500 0
DWIDTH 7 0
BBX 7 14 0 -3
BITMAP
00
00
00
00
68
6C
FE
FE
6C
68
00
00
00
00
ENDCHAR
STARTCHAR LEFT RIGHT ARROW WITH DOUBLE VERTICAL STROKE
ENCODING 8700
SWIDTH 500 0
DWIDTH 7 0
BBX 7 14 0 -3
BITMAP
00
00
00
00
6C
6C
FE
FE
6C
6C
00
00
00
00
ENDCHAR
STARTCHAR LEFTWARDS OPEN-HEADED ARROW
ENCODING 8701
SWIDTH 500 0
DWIDTH 7 0
BBX 7 14 0 -3
BITMAP
00
00
00
00
30
70
DE
DE
70
30
00
00
00
00
ENDCHAR
STARTCHAR RIGHTWARDS OPEN-HEADED ARROW
ENCODING 8702
SWIDTH 500 0
DWIDTH 7 0
BBX 7 14 0 -3
BITMAP
00
00
00
00
18
1C
F6
F6
1C
18
00
00
00
00
ENDCHAR
STARTCHAR LEFT RIGHT OPEN-HEADED ARROW
ENCODING 8703
SWIDTH 500 0
DWIDTH 7 0
BBX 7 14 0 -3
BITMAP
00
00
00
00
6C
6C
BA
BA
6C
6C
00
00
00
00
ENDCHAR
STARTCHAR EMPTY SET
ENCODING 8709
SWIDTH 500 0
DWIDTH 7 0
BBX 7 14 0 -3
BITMAP
00
00
00
02
04
3C
6E
6E
76
76
3C
20
40
00
ENDCHAR
STARTCHAR INCREMENT
ENCODING 8710
SWIDTH 500 0
DWIDTH 7 0
BBX 7 14 0 -3
BITMAP
00
00
18
18
18
3C
3C
3C
66
66
7E
00
00
00
ENDCHAR
STARTCHAR ELEMENT OF
ENCODING 8712
SWIDTH 500 0
DWIDTH 7 0
BBX 7 14 0 -3
BITMAP
00
00
00
1E
30
60
7E
60
30
1E
00
00
00
00
ENDCHAR
STARTCHAR MINUS SIGN
ENCODING 8722
SWIDTH 500 0
DWIDTH 7 0
BBX 7 14 0 -3
BITMAP
00
00
00
00
00
00
7E
00
00
00
00
00
00
00
ENDCHAR
STARTCHAR BULLET OPERATOR
ENCODING 8729
SWIDTH 500 0
DWIDTH 7 0
BBX 7 14 0 -3
BITMAP
00
00
00
00
00
18
3C
3C
18
00
00
00
00
00
ENDCHAR
STARTCHAR SQUARE ROOT
ENCODING 8730
SWIDTH 500 0
DWIDTH 7 0
BBX 7 14 0 -3
BITMAP
02
02
06
06
0C
0C
18
D8
70
70
20
20
00
00
ENDCHAR
STARTCHAR CUBE ROOT
ENCODING 8731
SWIDTH 500 0
DWIDTH 7 0
BBX 7 14 0 -3
BITMAP
E2
42
C6
26
2C
CC
18
D8
70
70
20
20
00
00
ENDCHAR
STARTCHAR FOURTH ROOT
ENCODING 8732
SWIDTH 500 0
DWIDTH 7 0
BBX 7 14 0 -3
BITMAP
22
62
66
A6
FC
2C
18
D8
70
70
20
20
00
00
ENDCHAR
STARTCHAR PROPORTIONAL TO
ENCODING 8733
SWIDTH 500 0
DWIDTH 7 0
BBX 7 14 0 -3
BITMAP
00
00
00
00
00
34
7C
48
7C
34
00
00
00
00
ENDCHAR
STARTCHAR INFINITY
ENCODING 8734
SWIDTH 500 0
DWIDTH 7 0
BBX 7 14 0 -3
BITMAP
00
00
00
00
00
6C
FE
92
FE
6C
00
00
00
00
ENDCHAR
STARTCHAR RIGHT ANGLE
ENCODING 8735
SWIDTH 500 0
DWIDTH 7 0
BBX 7 14 0 -3
BITMAP
00
00
00
00
00
00
60
60
60
60
7E
00
00
00
ENDCHAR
STARTCHAR LOGICAL AND
ENCODING 8743
SWIDTH 500 0
DWIDTH 7 0
BBX 7 14 0 -3
BITMAP
00
00
00
00
18
18
3C
3C
66
00
00
00
00
00
ENDCHAR
STARTCHAR LOGICAL OR
ENCODING 8744
SWIDTH 500 0
DWIDTH 7 0
BBX 7 14 0 -3
BITMAP
00
00
00
00
66
3C
3C
18
18
00
00
00
00
00
ENDCHAR
STARTCHAR INTERSECTION
ENCODING 8745
SWIDTH 500 0
DWIDTH 7 0
BBX 7 14 0 -3
BITMAP
00
00
00
00
00
3C
66
66
66
66
00
00
00
00
ENDCHAR
STARTCHAR UNION
ENCODING 8746
SWIDTH 500 0
DWIDTH 7 0
BBX 7 14 0 -3
BITMAP
00
00
00
00
00
66
66
66
66
3C
00
00
00
00
ENDCHAR
STARTCHAR INTEGRAL
ENCODING 8747
SWIDTH 500 0
DWIDTH 7 0
BBX 7 14 0 -3
BITMAP
00
0C
1A
18
18
18
18
18
18
18
18
58
30
00
ENDCHAR
STARTCHAR ALMOST EQUAL TO
ENCODING 8776
SWIDTH 500 0
DWIDTH 7 0
BBX 7 14 0 -3
BITMAP
00
00
00
00
00
76
DC
00
76
DC
00
00
00
00
ENDCHAR
STARTCHAR NOT EQUAL TO
ENCODING 8800
SWIDTH 500 0
DWIDTH 7 0
BBX 7 14 0 -3
BITMAP
00
00
00
06
0C
7E
18
7E
30
60
00
00
00
00
ENDCHAR
STARTCHAR IDENTICAL TO
ENCODING 8801
SWIDTH 500 0
DWIDTH 7 0
BBX 7 14 0 -3
BITMAP
00
00
00
00
00
7E
00
7E
00
7E
00
00
00
00
ENDCHAR
STARTCHAR LESS-THAN OR EQUAL TO
ENCODING 8804
SWIDTH 500 0
DWIDTH 7 0
BBX 7 14 0 -3
BITMAP
00
00
00
00
06
1C
70
1C
06
00
7E
00
00
00
ENDCHAR
STARTCHAR GREATER-THAN OR EQUAL TO
ENCODING 8805
SWIDTH 500 0
DWIDTH 7 0
BBX 7 14 0 -3
BITMAP
00
00
00
00
60
38
0E
38
60
00
7E
00
00
00
ENDCHAR
STARTCHAR HOUSE
ENCODING 8962
SWIDTH 500 0
DWIDTH 7 0
BBX 7 14 0 -3
BITMAP
00
00
00
18
3C
66
66
7E
00
00
00
00
00
00
ENDCHAR
STARTCHAR REVERSED NOT SIGN
ENCODING 8976
SWIDTH 500 0
DWIDTH 7 0
BBX 7 14 0 -3
BITMAP
00
00
00
00
00
00
7E
60
60
00
00
00
00
00
ENDCHAR
STARTCHAR TOP HALF INTEGRAL
ENCODING 8992
SWIDTH 500 0
DWIDTH 7 0
BBX 7 14 0 -3
BITMAP
00
0C
1A
1A
18
18
18
18
18
18
18
18
18
18
ENDCHAR
STARTCHAR BOTTOM HALF INTEGRAL
ENCODING 8993
SWIDTH 500 0
DWIDTH 7 0
BBX 7 14 0 -3
BITMAP
18
18
18
18
18
18
18
18
18
18
18
58
58
30
ENDCHAR
STARTCHAR HORIZONTAL SCAN LINE-1
ENCODING 9146
SWIDTH 500 0
DWIDTH 7 0
BBX 7 14 0 -3
BITMAP
00
00
7C
00
00
00
00
00
00
00
00
00
00
00
ENDCHAR
STARTCHAR HORIZONTAL SCAN LINE-3
ENCODING 9147
SWIDTH 500 0
DWIDTH 7 0
BBX 7 14 0 -3
BITMAP
00
00
00
00
00
7C
00
00
00
00
00
00
00
00
ENDCHAR
STARTCHAR HORIZONTAL SCAN LINE-7
ENCODING 9148
SWIDTH 500 0
DWIDTH 7 0
BBX 7 14 0 -3
BITMAP
00
00
00
00
00
00
00
00
00
7C
00
00
00
00
ENDCHAR
STARTCHAR HORIZONTAL SCAN LINE-9
ENCODING 9149
SWIDTH 500 0
DWIDTH 7 0
BBX 7 14 0 -3
BITMAP
00
00
00
00
00
00
00
00
00
00
00
00
7C
00
ENDCHAR
STARTCHAR SYMBOL FOR NULL
ENCODING 9216
SWIDTH 500 0
DWIDTH 7 0
BBX 7 14 0 -3
BITMAP
00
7E
42
5A
5A
7E
5A
5A
42
7E
5E
5E
42
7E
ENDCHAR
STARTCHAR SYMBOL FOR START OF HEADING
ENCODING 9217
SWIDTH 500 0
DWIDTH 7 0
BBX 7 14 0 -3
BITMAP
00
7E
62
6E
4E
7E
42
5A
42
7E
5A
42
5A
7E
ENDCHAR
STARTCHAR SYMBOL FOR START OF TEXT
ENCODING 9218
SWIDTH 500 0
DWIDTH 7 0
BBX 7 14 0 -3
BITMAP
00
7E
62
6E
4E
7E
42
76
76
7E
5A
66
5A
7E
ENDCHAR
STARTCHAR SYMBOL FOR END OF TEXT
ENCODING 9219
SWIDTH 500 0
DWIDTH 7 0
BBX 7 14 0 -3
BITMAP
00
7E
42
46
42
7E
42
76
76
7E
5A
66
5A
7E
ENDCHAR
STARTCHAR SYMBOL FOR END OF TRANSMISSION
ENCODING 9220
SWIDTH 500 0
DWIDTH 7 0
BBX 7 14 0 -3
BITMAP
00
7E
42
46
42
7E
42
5A
42
7E
42
76
76
7E
ENDCHAR
STARTCHAR SYMBOL FOR ENQUIRY
ENCODING 9221
SWIDTH 500 0
DWIDTH 7 0
BBX 7 14 0 -3
BITMAP
00
7E
42
46
42
7E
42
5A
5A
7E
46
56
42
7E
ENDCHAR
STARTCHAR SYMBOL FOR ACKNOWLEDGE
ENCODING 9222
SWIDTH 500 0
DWIDTH 7 0
BBX 7 14 0 -3
BITMAP
00
7E
66
42
5A
7E
42
5E
42
7E
5A
46
5A
7E
ENDCHAR
STARTCHAR SYMBOL FOR BELL
ENCODING 9223
SWIDTH 500 0
DWIDTH 7 0
BBX 7 14 0 -3
BITMAP
00
7E
46
42
42
7E
42
46
42
7E
5E
5E
42
7E
ENDCHAR
STARTCHAR SYMBOL FOR BACKSPACE
ENCODING 9224
SWIDTH 500 0
DWIDTH 7 0
BBX 7 14 0 -3
BITMAP
00
7E
46
5A
46
5A
46
7E
62
5E
66
7A
46
7E
ENDCHAR
STARTCHAR SYMBOL FOR HORIZONTAL TABULATION
ENCODING 9225
SWIDTH 500 0
DWIDTH 7 0
BBX 7 14 0 -3
BITMAP
00
7E
4A
4A
42
4A
4A
7E
42
66
66
66
66
7E
ENDCHAR
STARTCHAR SYMBOL FOR LINE FEED
ENCODING 9226
SWIDTH 500 0
DWIDTH 7 0
BBX 7 14 0 -3
BITMAP
00
7E
4E
4E
4E
4E
42
7E
42
4E
46
4E
4E
7E
ENDCHAR
STARTCHAR SYMBOL FOR VERTICAL TABULATION
ENCODING 9227
SWIDTH 500 0
DWIDTH 7 0
BBX 7 14 0 -3
BITMAP
00
7E
4A
4A
4A
66
66
7E
42
66
66
66
66
7E
ENDCHAR
STARTCHAR SYMBOL FOR FORM FEED
ENCODING 9228
SWIDTH 500 0
DWIDTH 7 0
BBX 7 14 0 -3
BITMAP
00
7E
42
4E
46
4E
4E
7E
42
4E
46
4E
4E
7E
ENDCHAR
STARTCHAR SYMBOL FOR CARRIAGE RETURN
ENCODING 9229
SWIDTH 500 0
DWIDTH 7 0
BBX 7 14 0 -3
BITMAP
00
7E
62
4E
4E
4E
62
7E
46
4A
4A
46
4A
7E
ENDCHAR
STARTCHAR SYMBOL FOR SHIFT OUT
ENCODING 9230
SWIDTH 500 0
DWIDTH 7 0
BBX 7 14 0 -3
BITMAP
00
7E
62
5E
66
7A
46
7E
66
5A
5A
5A
66
7E
ENDCHAR
STARTCHAR SYMBOL FOR SHIFT IN
ENCODING 9231
SWIDTH 500 0
DWIDTH 7 0
BBX 7 14 0 -3
BITMAP
00
7E
62
5E
66
7A
46
7E
62
76
76
76
62
7E
ENDCHAR
STARTCHAR SYMBOL FOR DATA LINK ESCAPE
ENCODING 9232
SWIDTH 500 0
DWIDTH 7 0
BBX 7 14 0 -3
BITMAP
00
7E
46
5A
46
7E
5E
5E
42
7E
42
46
42
7E
ENDCHAR
STARTCHAR SYMBOL FOR DEVICE CONTROL ONE
ENCODING 9233
SWIDTH 500 0
DWIDTH 7 0
BBX 7 14 0 -3
BITMAP
00
7E
46
5A
46
7E
42
5E
42
7E
66
76
76
7E
ENDCHAR
STARTCHAR SYMBOL FOR DEVICE CONTROL TWO
ENCODING 9234
SWIDTH 500 0
DWIDTH 7 0
BBX 7 14 0 -3
BITMAP
00
7E
46
5A
46
7E
42
5E
42
7E
4E
76
42
7E
ENDCHAR
STARTCHAR SYMBOL FOR DEVICE CONTROL THREE
ENCODING 9235
SWIDTH 500 0
DWIDTH 7 0
BBX 7 14 0 -3
BITMAP
00
7E
46
5A
46
7E
42
5E
42
7E
42
72
42
7E
ENDCHAR
STARTCHAR SYMBOL FOR DEVICE CONTROL FOUR
ENCODING 9236
SWIDTH 500 0
DWIDTH 7 0
BBX 7 14 0 -3
BITMAP
00
7E
46
5A
46
7E
42
5E
42
7E
56
42
76
7E
ENDCHAR
STARTCHAR SYMBOL FOR NEGATIVE ACKNOWLEDGE
ENCODING 9237
SWIDTH 500 0
DWIDTH 7 0
BBX 7 14 0 -3
BITMAP
00
7E
42
5A
5A
7E
66
42
5A
7E
5A
46
5A
7E
ENDCHAR
STARTCHAR SYMBOL FOR SYNCHRONOUS IDLE
ENCODING 9238
SWIDTH 500 0
DWIDTH 7 0
BBX 7 14 0 -3
BITMAP
00
7E
62
6E
4E
7E
5A
66
76
7E
42
5A
5A
7E
ENDCHAR
STARTCHAR SYMBOL FOR END OF TRANSMISSION BLOCK
ENCODING 9239
SWIDTH 500 0
DWIDTH 7 0
BBX 7 14 0 -3
BITMAP
00
7E
42
46
42
7E
42
76
76
7E
46
42
42
7E
ENDCHAR
STARTCHAR SYMBOL FOR CANCEL
ENCODING 9240
SWIDTH 500 0
DWIDTH 7 0
BBX 7 14 0 -3
BITMAP
00
7E
42
5E
42
7E
66
42
5A
7E
42
5A
5A
7E
ENDCHAR
STARTCHAR SYMBOL FOR END OF MEDIUM
ENCODING 9241
SWIDTH 500 0
DWIDTH 7 0
BBX 7 14 0 -3
BITMAP
00
7E
42
5E
46
5E
42
7E
5A
42
42
5A
5A
7E
ENDCHAR
STARTCHAR SYMBOL FOR SUBSTITUTE
ENCODING 9242
SWIDTH 500 0
DWIDTH 7 0
BBX 7 14 0 -3
BITMAP
00
7E
62
6E
4E
7E
5A
5A
42
7E
46
42
42
7E
ENDCHAR
STARTCHAR SYMBOL FOR ESCAPE
ENCODING 9243
SWIDTH 500 0
DWIDTH 7 0
BBX 7 14 0 -3
BITMAP
00
7E
42
46
42
7E
62
6E
4E
7E
42
5E
42
7E
ENDCHAR
STARTCHAR SYMBOL FOR FILE SEPARATOR
ENCODING 9244
SWIDTH 500 0
DWIDTH 7 0
BBX 7 14 0 -3
BITMAP
00
7E
42
5E
46
5E
5E
7E
62
5E
66
7A
46
7E
ENDCHAR
STARTCHAR SYMBOL FOR GROUP SEPARATOR
ENCODING 9245
SWIDTH 500 0
DWIDTH 7 0
BBX 7 14 0 -3
BITMAP
00
7E
62
5E
52
5A
66
7E
62
5E
66
7A
46
7E
ENDCHAR
STARTCHAR SYMBOL FOR RECORD SEPARATOR
ENCODING 9246
SWIDTH 500 0
DWIDTH 7 0
BBX 7 14 0 -3
BITMAP
00
7E
46
5A
5A
46
5A
7E
62
5E
66
7A
46
7E
ENDCHAR
STARTCHAR SYMBOL FOR UNIT SEPARATOR
ENCODING 9247
SWIDTH 500 0
DWIDTH 7 0
BBX 7 14 0 -3
BITMAP
00
7E
5A
5A
5A
5A
66
7E
62
5E
66
7A
46
7E
ENDCHAR
STARTCHAR SYMBOL FOR SPACE
ENCODING 9248
SWIDTH 500 0
DWIDTH 7 0
BBX 7 14 0 -3
BITMAP
00
7E
62
5E
66
7A
46
7E
46
5A
5A
46
5E
7E
ENDCHAR
STARTCHAR SYMBOL FOR DELETE
ENCODING 9249
SWIDTH 500 0
DWIDTH 7 0
BBX 7 14 0 -3
BITMAP
00
7E
46
5A
46
7E
42
46
42
7E
5E
5E
42
7E
ENDCHAR
STARTCHAR BLANK SYMBOL
ENCODING 9250
SWIDTH 500 0
DWIDTH 7 0
BBX 7 14 0 -3
BITMAP
00
00
48
70
C0
78
44
44
44
44
78
00
00
00
ENDCHAR
STARTCHAR OPEN BOX
ENCODING 9251
SWIDTH 500 0
DWIDTH 7 0
BBX 7 14 0 -3
BITMAP
00
00
00
00
00
00
00
00
00
00
44
44
7C
7C
ENDCHAR
STARTCHAR SYMBOL FOR NEWLINE
ENCODING 9252
SWIDTH 500 0
DWIDTH 7 0
BBX 7 14 0 -3
BITMAP
00
7E
5A
4A
42
4A
4A
7E
4E
4E
4E
4E
42
7E
ENDCHAR
STARTCHAR SYMBOL FOR DELETE FORM TWO
ENCODING 9253
SWIDTH 500 0
DWIDTH 7 0
BBX 7 14 0 -3
BITMAP
00
7E
7E
7E
7E
6E
5A
76
6E
5A
76
7E
7E
7E
ENDCHAR
STARTCHAR SYMBOL FOR SUBSTITUTE FORM TWO
ENCODING 9254
SWIDTH 500 0
DWIDTH 7 0
BBX 7 14 0 -3
BITMAP
00
7E
66
5A
5E
5E
66
76
7E
7E
76
7E
7E
7E
ENDCHAR
STARTCHAR BOX DRAWINGS LIGHT HORIZONTAL
ENCODING 9472
SWIDTH 500 0
DWIDTH 7 0
BBX 7 14 0 -3
BITMAP
00
00
00
00
00
00
FE
FE
00
00
00
00
00
00
ENDCHAR
STARTCHAR BOX DRAWINGS HEAVY HORIZONTAL
ENCODING 9473
SWIDTH 500 0
DWIDTH 7 0
BBX 7 14 0 -3
BITMAP
00
00
00
00
00
00
FE
FE
FE
00
00
00
00
00
ENDCHAR
STARTCHAR BOX DRAWINGS LIGHT VERTICAL
ENCODING 9474
SWIDTH 500 0
DWIDTH 7 0
BBX 7 14 0 -3
BITMAP
18
18
18
18
18
18
18
18
18
18
18
18
18
18
ENDCHAR
STARTCHAR BOX DRAWINGS HEAVY VERTICAL
ENCODING 9475
SWIDTH 500 0
DWIDTH 7 0
BBX 7 14 0 -3
BITMAP
38
38
38
38
38
38
38
38
38
38
38
38
38
38
ENDCHAR
STARTCHAR BOX DRAWINGS LIGHT TRIPLE DASH HORIZONTAL
ENCODING 9476
SWIDTH 500 0
DWIDTH 7 0
BBX 7 14 0 -3
BITMAP
00
00
00
00
00
00
5A
5A
00
00
00
00
00
00
ENDCHAR
STARTCHAR BOX DRAWINGS HEAVY TRIPLE DASH HORIZONTAL
ENCODING 9477
SWIDTH 500 0
DWIDTH 7 0
BBX 7 14 0 -3
BITMAP
00
00
00
00
00
00
5A
5A
5A
00
00
00
00
00
ENDCHAR
STARTCHAR BOX DRAWINGS LIGHT TRIPLE DASH VERTICAL
ENCODING 9478
SWIDTH 500 0
DWIDTH 7 0
BBX 7 14 0 -3
BITMAP
00
18
18
18
18
00
18
18
18
00
18
18
18
18
ENDCHAR
STARTCHAR BOX DRAWINGS HEAVY TRIPLE DASH VERTICAL
ENCODING 9479
SWIDTH 500 0
DWIDTH 7 0
BBX 7 14 0 -3
BITMAP
00
38
38
38
38
00
38
38
38
00
38
38
38
38
ENDCHAR
STARTCHAR BOX DRAWINGS LIGHT QUADRUPLE DASH HORIZONTAL
ENCODING 9480
SWIDTH 500 0
DWIDTH 7 0
BBX 7 14 0 -3
BITMAP
00
00
00
00
00
00
5A
5A
00
00
00
00
00
00
ENDCHAR
STARTCHAR BOX DRAWINGS HEAVY QUADRUPLE DASH HORIZONTAL
ENCODING 9481
SWIDTH 500 0
DWIDTH 7 0
BBX 7 14 0 -3
BITMAP
00
00
00
00
00
00
5A
5A
5A
00
00
00
00
00
ENDCHAR
STARTCHAR BOX DRAWINGS LIGHT QUADRUPLE DASH VERTICAL
ENCODING 9482
SWIDTH 500 0
DWIDTH 7 0
BBX 7 14 0 -3
BITMAP
00
18
18
00
18
18
18
00
18
18
00
18
18
18
ENDCHAR
STARTCHAR BOX DRAWINGS HEAVY QUADRUPLE DASH VERTICAL
ENCODING 9483
SWIDTH 500 0
DWIDTH 7 0
BBX 7 14 0 -3
BITMAP
00
38
38
00
38
38
38
00
38
38
00
38
38
38
ENDCHAR
STARTCHAR BOX DRAWINGS LIGHT DOWN AND RIGHT
ENCODING 9484
SWIDTH 500 0
DWIDTH 7 0
BBX 7 14 0 -3
BITMAP
00
00
00
00
00
00
1E
1E
18
18
18
18
18
18
ENDCHAR
STARTCHAR BOX DRAWINGS DOWN LIGHT AND RIGHT HEAVY
ENCODING 9485
SWIDTH 500 0
DWIDTH 7 0
BBX 7 14 0 -3
BITMAP
00
00
00
00
00
00
1E
1E
1E
18
18
18
18
18
ENDCHAR
STARTCHAR BOX DRAWINGS DOWN HEAVY AND RIGHT LIGHT
ENCODING 9486
SWIDTH 500 0
DWIDTH 7 0
BBX 7 14 0 -3
BITMAP
00
00
00
00
00
00
3E
3E
38
38
38
38
38
38
ENDCHAR
STARTCHAR BOX DRAWINGS HEAVY DOWN AND RIGHT
ENCODING 9487
SWIDTH 500 0
DWIDTH 7 0
BBX 7 14 0 -3
BITMAP
00
00
00
00
00
00
3E
3E
3E
38
38
38
38
38
ENDCHAR
STARTCHAR BOX DRAWINGS LIGHT DOWN AND LEFT
ENCODING 9488
SWIDTH 500 0
DWIDTH 7 0
BBX 7 14 0 -3
BITMAP
00
00
00
00
00
00
F8
F8
18
18
18
18
18
18
ENDCHAR
STARTCHAR BOX DRAWINGS DOWN LIGHT AND LEFT HEAVY
ENCODING 9489
SWIDTH 500 0
DWIDTH 7 0
BBX 7 14 0 -3
BITMAP
00
00
00
00
00
00
F8
F8
F8
18
18
18
18
18
ENDCHAR
STARTCHAR BOX DRAWINGS DOWN HEAVY AND LEFT LIGHT
ENCODING 9490
SWIDTH 500 0
DWIDTH 7 0
BBX 7 14 0 -3
BITMAP
00
00
00
00
00
00
FC
FC
1C
1C
1C
1C
1C
1C
ENDCHAR
STARTCHAR BOX DRAWINGS HEAVY DOWN AND LEFT
ENCODING 9491
SWIDTH 500 0
DWIDTH 7 0
BBX 7 14 0 -3
BITMAP
00
00
00
00
00
00
FC
FC
FC
1C
1C
1C
1C
1C
ENDCHAR
STARTCHAR BOX DRAWINGS LIGHT UP AND RIGHT
ENCODING 9492
SWIDTH 500 0
DWIDTH 7 0
BBX 7 14 0 -3
BITMAP
18
18
18
18
18
18
1E
1E
00
00
00
00
00
00
ENDCHAR
STARTCHAR BOX DRAWINGS UP LIGHT AND RIGHT HEAVY
ENCODING 9493
SWIDTH 500 0
DWIDTH 7 0
BBX 7 14 0 -3
BITMAP
18
18
18
18
18
18
1E
1E
1E
00
00
00
00
00
ENDCHAR
STARTCHAR BOX DRAWINGS UP HEAVY AND RIGHT LIGHT
ENCODING 9494
SWIDTH 500 0
DWIDTH 7 0
BBX 7 14 0 -3
BITMAP
38
38
38
38
38
38
3E
3E
00
00
00
00
00
00
ENDCHAR
STARTCHAR BOX DRAWINGS HEAVY UP AND RIGHT
ENCODING 9495
SWIDTH 500 0
DWIDTH 7 0
BBX 7 14 0 -3
BITMAP
38
38
38
38
38
38
3E
3E
3E
00
00
00
00
00
ENDCHAR
STARTCHAR BOX DRAWINGS LIGHT UP AND LEFT
ENCODING 9496
SWIDTH 500 0
DWIDTH 7 0
BBX 7 14 0 -3
BITMAP
18
18
18
18
18
18
F8
F8
00
00
00
00
00
00
ENDCHAR
STARTCHAR BOX DRAWINGS UP LIGHT AND LEFT HEAVY
ENCODING 9497
SWIDTH 500 0
DWIDTH 7 0
BBX 7 14 0 -3
BITMAP
18
18
18
18
18
18
F8
F8
F8
00
00
00
00
00
ENDCHAR
STARTCHAR BOX DRAWINGS UP HEAVY AND LEFT LIGHT
ENCODING 9498
SWIDTH 500 0
DWIDTH 7 0
BBX 7 14 0 -3
BITMAP
38
38
38
38
38
38
F8
F8
00
00
00
00
00
00
ENDCHAR
STARTCHAR BOX DRAWINGS HEAVY UP AND LEFT
ENCODING 9499
SWIDTH 500 0
DWIDTH 7 0
BBX 7 14 0 -3
BITMAP
38
38
38
38
38
38
F8
F8
F8
00
00
00
00
00
ENDCHAR
STARTCHAR BOX DRAWINGS LIGHT VERTICAL AND RIGHT
ENCODING 9500
SWIDTH 500 0
DWIDTH 7 0
BBX 7 14 0 -3
BITMAP
18
18
18
18
18
18
1E
1E
18
18
18
18
18
18
ENDCHAR
STARTCHAR BOX DRAWINGS VERTICAL LIGHT AND RIGHT HEAVY
ENCODING 9501
SWIDTH 500 0
DWIDTH 7 0
BBX 7 14 0 -3
BITMAP
18
18
18
18
18
18
1E
1E
1E
18
18
18
18
18
ENDCHAR
STARTCHAR BOX DRAWINGS UP HEAVY AND RIGHT DOWN LIGHT
ENCODING 9502
SWIDTH 500 0
DWIDTH 7 0
BBX 7 14 0 -3
BITMAP
38
38
38
38
38
38
3E
3E
18
18
18
18
18
18
ENDCHAR
STARTCHAR BOX DRAWINGS DOWN HEAVY AND RIGHT UP LIGHT
ENCODING 9503
SWIDTH 500 0
DWIDTH 7 0
BBX 7 14 0 -3
BITMAP
18
18
18
18
18
18
3E
3E
38
38
38
38
38
38
ENDCHAR
STARTCHAR BOX DRAWINGS VERTICAL HEAVY AND RIGHT LIGHT
ENCODING 9504
SWIDTH 500 0
DWIDTH 7 0
BBX 7 14 0 -3
BITMAP
38
38
38
38
38
38
3E
3E
38
38
38
38
38
38
ENDCHAR
STARTCHAR BOX DRAWINGS DOWN LIGHT AND RIGHT UP HEAVY
ENCODING 9505
SWIDTH 500 0
DWIDTH 7 0
BBX 7 14 0 -3
BITMAP
38
38
38
38
38
38
3E
3E
3E
18
18
18
18
18
ENDCHAR
STARTCHAR BOX DRAWINGS UP LIGHT AND RIGHT DOWN HEAVY
ENCODING 9506
SWIDTH 500 0
DWIDTH 7 0
BBX 7 14 0 -3
BITMAP
18
18
18
18
18
18
3E
3E
3E
38
38
38
38
38
ENDCHAR
STARTCHAR BOX DRAWINGS HEAVY VERTICAL AND RIGHT
ENCODING 9507
SWIDTH 500 0
DWIDTH 7 0
BBX 7 14 0 -3
BITMAP
38
38
38
38
38
38
3E
3E
3E
38
38
38
38
38
ENDCHAR
STARTCHAR BOX DRAWINGS LIGHT VERTICAL AND LEFT
ENCODING 9508
SWIDTH 500 0
DWIDTH 7 0
BBX 7 14 0 -3
BITMAP
18
18
18
18
18
18
F8
F8
18
18
18
18
18
18
ENDCHAR
STARTCHAR BOX DRAWINGS VERTICAL LIGHT AND LEFT HEAVY
ENCODING 9509
SWIDTH 500 0
DWIDTH 7 0
BBX 7 14 0 -3
BITMAP
18
18
18
18
18
18
F8
F8
F8
18
18
18
18
18
ENDCHAR
STARTCHAR BOX DRAWINGS UP HEAVY AND LEFT DOWN LIGHT
ENCODING 9510
SWIDTH 500 0
DWIDTH 7 0
BBX 7 14 0 -3
BITMAP
38
38
38
38
38
38
F8
F8
18
18
18
18
18
18
ENDCHAR
STARTCHAR BOX DRAWINGS DOWN HEAVY AND LEFT UP LIGHT
ENCODING 9511
SWIDTH 500 0
DWIDTH 7 0
BBX 7 14 0 -3
BITMAP
18
18
18
18
18
18
F8
F8
38
38
38
38
38
38
ENDCHAR
STARTCHAR BOX DRAWINGS VERTICAL HEAVY AND LEFT LIGHT
ENCODING 9512
SWIDTH 500 0
DWIDTH 7 0
BBX 7 14 0 -3
BITMAP
38
38
38
38
38
38
F8
F8
38
38
38
38
38
38
ENDCHAR
STARTCHAR BOX DRAWINGS DOWN LIGHT AND LEFT UP HEAVY
ENCODING 9513
SWIDTH 500 0
DWIDTH 7 0
BBX 7 14 0 -3
BITMAP
38
38
38
38
38
38
F8
F8
F8
18
18
18
18
18
ENDCHAR
STARTCHAR BOX DRAWINGS UP LIGHT AND LEFT DOWN HEAVY
ENCODING 9514
SWIDTH 500 0
DWIDTH 7 0
BBX 7 14 0 -3
BITMAP
18
18
18
18
18
18
F8
F8
F8
38
38
38
38
38
ENDCHAR
STARTCHAR BOX DRAWINGS HEAVY VERTICAL AND LEFT
ENCODING 9515
SWIDTH 500 0
DWIDTH 7 0
BBX 7 14 0 -3
BITMAP
38
38
38
38
38
38
F8
F8
F8
38
38
38
38
38
ENDCHAR
STARTCHAR BOX DRAWINGS LIGHT DOWN AND HORIZONTAL
ENCODING 9516
SWIDTH 500 0
DWIDTH 7 0
BBX 7 14 0 -3
BITMAP
00
00
00
00
00
00
FE
FE
18
18
18
18
18
18
ENDCHAR
STARTCHAR BOX DRAWINGS LEFT HEAVY AND RIGHT DOWN LIGHT
ENCODING 9517
SWIDTH 500 0
DWIDTH 7 0
BBX 7 14 0 -3
BITMAP
00
00
00
00
00
00
FE
FE
F8
18
18
18
18
18
ENDCHAR
STARTCHAR BOX DRAWINGS RIGHT HEAVY AND LEFT DOWN LIGHT
ENCODING 9518
SWIDTH 500 0
DWIDTH 7 0
BBX 7 14 0 -3
BITMAP
00
00
00
00
00
00
FE
FE
1E
18
18
18
18
18
ENDCHAR
STARTCHAR BOX DRAWINGS DOWN LIGHT AND HORIZONTAL HEAVY
ENCODING 9519
SWIDTH 500 0
DWIDTH 7 0
BBX 7 14 0 -3
BITMAP
00
00
00
00
00
00
FE
FE
FE
18
18
18
18
18
ENDCHAR
STARTCHAR BOX DRAWINGS DOWN HEAVY AND HORIZONTAL LIGHT
ENCODING 9520
SWIDTH 500 0
DWIDTH 7 0
BBX 7 14 0 -3
BITMAP
00
00
00
00
00
00
FE
FE
38
38
38
38
38
38
ENDCHAR
STARTCHAR BOX DRAWINGS RIGHT LIGHT AND LEFT DOWN HEAVY
ENCODING 9521
SWIDTH 500 0
DWIDTH 7 0
BBX 7 14 0 -3
BITMAP
00
00
00
00
00
00
FE
FE
F8
38
38
38
38
38
ENDCHAR
STARTCHAR BOX DRAWINGS LEFT LIGHT AND RIGHT DOWN HEAVY
ENCODING 9522
SWIDTH 500 0
DWIDTH 7 0
BBX 7 14 0 -3
BITMAP
00
00
00
00
00
00
FE
FE
3E
38
38
38
38
38
ENDCHAR
STARTCHAR BOX DRAWINGS HEAVY DOWN AND HORIZONTAL
ENCODING 9523
SWIDTH 500 0
DWIDTH 7 0
BBX 7 14 0 -3
BITMAP
00
00
00
00
00
00
FE
FE
FE
38
38
38
38
38
ENDCHAR
STARTCHAR BOX DRAWINGS LIGHT UP AND HORIZONTAL
ENCODING 9524
SWIDTH 500 0
DWIDTH 7 0
BBX 7 14 0 -3
BITMAP
18
18
18
18
18
18
FE
FE
00
00
00
00
00
00
ENDCHAR
STARTCHAR BOX DRAWINGS LEFT HEAVY AND RIGHT UP LIGHT
ENCODING 9525
SWIDTH 500 0
DWIDTH 7 0
BBX 7 14 0 -3
BITMAP
18
18
18
18
18
18
FE
FE
F8
00
00
00
00
00
ENDCHAR
STARTCHAR BOX DRAWINGS RIGHT HEAVY AND LEFT UP LIGHT
ENCODING 9526
SWIDTH 500 0
DWIDTH 7 0
BBX 7 14 0 -3
BITMAP
18
18
18
18
18
18
FE
FE
1E
00
00
00
00
00
ENDCHAR
STARTCHAR BOX DRAWINGS UP LIGHT AND HORIZONTAL HEAVY
ENCODING 9527
SWIDTH 500 0
DWIDTH 7 0
BBX 7 14 0 -3
BITMAP
18
18
18
18
18
18
FE
FE
FE
00
00
00
00
00
ENDCHAR
STARTCHAR BOX DRAWINGS UP HEAVY AND HORIZONTAL LIGHT
ENCODING 9528
SWIDTH 500 0
DWIDTH 7 0
BBX 7 14 0 -3
BITMAP
38
38
38
38
38
38
FE
FE
00
00
00
00
00
00
ENDCHAR
STARTCHAR BOX DRAWINGS RIGHT LIGHT AND LEFT UP HEAVY
ENCODING 9529
SWIDTH 500 0
DWIDTH 7 0
BBX 7 14 0 -3
BITMAP
38
38
38
38
38
38
FE
FE
F8
00
00
00
00
00
ENDCHAR
STARTCHAR BOX DRAWINGS LEFT LIGHT AND RIGHT UP HEAVY
ENCODING 9530
SWIDTH 500 0
DWIDTH 7 0
BBX 7 14 0 -3
BITMAP
38
38
38
38
38
38
FE
FE
3E
00
00
00
00
00
ENDCHAR
STARTCHAR BOX DRAWINGS HEAVY UP AND HORIZONTAL
ENCODING 9531
SWIDTH 500 0
DWIDTH 7 0
BBX 7 14 0 -3
BITMAP
38
38
38
38
38
38
FE
FE
FE
00
00
00
00
00
ENDCHAR
STARTCHAR BOX DRAWINGS LIGHT VERTICAL AND HORIZONTAL
ENCODING 9532
SWIDTH 500 0
DWIDTH 7 0
BBX 7 14 0 -3
BITMAP
18
18
18
18
18
18
FE
FE
18
18
18
18
18
18
ENDCHAR
STARTCHAR BOX DRAWINGS LEFT HEAVY AND RIGHT VERTICAL LIGHT
ENCODING 9533
SWIDTH 500 0
DWIDTH 7 0
BBX 7 14 0 -3
BITMAP
18
18
18
18
18
18
FE
FE
F8
18
18
18
18
18
ENDCHAR
STARTCHAR BOX DRAWINGS RIGHT HEAVY AND LEFT VERTICAL LIGHT
ENCODING 9534
SWIDTH 500 0
DWIDTH 7 0
BBX 7 14 0 -3
BITMAP
18
18
18
18
18
18
FE
FE
1E
18
18
18
18
18
ENDCHAR
STARTCHAR BOX DRAWINGS VERTICAL LIGHT AND HORIZONTAL HEAVY
ENCODING 9535
SWIDTH 500 0
DWIDTH 7 0
BBX 7 14 0 -3
BITMAP
18
18
18
18
18
18
FE
FE
FE
18
18
18
18
18
ENDCHAR
STARTCHAR BOX DRAWINGS UP HEAVY AND DOWN HORIZONTAL LIGHT
ENCODING 9536
SWIDTH 500 0
DWIDTH 7 0
BBX 7 14 0 -3
BITMAP
38
38
38
38
38
38
FE
FE
18
18
18
18
18
18
ENDCHAR
STARTCHAR BOX DRAWINGS DOWN HEAVY AND UP HORIZONTAL LIGHT
ENCODING 9537
SWIDTH 500 0
DWIDTH 7 0
BBX 7 14 0 -3
BITMAP
18
18
18
18
18
18
FE
FE
38
38
38
38
38
38
ENDCHAR
STARTCHAR BOX DRAWINGS VERTICAL HEAVY AND HORIZONTAL LIGHT
ENCODING 9538
SWIDTH 500 0
DWIDTH 7 0
BBX 7 14 0 -3
BITMAP
38
38
38
38
38
38
FE
FE
38
38
38
38
38
38
ENDCHAR
STARTCHAR BOX DRAWINGS LEFT UP HEAVY AND RIGHT DOWN LIGHT
ENCODING 9539
SWIDTH 500 0
DWIDTH 7 0
BBX 7 14 0 -3
BITMAP
38
38
38
38
38
38
FE
FE
F8
18
18
18
18
18
ENDCHAR
STARTCHAR BOX DRAWINGS RIGHT UP HEAVY AND LEFT DOWN LIGHT
ENCODING 9540
SWIDTH 500 0
DWIDTH 7 0
BBX 7 14 0 -3
BITMAP
38
38
38
38
38
38
FE
FE
1E
18
18
18
18
18
ENDCHAR
STARTCHAR BOX DRAWINGS LEFT DOWN HEAVY AND RIGHT UP LIGHT
ENCODING 9541
SWIDTH 500 0
DWIDTH 7 0
BBX 7 14 0 -3
BITMAP
18
18
18
18
18
18
FE
FE
F8
38
38
38
38
38
ENDCHAR
STARTCHAR BOX DRAWINGS RIGHT DOWN HEAVY AND LEFT UP LIGHT
ENCODING 9542
SWIDTH 500 0
DWIDTH 7 0
BBX 7 14 0 -3
BITMAP
18
18
18
18
18
18
FE
FE
3E
38
38
38
38
38
ENDCHAR
STARTCHAR BOX DRAWINGS DOWN LIGHT AND UP HORIZONTAL HEAVY
ENCODING 9543
SWIDTH 500 0
DWIDTH 7 0
BBX 7 14 0 -3
BITMAP
38
38
38
38
38
38
FE
FE
FE
18
18
18
18
18
ENDCHAR
STARTCHAR BOX DRAWINGS UP LIGHT AND DOWN HORIZONTAL HEAVY
ENCODING 9544
SWIDTH 500 0
DWIDTH 7 0
BBX 7 14 0 -3
BITMAP
18
18
18
18
18
18
FE
FE
FE
38
38
38
38
38
ENDCHAR
STARTCHAR BOX DRAWINGS RIGHT LIGHT AND LEFT VERTICAL HEAVY
ENCODING 9545
SWIDTH 500 0
DWIDTH 7 0
BBX 7 14 0 -3
BITMAP
38
38
38
38
38
38
FE
FE
F8
38
38
38
38
38
ENDCHAR
STARTCHAR BOX DRAWINGS LEFT LIGHT AND RIGHT VERTICAL HEAVY
ENCODING 9546
SWIDTH 500 0
DWIDTH 7 0
BBX 7 14 0 -3
BITMAP
38
38
38
38
38
38
FE
FE
3E
38
38
38
38
38
ENDCHAR
STARTCHAR BOX DRAWINGS HEAVY VERTICAL AND HORIZONTAL
ENCODING 9547
SWIDTH 500 0
DWIDTH 7 0
BBX 7 14 0 -3
BITMAP
38
38
38
38
38
38
FE
FE
FE
38
38
38
38
38
ENDCHAR
STARTCHAR BOX DRAWINGS LIGHT DOUBLE DASH HORIZONTAL
ENCODING 9548
SWIDTH 500 0
DWIDTH 7 0
BBX 7 14 0 -3
BITMAP
00
00
00
00
00
00
6E
6E
00
00
00
00
00
00
ENDCHAR
STARTCHAR BOX DRAWINGS HEAVY DOUBLE DASH HORIZONTAL
ENCODING 9549
SWIDTH 500 0
DWIDTH 7 0
BBX 7 14 0 -3
BITMAP
00
00
00
00
00
00
6E
6E
6E
00
00
00
00
00
ENDCHAR
STARTCHAR BOX DRAWINGS LIGHT DOUBLE DASH VERTICAL
ENCODING 9550
SWIDTH 500 0
DWIDTH 7 0
BBX 7 14 0 -3
BITMAP
00
18
18
18
18
18
00
00
18
18
18
18
18
00
ENDCHAR
STARTCHAR BOX DRAWINGS HEAVY DOUBLE DASH VERTICAL
ENCODING 9551
SWIDTH 500 0
DWIDTH 7 0
BBX 7 14 0 -3
BITMAP
00
38
38
38
38
38
00
00
38
38
38
38
38
00
ENDCHAR
STARTCHAR BOX DRAWINGS DOUBLE HORIZONTAL
ENCODING 9552
SWIDTH 500 0
DWIDTH 7 0
BBX 7 14 0 -3
BITMAP
00
00
00
00
00
FE
FE
00
FE
FE
00
00
00
00
ENDCHAR
STARTCHAR BOX DRAWINGS DOUBLE VERTICAL
ENCODING 9553
SWIDTH 500 0
DWIDTH 7 0
BBX 7 14 0 -3
BITMAP
6C
6C
6C
6C
6C
6C
6C
6C
6C
6C
6C
6C
6C
6C
ENDCHAR
STARTCHAR BOX DRAWINGS DOWN SINGLE AND RIGHT DOUBLE
ENCODING 9554
SWIDTH 500 0
DWIDTH 7 0
BBX 7 14 0 -3
BITMAP
00
00
00
00
00
1E
1E
18
1E
1E
18
18
18
18
ENDCHAR
STARTCHAR BOX DRAWINGS DOWN DOUBLE AND RIGHT SINGLE
ENCODING 9555
SWIDTH 500 0
DWIDTH 7 0
BBX 7 14 0 -3
BITMAP
00
00
00
00
00
00
7E
7E
6C
6C
6C
6C
6C
6C
ENDCHAR
STARTCHAR BOX DRAWINGS DOUBLE DOWN AND RIGHT
ENCODING 9556
SWIDTH 500 0
DWIDTH 7 0
BBX 7 14 0 -3
BITMAP
00
00
00
00
00
7E
7E
60
6E
6E
6C
6C
6C
6C
ENDCHAR
STARTCHAR BOX DRAWINGS DOWN SINGLE AND LEFT DOUBLE
ENCODING 9557
SWIDTH 500 0
DWIDTH 7 0
BBX 7 14 0 -3
BITMAP
00
00
00
00
00
F8
F8
18
F8
F8
18
18
18
18
ENDCHAR
STARTCHAR BOX DRAWINGS DOWN DOUBLE AND LEFT SINGLE
ENCODING 9558
SWIDTH 500 0
DWIDTH 7 0
BBX 7 14 0 -3
BITMAP
00
00
00
00
00
00
FC
FC
6C
6C
6C
6C
6C
6C
ENDCHAR
STARTCHAR BOX DRAWINGS DOUBLE DOWN AND LEFT
ENCODING 9559
SWIDTH 500 0
DWIDTH 7 0
BBX 7 14 0 -3
BITMAP
00
00
00
00
00
FC
FC
0C
EC
EC
6C
6C
6C
6C
ENDCHAR
STARTCHAR BOX DRAWINGS UP SINGLE AND RIGHT DOUBLE
ENCODING 9560
SWIDTH 500 0
DWIDTH 7 0
BBX 7 14 0 -3
BITMAP
18
18
18
18
18
1E
1E
18
1E
1E
00
00
00
00
ENDCHAR
STARTCHAR BOX DRAWINGS UP DOUBLE AND RIGHT SINGLE
ENCODING 9561
SWIDTH 500 0
DWIDTH 7 0
BBX 7 14 0 -3
BITMAP
6C
6C
6C
6C
6C
6C
7E
7E
00
00
00
00
00
00
ENDCHAR
STARTCHAR BOX DRAWINGS DOUBLE UP AND RIGHT
ENCODING 9562
SWIDTH 500 0
DWIDTH 7 0
BBX 7 14 0 -3
BITMAP
6C
6C
6C
6C
6C
6E
6E
60
7E
7E
00
00
00
00
ENDCHAR
STARTCHAR BOX DRAWINGS UP SINGLE AND LEFT DOUBLE
ENCODING 9563
SWIDTH 500 0
DWIDTH 7 0
BBX 7 14 0 -3
BITMAP
18
18
18
18
18
F8
F8
18
F8
F8
00
00
00
00
ENDCHAR
STARTCHAR BOX DRAWINGS UP DOUBLE AND LEFT SINGLE
ENCODING 9564
SWIDTH 500 0
DWIDTH 7 0
BBX 7 14 0 -3
BITMAP
6C
6C
6C
6C
6C
6C
FC
FC
00
00
00
00
00
00
ENDCHAR
STARTCHAR BOX DRAWINGS DOUBLE UP AND LEFT
ENCODING 9565
SWIDTH 500 0
DWIDTH 7 0
BBX 7 14 0 -3
BITMAP
6C
6C
6C
6C
6C
EC
EC
0C
FC
FC
00
00
00
00
ENDCHAR
STARTCHAR BOX DRAWINGS VERTICAL SINGLE AND RIGHT DOUBLE
ENCODING 9566
SWIDTH 500 0
DWIDTH 7 0
BBX 7 14 0 -3
BITMAP
18
18
18
18
18
1E
1E
18
1E
1E
18
18
18
18
ENDCHAR
STARTCHAR BOX DRAWINGS VERTICAL DOUBLE AND RIGHT SINGLE
ENCODING 9567
SWIDTH 500 0
DWIDTH 7 0
BBX 7 14 0 -3
BITMAP
6C
6C
6C
6C
6C
6C
6E
6E
6C
6C
6C
6C
6C
6C
ENDCHAR
STARTCHAR BOX DRAWINGS DOUBLE VERTICAL AND RIGHT
ENCODING 9568
SWIDTH 500 0
DWIDTH 7 0
BBX 7 14 0 -3
BITMAP
6C
6C
6C
6C
6C
6E
6E
60
6E
6E
6C
6C
6C
6C
ENDCHAR
STARTCHAR BOX DRAWINGS VERTICAL SINGLE AND LEFT DOUBLE
ENCODING 9569
SWIDTH 500 0
DWIDTH 7 0
BBX 7 14 0 -3
BITMAP
18
18
18
18
18
F8
F8
18
F8
F8
18
18
18
18
ENDCHAR
STARTCHAR BOX DRAWINGS VERTICAL DOUBLE AND LEFT SINGLE
ENCODING 9570
SWIDTH 500 0
DWIDTH 7 0
BBX 7 14 0 -3
BITMAP
6C
6C
6C
6C
6C
6C
EC
EC
6C
6C
6C
6C
6C
6C
ENDCHAR
STARTCHAR BOX DRAWINGS DOUBLE VERTICAL AND LEFT
ENCODING 9571
SWIDTH 500 0
DWIDTH 7 0
BBX 7 14 0 -3
BITMAP
6C
6C
6C
6C
6C
EC
EC
0C
EC
EC
6C
6C
6C
6C
ENDCHAR
STARTCHAR BOX DRAWINGS DOWN SINGLE AND HORIZONTAL DOUBLE
ENCODING 9572
SWIDTH 500 0
DWIDTH 7 0
BBX 7 14 0 -3
BITMAP
00
00
00
00
00
FE
FE
00
FE
FE
18
18
18
18
ENDCHAR
STARTCHAR BOX DRAWINGS DOWN DOUBLE AND HORIZONTAL SINGLE
ENCODING 9573
SWIDTH 500 0
DWIDTH 7 0
BBX 7 14 0 -3
BITMAP
00
00
00
00
00
00
FE
FE
6C
6C
6C
6C
6C
6C
ENDCHAR
STARTCHAR BOX DRAWINGS DOUBLE DOWN AND HORIZONTAL
ENCODING 9574
SWIDTH 500 0
DWIDTH 7 0
BBX 7 14 0 -3
BITMAP
00
00
00
00
00
FE
FE
00
EE
EE
6C
6C
6C
6C
ENDCHAR
STARTCHAR BOX DRAWINGS UP SINGLE AND HORIZONTAL DOUBLE
ENCODING 9575
SWIDTH 500 0
DWIDTH 7 0
BBX 7 14 0 -3
BITMAP
18
18
18
18
18
FE
FE
00
FE
FE
00
00
00
00
ENDCHAR
STARTCHAR BOX DRAWINGS UP DOUBLE AND HORIZONTAL SINGLE
ENCODING 9576
SWIDTH 500 0
DWIDTH 7 0
BBX 7 14 0 -3
BITMAP
6C
6C
6C
6C
6C
6C
FE
FE
00
00
00
00
00
00
ENDCHAR
STARTCHAR BOX DRAWINGS DOUBLE UP AND HORIZONTAL
ENCODING 9577
SWIDTH 500 0
DWIDTH 7 0
BBX 7 14 0 -3
BITMAP
6C
6C
6C
6C
6C
EE
EE
00
FE
FE
00
00
00
00
ENDCHAR
STARTCHAR BOX DRAWINGS VERTICAL SINGLE AND HORIZONTAL DOUBLE
ENCODING 9578
SWIDTH 500 0
DWIDTH 7 0
BBX 7 14 0 -3
BITMAP
18
18
18
18
18
FE
FE
00
FE
FE
18
18
18
18
ENDCHAR
STARTCHAR BOX DRAWINGS VERTICAL DOUBLE AND HORIZONTAL SINGLE
ENCODING 9579
SWIDTH 500 0
DWIDTH 7 0
BBX 7 14 0 -3
BITMAP
6C
6C
6C
6C
6C
6C
EE
EE
6C
6C
6C
6C
6C
6C
ENDCHAR
STARTCHAR BOX DRAWINGS DOUBLE VERTICAL AND HORIZONTAL
ENCODING 9580
SWIDTH 500 0
DWIDTH 7 0
BBX 7 14 0 -3
BITMAP
6C
6C
6C
6C
6C
EE
EE
00
EE
EE
6C
6C
6C
6C
ENDCHAR
STARTCHAR BOX DRAWINGS LIGHT ARC DOWN AND RIGHT
ENCODING 9581
SWIDTH 500 0
DWIDTH 7 0
BBX 7 14 0 -3
BITMAP
00
00
00
00
00
00
02
0E
0E
1C
18
18
18
18
ENDCHAR
STARTCHAR BOX DRAWINGS LIGHT ARC DOWN AND LEFT
ENCODING 9582
SWIDTH 500 0
DWIDTH 7 0
BBX 7 14 0 -3
BITMAP
00
00
00
00
00
00
00
C0
F0
70
38
18
18
18
ENDCHAR
STARTCHAR BOX DRAWINGS LIGHT ARC UP AND LEFT
ENCODING 9583
SWIDTH 500 0
DWIDTH 7 0
BBX 7 14 0 -3
BITMAP
18
18
18
18
38
70
F0
C0
00
00
00
00
00
00
ENDCHAR
STARTCHAR BOX DRAWINGS LIGHT ARC UP AND RIGHT
ENCODING 9584
SWIDTH 500 0
DWIDTH 7 0
BBX 7 14 0 -3
BITMAP
18
18
18
18
1C
0E
0E
02
00
00
00
00
00
00
ENDCHAR
STARTCHAR BOX DRAWINGS LIGHT DIAGONAL UPPER RIGHT TO LOWER LEFT
ENCODING 9585
SWIDTH 500 0
DWIDTH 7 0
BBX 7 14 0 -3
BITMAP
02
06
06
0C
0C
18
18
30
30
60
60
C0
C0
80
ENDCHAR
STARTCHAR BOX DRAWINGS LIGHT DIAGONAL UPPER LEFT TO LOWER RIGHT
ENCODING 9586
SWIDTH 500 0
DWIDTH 7 0
BBX 7 14 0 -3
BITMAP
80
C0
C0
60
60
30
30
18
18
0C
0C
06
06
02
ENDCHAR
STARTCHAR BOX DRAWINGS LIGHT DIAGONAL CROSS
ENCODING 9587
SWIDTH 500 0
DWIDTH 7 0
BBX 7 14 0 -3
BITMAP
82
C6
C6
6C
6C
38
38
38
38
6C
6C
C6
C6
82
ENDCHAR
STARTCHAR BOX DRAWINGS LIGHT LEFT
ENCODING 9588
SWIDTH 500 0
DWIDTH 7 0
BBX 7 14 0 -3
BITMAP
00
00
00
00
00
00
F0
F0
00
00
00
00
00
00
ENDCHAR
STARTCHAR BOX DRAWINGS LIGHT UP
ENCODING 9589
SWIDTH 500 0
DWIDTH 7 0
BBX 7 14 0 -3
BITMAP
18
18
18
18
18
18
18
00
00
00
00
00
00
00
ENDCHAR
STARTCHAR BOX DRAWINGS LIGHT RIGHT
ENCODING 9590
SWIDTH 500 0
DWIDTH 7 0
BBX 7 14 0 -3
BITMAP
00
00
00
00
00
00
0E
0E
00
00
00
00
00
00
ENDCHAR
STARTCHAR BOX DRAWINGS LIGHT DOWN
ENCODING 9591
SWIDTH 500 0
DWIDTH 7 0
BBX 7 14 0 -3
BITMAP
00
00
00
00
00
00
00
18
18
18
18
18
18
18
ENDCHAR
STARTCHAR BOX DRAWINGS HEAVY LEFT
ENCODING 9592
SWIDTH 500 0
DWIDTH 7 0
BBX 7 14 0 -3
BITMAP
00
00
00
00
00
00
F0
F0
F0
00
00
00
00
00
ENDCHAR
STARTCHAR BOX DRAWINGS HEAVY UP
ENCODING 9593
SWIDTH 500 0
DWIDTH 7 0
BBX 7 14 0 -3
BITMAP
38
38
38
38
38
38
38
00
00
00
00
00
00
00
ENDCHAR
STARTCHAR BOX DRAWINGS HEAVY RIGHT
ENCODING 9594
SWIDTH 500 0
DWIDTH 7 0
BBX 7 14 0 -3
BITMAP
00
00
00
00
00
00
0E
0E
0E
00
00
00
00
00
ENDCHAR
STARTCHAR BOX DRAWINGS HEAVY DOWN
ENCODING 9595
SWIDTH 500 0
DWIDTH 7 0
BBX 7 14 0 -3
BITMAP
00
00
00
00
00
00
00
38
38
38
38
38
38
38
ENDCHAR
STARTCHAR BOX DRAWINGS LIGHT LEFT AND HEAVY RIGHT
ENCODING 9596
SWIDTH 500 0
DWIDTH 7 0
BBX 7 14 0 -3
BITMAP
00
00
00
00
00
00
FE
FE
0E
00
00
00
00
00
ENDCHAR
STARTCHAR BOX DRAWINGS LIGHT UP AND HEAVY DOWN
ENCODING 9597
SWIDTH 500 0
DWIDTH 7 0
BBX 7 14 0 -3
BITMAP
18
18
18
18
18
18
18
38
38
38
38
38
38
38
ENDCHAR
STARTCHAR BOX DRAWINGS HEAVY LEFT AND LIGHT RIGHT
ENCODING 9598
SWIDTH 500 0
DWIDTH 7 0
BBX 7 14 0 -3
BITMAP
00
00
00
00
00
00
FE
FE
F0
00
00
00
00
00
ENDCHAR
STARTCHAR BOX DRAWINGS HEAVY UP AND LIGHT DOWN
ENCODING 9599
SWIDTH 500 0
DWIDTH 7 0
BBX 7 14 0 -3
BITMAP
38
38
38
38
38
38
38
18
18
18
18
18
18
18
ENDCHAR
STARTCHAR UPPER HALF BLOCK
ENCODING 9600
SWIDTH 500 0
DWIDTH 7 0
BBX 7 14 0 -3
BITMAP
FE
FE
FE
FE
FE
FE
FE
00
00
00
00
00
00
00
ENDCHAR
STARTCHAR LOWER ONE EIGHTH BLOCK
ENCODING 9601
SWIDTH 500 0
DWIDTH 7 0
BBX 7 14 0 -3
BITMAP
00
00
00
00
00
00
00
00
00
00
00
00
FE
FE
ENDCHAR
STARTCHAR LOWER ONE QUARTER BLOCK
ENCODING 9602
SWIDTH 500 0
DWIDTH 7 0
BBX 7 14 0 -3
BITMAP
00
00
00
00
00
00
00
00
00
00
FE
FE
FE
FE
ENDCHAR
STARTCHAR LOWER THREE EIGHTHS BLOCK
ENCODING 9603
SWIDTH 500 0
DWIDTH 7 0
BBX 7 14 0 -3
BITMAP
00
00
00
00
00
00
00
00
00
FE
FE
FE
FE
FE
ENDCHAR
STARTCHAR LOWER HALF BLOCK
ENCODING 9604
SWIDTH 500 0
DWIDTH 7 0
BBX 7 14 0 -3
BITMAP
00
00
00
00
00
00
00
FE
FE
FE
FE
FE
FE
FE
ENDCHAR
STARTCHAR LOWER FIVE EIGHTHS BLOCK
ENCODING 9605
SWIDTH 500 0
DWIDTH 7 0
BBX 7 14 0 -3
BITMAP
00
00
00
00
00
FE
FE
FE
FE
FE
FE
FE
FE
FE
ENDCHAR
STARTCHAR LOWER THREE QUARTERS BLOCK
ENCODING 9606
SWIDTH 500 0
DWIDTH 7 0
BBX 7 14 0 -3
BITMAP
00
00
00
FE
FE
FE
FE
FE
FE
FE
FE
FE
FE
FE
ENDCHAR
STARTCHAR LOWER SEVEN EIGHTHS BLOCK
ENCODING 9607
SWIDTH 500 0
DWIDTH 7 0
BBX 7 14 0 -3
BITMAP
00
00
FE
FE
FE
FE
FE
FE
FE
FE
FE
FE
FE
FE
ENDCHAR
STARTCHAR FULL BLOCK
ENCODING 9608
SWIDTH 500 0
DWIDTH 7 0
BBX 7 14 0 -3
BITMAP
FE
FE
FE
FE
FE
FE
FE
FE
FE
FE
FE
FE
FE
FE
ENDCHAR
STARTCHAR LEFT SEVEN EIGHTHS BLOCK
ENCODING 9609
SWIDTH 500 0
DWIDTH 7 0
BBX 7 14 0 -3
BITMAP
FC
FC
FC
FC
FC
FC
FC
FC
FC
FC
FC
FC
FC
FC
ENDCHAR
STARTCHAR LEFT THREE QUARTERS BLOCK
ENCODING 9610
SWIDTH 500 0
DWIDTH 7 0
BBX 7 14 0 -3
BITMAP
F8
F8
F8
F8
F8
F8
F8
F8
F8
F8
F8
F8
F8
F8
ENDCHAR
STARTCHAR LEFT FIVE EIGHTHS BLOCK
ENCODING 9611
SWIDTH 500 0
DWIDTH 7 0
BBX 7 14 0 -3
BITMAP
F0
F8
F0
F8
F0
F8
F0
F8
F0
F8
F0
F8
F0
F8
ENDCHAR
STARTCHAR LEFT HALF BLOCK
ENCODING 9612
SWIDTH 500 0
DWIDTH 7 0
BBX 7 14 0 -3
BITMAP
F0
F0
F0
F0
F0
F0
F0
F0
F0
F0
F0
F0
F0
F0
ENDCHAR
STARTCHAR LEFT THREE EIGHTHS BLOCK
ENCODING 9613
SWIDTH 500 0
DWIDTH 7 0
BBX 7 14 0 -3
BITMAP
E0
E0
E0
E0
E0
E0
E0
E0
E0
E0
E0
E0
E0
E0
ENDCHAR
STARTCHAR LEFT ONE QUARTER BLOCK
ENCODING 9614
SWIDTH 500 0
DWIDTH 7 0
BBX 7 14 0 -3
BITMAP
C0
C0
C0
C0
C0
C0
C0
C0
C0
C0
C0
C0
C0
C0
ENDCHAR
STARTCHAR LEFT ONE EIGHTH BLOCK
ENCODING 9615
SWIDTH 500 0
DWIDTH 7 0
BBX 7 14 0 -3
BITMAP
80
80
80
80
80
80
80
80
80
80
80
80
80
80
ENDCHAR
STARTCHAR RIGHT HALF BLOCK
ENCODING 9616
SWIDTH 500 0
DWIDTH 7 0
BBX 7 14 0 -3
BITMAP
0E
0E
0E
0E
0E
0E
0E
0E
0E
0E
0E
0E
0E
0E
ENDCHAR
STARTCHAR LIGHT SHADE
ENCODING 9617
SWIDTH 500 0
DWIDTH 7 0
BBX 7 14 0 -3
BITMAP
22
88
22
88
22
88
22
88
22
88
22
88
22
88
ENDCHAR
STARTCHAR MEDIUM SHADE
ENCODING 9618
SWIDTH 500 0
DWIDTH 7 0
BBX 7 14 0 -3
BITMAP
54
AA
54
AA
54
AA
54
AA
54
AA
54
AA
54
AA
ENDCHAR
STARTCHAR DARK SHADE
ENCODING 9619
SWIDTH 500 0
DWIDTH 7 0
BBX 7 14 0 -3
BITMAP
76
DC
76
DC
76
DC
76
DC
76
DC
76
DC
76
DC
ENDCHAR
STARTCHAR UPPER ONE EIGHTH BLOCK
ENCODING 9620
SWIDTH 500 0
DWIDTH 7 0
BBX 7 14 0 -3
BITMAP
FE
FE
00
00
00
00
00
00
00
00
00
00
00
00
ENDCHAR
STARTCHAR RIGHT ONE EIGHTH BLOCK
ENCODING 9621
SWIDTH 500 0
DWIDTH 7 0
BBX 7 14 0 -3
BITMAP
02
02
02
02
02
02
02
02
02
02
02
02
02
02
ENDCHAR
STARTCHAR QUADRANT LOWER LEFT
ENCODING 9622
SWIDTH 500 0
DWIDTH 7 0
BBX 7 14 0 -3
BITMAP
00
00
00
00
00
00
00
F0
F0
F0
F0
F0
F0
F0
ENDCHAR
STARTCHAR QUADRANT LOWER RIGHT
ENCODING 9623
SWIDTH 500 0
DWIDTH 7 0
BBX 7 14 0 -3
BITMAP
00
00
00
00
00
00
00
0E
0E
0E
0E
0E
0E
0E
ENDCHAR
STARTCHAR QUADRANT UPPER LEFT
ENCODING 9624
SWIDTH 500 0
DWIDTH 7 0
BBX 7 14 0 -3
BITMAP
F0
F0
F0
F0
F0
F0
F0
00
00
00
00
00
00
00
ENDCHAR
STARTCHAR QUADRANT UPPER LEFT AND LOWER LEFT AND LOWER RIGHT
ENCODING 9625
SWIDTH 500 0
DWIDTH 7 0
BBX 7 14 0 -3
BITMAP
F0
F0
F0
F0
F0
F0
F0
FE
FE
FE
FE
FE
FE
FE
ENDCHAR
STARTCHAR QUADRANT UPPER LEFT AND LOWER RIGHT
ENCODING 9626
SWIDTH 500 0
DWIDTH 7 0
BBX 7 14 0 -3
BITMAP
F0
F0
F0
F0
F0
F0
F0
0E
0E
0E
0E
0E
0E
0E
ENDCHAR
STARTCHAR QUADRANT UPPER LEFT AND UPPER RIGHT AND LOWER LEFT
ENCODING 9627
SWIDTH 500 0
DWIDTH 7 0
BBX 7 14 0 -3
BITMAP
FE
FE
FE
FE
FE
FE
FE
F0
F0
F0
F0
F0
F0
F0
ENDCHAR
STARTCHAR QUADRANT UPPER LEFT AND UPPER RIGHT AND LOWER RIGHT
ENCODING 9628
SWIDTH 500 0
DWIDTH 7 0
BBX 7 14 0 -3
BITMAP
FE
FE
FE
FE
FE
FE
FE
0E
0E
0E
0E
0E
0E
0E
ENDCHAR
STARTCHAR QUADRANT UPPER RIGHT
ENCODING 9629
SWIDTH 500 0
DWIDTH 7 0
BBX 7 14 0 -3
BITMAP
0E
0E
0E
0E
0E
0E
0E
00
00
00
00
00
00
00
ENDCHAR
STARTCHAR QUADRANT UPPER RIGHT AND LOWER LEFT
ENCODING 9630
SWIDTH 500 0
DWIDTH 7 0
BBX 7 14 0 -3
BITMAP
0E
0E
0E
0E
0E
0E
0E
F0
F0
F0
F0
F0
F0
F0
ENDCHAR
STARTCHAR QUADRANT UPPER RIGHT AND LOWER LEFT AND LOWER RIGHT
ENCODING 9631
SWIDTH 500 0
DWIDTH 7 0
BBX 7 14 0 -3
BITMAP
0E
0E
0E
0E
0E
0E
0E
FE
FE
FE
FE
FE
FE
FE
ENDCHAR
STARTCHAR BLACK SQUARE
ENCODING 9632
SWIDTH 500 0
DWIDTH 7 0
BBX 7 14 0 -3
BITMAP
00
00
00
00
00
7C
7C
7C
7C
7C
00
00
00
00
ENDCHAR
STARTCHAR WHITE SQUARE
ENCODING 9633
SWIDTH 500 0
DWIDTH 7 0
BBX 7 14 0 -3
BITMAP
00
00
00
00
00
7C
44
44
44
7C
00
00
00
00
ENDCHAR
STARTCHAR WHITE SQUARE WITH ROUNDED CORNERS
ENCODING 9634
SWIDTH 500 0
DWIDTH 7 0
BBX 7 14 0 -3
BITMAP
00
00
00
00
00
38
44
44
44
38
00
00
00
00
ENDCHAR
STARTCHAR WHITE SQUARE CONTAINING BLACK SMALL SQUARE
ENCODING 9635
SWIDTH 500 0
DWIDTH 7 0
BBX 7 14 0 -3
BITMAP
00
00
00
00
00
7C
44
54
44
7C
00
00
00
00
ENDCHAR
STARTCHAR SQUARE WITH HORIZONTAL FILL
ENCODING 9636
SWIDTH 500 0
DWIDTH 7 0
BBX 7 14 0 -3
BITMAP
00
00
00
00
00
7C
44
7C
44
7C
00
00
00
00
ENDCHAR
STARTCHAR SQUARE WITH VERTICAL FILL
ENCODING 9637
SWIDTH 500 0
DWIDTH 7 0
BBX 7 14 0 -3
BITMAP
00
00
00
00
00
7C
54
54
54
7C
00
00
00
00
ENDCHAR
STARTCHAR SQUARE WITH ORTHOGONAL CROSSHATCH FILL
ENCODING 9638
SWIDTH 500 0
DWIDTH 7 0
BBX 7 14 0 -3
BITMAP
00
00
00
00
00
7C
54
7C
54
7C
00
00
00
00
ENDCHAR
STARTCHAR SQUARE WITH UPPER LEFT TO LOWER RIGHT FILL
ENCODING 9639
SWIDTH 500 0
DWIDTH 7 0
BBX 7 14 0 -3
BITMAP
00
00
00
00
00
7C
64
54
4C
7C
00
00
00
00
ENDCHAR
STARTCHAR SQUARE WITH UPPER RIGHT TO LOWER LEFT FILL
ENCODING 9640
SWIDTH 500 0
DWIDTH 7 0
BBX 7 14 0 -3
BITMAP
00
00
00
00
00
7C
4C
54
64
7C
00
00
00
00
ENDCHAR
STARTCHAR SQUARE WITH DIAGONAL CROSSHATCH FILL
ENCODING 9641
SWIDTH 500 0
DWIDTH 7 0
BBX 7 14 0 -3
BITMAP
00
00
00
00
00
7C
54
6C
54
7C
00
00
00
00
ENDCHAR
STARTCHAR BLACK SMALL SQUARE
ENCODING 9642
SWIDTH 500 0
DWIDTH 7 0
BBX 7 14 0 -3
BITMAP
00
00
00
00
00
00
38
38
38
00
00
00
00
00
ENDCHAR
STARTCHAR WHITE SMALL SQUARE
ENCODING 9643
SWIDTH 500 0
DWIDTH 7 0
BBX 7 14 0 -3
BITMAP
00
00
00
00
00
00
38
28
38
00
00
00
00
00
ENDCHAR
STARTCHAR BLACK RECTANGLE
ENCODING 9644
SWIDTH 500 0
DWIDTH 7 0
BBX 7 14 0 -3
BITMAP
00
00
00
00
00
00
7C
7C
7C
00
00
00
00
00
ENDCHAR
STARTCHAR WHITE RECTANGLE
ENCODING 9645
SWIDTH 500 0
DWIDTH 7 0
BBX 7 14 0 -3
BITMAP
00
00
00
00
00
00
7C
44
7C
00
00
00
00
00
ENDCHAR
STARTCHAR BLACK VERTICAL RECTANGLE
ENCODING 9646
SWIDTH 500 0
DWIDTH 7 0
BBX 7 14 0 -3
BITMAP
00
00
00
00
00
38
38
38
38
38
00
00
00
00
ENDCHAR
STARTCHAR WHITE VERTICAL RECTANGLE
ENCODING 9647
SWIDTH 500 0
DWIDTH 7 0
BBX 7 14 0 -3
BITMAP
00
00
00
00
00
38
28
28
28
38
00
00
00
00
ENDCHAR
STARTCHAR BLACK PARALLELOGRAM
ENCODING 9648
SWIDTH 500 0
DWIDTH 7 0
BBX 7 14 0 -3
BITMAP
00
00
00
00
00
00
7E
7C
FC
00
00
00
00
00
ENDCHAR
STARTCHAR WHITE PARALLELOGRAM
ENCODING 9649
SWIDTH 500 0
DWIDTH 7 0
BBX 7 14 0 -3
BITMAP
00
00
00
00
00
00
7E
44
FC
00
00
00
00
00
ENDCHAR
STARTCHAR BLACK UP-POINTING TRIANGLE
ENCODING 9650
SWIDTH 500 0
DWIDTH 7 0
BBX 7 14 0 -3
BITMAP
00
00
00
00
10
10
38
38
7C
7C
00
00
00
00
ENDCHAR
STARTCHAR WHITE UP-POINTING TRIANGLE
ENCODING 9651
SWIDTH 500 0
DWIDTH 7 0
BBX 7 14 0 -3
BITMAP
00
00
00
00
10
10
28
28
44
7C
00
00
00
00
ENDCHAR
STARTCHAR BLACK UP-POINTING SMALL TRIANGLE
ENCODING 9652
SWIDTH 500 0
DWIDTH 7 0
BBX 7 14 0 -3
BITMAP
00
00
00
00
00
00
10
10
38
00
00
00
00
00
ENDCHAR
STARTCHAR WHITE UP-POINTING SMALL TRIANGLE
ENCODING 9653
SWIDTH 500 0
DWIDTH 7 0
BBX 7 14 0 -3
BITMAP
00
00
00
00
00
00
10
28
38
00
00
00
00
00
ENDCHAR
STARTCHAR BLACK RIGHT-POINTING TRIANGLE
ENCODING 9654
SWIDTH 500 0
DWIDTH 7 0
BBX 7 14 0 -3
BITMAP
00
00
00
00
00
60
78
7E
78
60
00
00
00
00
ENDCHAR
STARTCHAR WHITE RIGHT-POINTING TRIANGLE
ENCODING 9655
SWIDTH 500 0
DWIDTH 7 0
BBX 7 14 0 -3
BITMAP
00
00
00
00
00
60
58
46
58
60
00
00
00
00
ENDCHAR
STARTCHAR BLACK RIGHT-POINTING SMALL TRIANGLE
ENCODING 9656
SWIDTH 500 0
DWIDTH 7 0
BBX 7 14 0 -3
BITMAP
00
00
00
00
00
00
20
38
20
00
00
00
00
00
ENDCHAR
STARTCHAR WHITE RIGHT-POINTING SMALL TRIANGLE
ENCODING 9657
SWIDTH 500 0
DWIDTH 7 0
BBX 7 14 0 -3
BITMAP
00
00
00
00
00
00
30
28
30
00
00
00
00
00
ENDCHAR
STARTCHAR BLACK RIGHT-POINTING POINTER
ENCODING 9658
SWIDTH 500 0
DWIDTH 7 0
BBX 7 14 0 -3
BITMAP
00
00
00
00
00
00
70
7C
70
00
00
00
00
00
ENDCHAR
STARTCHAR WHITE RIGHT-POINTING POINTER
ENCODING 9659
SWIDTH 500 0
DWIDTH 7 0
BBX 7 14 0 -3
BITMAP
00
00
00
00
00
00
70
4C
70
00
00
00
00
00
ENDCHAR
STARTCHAR BLACK DOWN-POINTING TRIANGLE
ENCODING 9660
SWIDTH 500 0
DWIDTH 7 0
BBX 7 14 0 -3
BITMAP
00
00
00
00
00
7C
7C
38
38
10
10
00
00
00
ENDCHAR
STARTCHAR WHITE DOWN-POINTING TRIANGLE
ENCODING 9661
SWIDTH 500 0
DWIDTH 7 0
BBX 7 14 0 -3
BITMAP
00
00
00
00
00
7C
44
28
28
10
10
00
00
00
ENDCHAR
STARTCHAR BLACK DOWN-POINTING SMALL TRIANGLE
ENCODING 9662
SWIDTH 500 0
DWIDTH 7 0
BBX 7 14 0 -3
BITMAP
00
00
00
00
00
00
38
10
10
00
00
00
00
00
ENDCHAR
STARTCHAR WHITE DOWN-POINTING SMALL TRIANGLE
ENCODING 9663
SWIDTH 500 0
DWIDTH 7 0
BBX 7 14 0 -3
BITMAP
00
00
00
00
00
00
38
28
10
00
00
00
00
00
ENDCHAR
STARTCHAR BLACK LEFT-POINTING TRIANGLE
ENCODING 9664
SWIDTH 500 0
DWIDTH 7 0
BBX 7 14 0 -3
BITMAP
00
00
00
00
00
0C
3C
FC
3C
0C
00
00
00
00
ENDCHAR
STARTCHAR WHITE LEFT-POINTING TRIANGLE
ENCODING 9665
SWIDTH 500 0
DWIDTH 7 0
BBX 7 14 0 -3
BITMAP
00
00
00
00
00
0C
34
C4
34
0C
00
00
00
00
ENDCHAR
STARTCHAR BLACK LEFT-POINTING SMALL TRIANGLE
ENCODING 9666
SWIDTH 500 0
DWIDTH 7 0
BBX 7 14 0 -3
BITMAP
00
00
00
00
00
00
08
38
08
00
00
00
00
00
ENDCHAR
STARTCHAR WHITE LEFT-POINTING SMALL TRIANGLE
ENCODING 9667
SWIDTH 500 0
DWIDTH 7 0
BBX 7 14 0 -3
BITMAP
00
00
00
00
00
00
18
28
18
00
00
00
00
00
ENDCHAR
STARTCHAR BLACK LEFT-POINTING POINTER
ENCODING 9668
SWIDTH 500 0
DWIDTH 7 0
BBX 7 14 0 -3
BITMAP
00
00
00
00
00
00
1C
7C
1C
00
00
00
00
00
ENDCHAR
STARTCHAR WHITE LEFT-POINTING POINTER
ENCODING 9669
SWIDTH 500 0
DWIDTH 7 0
BBX 7 14 0 -3
BITMAP
00
00
00
00
00
00
1C
64
1C
00
00
00
00
00
ENDCHAR
STARTCHAR BLACK DIAMOND
ENCODING 9670
SWIDTH 500 0
DWIDTH 7 0
BBX 7 14 0 -3
BITMAP
00
00
00
00
10
38
7C
FE
7C
38
10
00
00
00
ENDCHAR
STARTCHAR WHITE DIAMOND
ENCODING 9671
SWIDTH 500 0
DWIDTH 7 0
BBX 7 14 0 -3
BITMAP
00
00
00
00
10
28
44
82
44
28
10
00
00
00
ENDCHAR
STARTCHAR WHITE DIAMOND CONTAINING BLACK SMALL DIAMOND
ENCODING 9672
SWIDTH 500 0
DWIDTH 7 0
BBX 7 14 0 -3
BITMAP
00
00
00
00
10
28
54
BA
54
28
10
00
00
00
ENDCHAR
STARTCHAR FISHEYE
ENCODING 9673
SWIDTH 500 0
DWIDTH 7 0
BBX 7 14 0 -3
BITMAP
00
00
00
00
00
38
44
54
44
38
00
00
00
00
ENDCHAR
STARTCHAR LOZENGE
ENCODING 9674
SWIDTH 500 0
DWIDTH 7 0
BBX 7 14 0 -3
BITMAP
00
00
10
10
28
28
44
44
28
28
10
10
00
00
ENDCHAR
STARTCHAR WHITE CIRCLE
ENCODING 9675
SWIDTH 500 0
DWIDTH 7 0
BBX 7 14 0 -3
BITMAP
00
00
00
00
00
38
44
44
44
38
00
00
00
00
ENDCHAR
STARTCHAR DOTTED CIRCLE
ENCODING 9676
SWIDTH 500 0
DWIDTH 7 0
BBX 7 14 0 -3
BITMAP
00
00
00
00
00
10
44
00
44
10
00
00
00
00
ENDCHAR
STARTCHAR CIRCLE WITH VERTICAL FILL
ENCODING 9677
SWIDTH 500 0
DWIDTH 7 0
BBX 7 14 0 -3
BITMAP
00
00
00
00
00
38
54
54
54
38
00
00
00
00
ENDCHAR
STARTCHAR BULLSEYE
ENCODING 9678
SWIDTH 500 0
DWIDTH 7 0
BBX 7 14 0 -3
BITMAP
00
00
00
00
00
38
44
54
44
38
00
00
00
00
ENDCHAR
STARTCHAR BLACK CIRCLE
ENCODING 9679
SWIDTH 500 0
DWIDTH 7 0
BBX 7 14 0 -3
BITMAP
00
00
00
00
00
38
7C
7C
7C
38
00
00
00
00
ENDCHAR
STARTCHAR CIRCLE WITH LEFT HALF BLACK
ENCODING 9680
SWIDTH 500 0
DWIDTH 7 0
BBX 7 14 0 -3
BITMAP
00
00
00
00
00
38
74
74
74
38
00
00
00
00
ENDCHAR
STARTCHAR CIRCLE WITH RIGHT HALF BLACK
ENCODING 9681
SWIDTH 500 0
DWIDTH 7 0
BBX 7 14 0 -3
BITMAP
00
00
00
00
00
38
5C
5C
5C
38
00
00
00
00
ENDCHAR
STARTCHAR CIRCLE WITH LOWER HALF BLACK
ENCODING 9682
SWIDTH 500 0
DWIDTH 7 0
BBX 7 14 0 -3
BITMAP
00
00
00
00
00
38
44
7C
7C
38
00
00
00
00
ENDCHAR
STARTCHAR CIRCLE WITH UPPER HALF BLACK
ENCODING 9683
SWIDTH 500 0
DWIDTH 7 0
BBX 7 14 0 -3
BITMAP
00
00
00
00
00
38
7C
7C
44
38
00
00
00
00
ENDCHAR
STARTCHAR CIRCLE WITH UPPER RIGHT QUADRANT BLACK
ENCODING 9684
SWIDTH 500 0
DWIDTH 7 0
BBX 7 14 0 -3
BITMAP
00
00
00
00
00
38
5C
5C
44
38
00
00
00
00
ENDCHAR
STARTCHAR CIRCLE WITH ALL BUT UPPER LEFT QUADRANT BLACK
ENCODING 9685
SWIDTH 500 0
DWIDTH 7 0
BBX 7 14 0 -3
BITMAP
00
00
00
00
00
38
5C
5C
44
38
00
00
00
00
ENDCHAR
STARTCHAR LEFT HALF BLACK CIRCLE
ENCODING 9686
SWIDTH 500 0
DWIDTH 7 0
BBX 7 14 0 -3
BITMAP
00
00
00
00
00
30
70
70
70
30
00
00
00
00
ENDCHAR
STARTCHAR RIGHT HALF BLACK CIRCLE
ENCODING 9687
SWIDTH 500 0
DWIDTH 7 0
BBX 7 14 0 -3
BITMAP
00
00
00
00
00
18
1C
1C
1C
18
00
00
00
00
ENDCHAR
STARTCHAR INVERSE BULLET
ENCODING 9688
SWIDTH 500 0
DWIDTH 7 0
BBX 7 14 0 -3
BITMAP
FE
FE
FE
FE
FE
E6
C2
C2
E6
FE
FE
FE
FE
FE
ENDCHAR
STARTCHAR INVERSE WHITE CIRCLE
ENCODING 9689
SWIDTH 500 0
DWIDTH 7 0
BBX 7 14 0 -3
BITMAP
FE
FE
FE
FE
FE
C6
BA
BA
BA
C6
FE
FE
FE
FE
ENDCHAR
STARTCHAR UPPER HALF INVERSE WHITE CIRCLE
ENCODING 9690
SWIDTH 500 0
DWIDTH 7 0
BBX 7 14 0 -3
BITMAP
FE
FE
FE
FE
FE
C6
BA
00
00
00
00
00
00
00
ENDCHAR
STARTCHAR LOWER HALF INVERSE WHITE CIRCLE
ENCODING 9691
SWIDTH 500 0
DWIDTH 7 0
BBX 7 14 0 -3
BITMAP
00
00
00
00
00
00
00
BA
BA
C6
FE
FE
FE
FE
ENDCHAR
STARTCHAR UPPER LEFT QUADRANT CIRCULAR ARC
ENCODING 9692
SWIDTH 500 0
DWIDTH 7 0
BBX 7 14 0 -3
BITMAP
00
00
00
00
00
30
40
40
00
00
00
00
00
00
ENDCHAR
STARTCHAR UPPER RIGHT QUADRANT CIRCULAR ARC
ENCODING 9693
SWIDTH 500 0
DWIDTH 7 0
BBX 7 14 0 -3
BITMAP
00
00
00
00
00
18
04
04
00
00
00
00
00
00
ENDCHAR
STARTCHAR LOWER RIGHT QUADRANT CIRCULAR ARC
ENCODING 9694
SWIDTH 500 0
DWIDTH 7 0
BBX 7 14 0 -3
BITMAP
00
00
00
00
00
00
00
04
04
18
00
00
00
00
ENDCHAR
STARTCHAR LOWER LEFT QUADRANT CIRCULAR ARC
ENCODING 9695
SWIDTH 500 0
DWIDTH 7 0
BBX 7 14 0 -3
BITMAP
00
00
00
00
00
00
00
40
40
30
00
00
00
00
ENDCHAR
STARTCHAR UPPER HALF CIRCLE
ENCODING 9696
SWIDTH 500 0
DWIDTH 7 0
BBX 7 14 0 -3
BITMAP
00
00
00
00
00
38
44
44
00
00
00
00
00
00
ENDCHAR
STARTCHAR LOWER HALF CIRCLE
ENCODING 9697
SWIDTH 500 0
DWIDTH 7 0
BBX 7 14 0 -3
BITMAP
00
00
00
00
00
00
00
44
44
38
00
00
00
00
ENDCHAR
STARTCHAR BLACK LOWER RIGHT TRIANGLE
ENCODING 9698
SWIDTH 500 0
DWIDTH 7 0
BBX 7 14 0 -3
BITMAP
00
02
02
06
06
0E
0E
1E
1E
3E
3E
7E
7E
FE
ENDCHAR
STARTCHAR BLACK LOWER LEFT TRIANGLE
ENCODING 9699
SWIDTH 500 0
DWIDTH 7 0
BBX 7 14 0 -3
BITMAP
00
80
80
C0
C0
E0
E0
F0
F0
F8
F8
FC
FC
FE
ENDCHAR
STARTCHAR BLACK UPPER LEFT TRIANGLE
ENCODING 9700
SWIDTH 500 0
DWIDTH 7 0
BBX 7 14 0 -3
BITMAP
FE
FC
FC
F8
F8
F0
F0
E0
E0
C0
C0
80
80
00
ENDCHAR
STARTCHAR BLACK UPPER RIGHT TRIANGLE
ENCODING 9701
SWIDTH 500 0
DWIDTH 7 0
BBX 7 14 0 -3
BITMAP
FE
7E
7E
3E
3E
1E
1E
0E
0E
06
06
02
02
00
ENDCHAR
STARTCHAR WHITE BULLET
ENCODING 9702
SWIDTH 500 0
DWIDTH 7 0
BBX 7 14 0 -3
BITMAP
00
00
00
00
00
18
24
24
18
00
00
00
00
00
ENDCHAR
STARTCHAR SQUARE WITH LEFT HALF BLACK
ENCODING 9703
SWIDTH 500 0
DWIDTH 7 0
BBX 7 14 0 -3
BITMAP
00
00
00
00
00
7C
74
74
74
7C
00
00
00
00
ENDCHAR
STARTCHAR SQUARE WITH RIGHT HALF BLACK
ENCODING 9704
SWIDTH 500 0
DWIDTH 7 0
BBX 7 14 0 -3
BITMAP
00
00
00
00
00
7C
5C
5C
5C
7C
00
00
00
00
ENDCHAR
STARTCHAR SQUARE WITH UPPER LEFT DIAGONAL HALF BLACK
ENCODING 9705
SWIDTH 500 0
DWIDTH 7 0
BBX 7 14 0 -3
BITMAP
00
00
00
00
00
7C
7C
74
64
7C
00
00
00
00
ENDCHAR
STARTCHAR SQUARE WITH LOWER RIGHT DIAGONAL HALF BLACK
ENCODING 9706
SWIDTH 500 0
DWIDTH 7 0
BBX 7 14 0 -3
BITMAP
00
00
00
00
00
7C
4C
5C
7C
7C
00
00
00
00
ENDCHAR
STARTCHAR WHITE SQUARE WITH VERTICAL BISECTING LINE
ENCODING 9707
SWIDTH 500 0
DWIDTH 7 0
BBX 7 14 0 -3
BITMAP
00
00
00
00
00
7C
54
54
54
7C
00
00
00
00
ENDCHAR
STARTCHAR WHITE UP-POINTING TRIANGLE WITH DOT
ENCODING 9708
SWIDTH 500 0
DWIDTH 7 0
BBX 7 14 0 -3
BITMAP
00
00
00
00
10
10
28
28
54
7C
00
00
00
00
ENDCHAR
STARTCHAR UP-POINTING TRIANGLE WITH LEFT HALF BLACK
ENCODING 9709
SWIDTH 500 0
DWIDTH 7 0
BBX 7 14 0 -3
BITMAP
00
00
00
00
10
10
38
38
74
7C
00
00
00
00
ENDCHAR
STARTCHAR UP-POINTING TRIANGLE WITH RIGHT HALF BLACK
ENCODING 9710
SWIDTH 500 0
DWIDTH 7 0
BBX 7 14 0 -3
BITMAP
00
00
00
00
10
10
38
38
5C
7C
00
00
00
00
ENDCHAR
STARTCHAR LARGE CIRCLE
ENCODING 9711
SWIDTH 500 0
DWIDTH 7 0
BBX 7 14 0 -3
BITMAP
00
00
00
00
38
44
82
82
82
44
38
00
00
00
ENDCHAR
STARTCHAR WHITE SQUARE WITH UPPER LEFT QUADRANT
ENCODING 9712
SWIDTH 500 0
DWIDTH 7 0
BBX 7 14 0 -3
BITMAP
00
00
00
00
00
7C
54
74
44
7C
00
00
00
00
ENDCHAR
STARTCHAR WHITE SQUARE WITH LOWER LEFT QUADRANT
ENCODING 9713
SWIDTH 500 0
DWIDTH 7 0
BBX 7 14 0 -3
BITMAP
00
00
00
00
00
7C
44
74
54
7C
00
00
00
00
ENDCHAR
STARTCHAR WHITE SQUARE WITH LOWER RIGHT QUADRANT
ENCODING 9714
SWIDTH 500 0
DWIDTH 7 0
BBX 7 14 0 -3
BITMAP
00
00
00
00
00
7C
44
5C
54
7C
00
00
00
00
ENDCHAR
STARTCHAR WHITE SQUARE WITH UPPER RIGHT QUADRANT
ENCODING 9715
SWIDTH 500 0
DWIDTH 7 0
BBX 7 14 0 -3
BITMAP
00
00
00
00
00
7C
54
5C
44
7C
00
00
00
00
ENDCHAR
STARTCHAR WHITE CIRCLE WITH UPPER LEFT QUADRANT
ENCODING 9716
SWIDTH 500 0
DWIDTH 7 0
BBX 7 14 0 -3
BITMAP
00
00
00
00
00
38
54
74
44
38
00
00
00
00
ENDCHAR
STARTCHAR WHITE CIRCLE WITH LOWER LEFT QUADRANT
ENCODING 9717
SWIDTH 500 0
DWIDTH 7 0
BBX 7 14 0 -3
BITMAP
00
00
00
00
00
38
44
74
54
38
00
00
00
00
ENDCHAR
STARTCHAR WHITE CIRCLE WITH LOWER RIGHT QUADRANT
ENCODING 9718
SWIDTH 500 0
DWIDTH 7 0
BBX 7 14 0 -3
BITMAP
00
00
00
00
00
38
44
5C
54
38
00
00
00
00
ENDCHAR
STARTCHAR WHITE CIRCLE WITH UPPER RIGHT QUADRANT
ENCODING 9719
SWIDTH 500 0
DWIDTH 7 0
BBX 7 14 0 -3
BITMAP
00
00
00
00
00
38
54
5C
44
38
00
00
00
00
ENDCHAR
STARTCHAR UPPER LEFT TRIANGLE
ENCODING 9720
SWIDTH 500 0
DWIDTH 7 0
BBX 7 14 0 -3
BITMAP
00
00
00
00
00
7C
48
50
60
40
00
00
00
00
ENDCHAR
STARTCHAR UPPER RIGHT TRIANGLE
ENCODING 9721
SWIDTH 500 0
DWIDTH 7 0
BBX 7 14 0 -3
BITMAP
00
00
00
00
00
7C
24
14
0C
04
00
00
00
00
ENDCHAR
STARTCHAR LOWER LEFT TRIANGLE
ENCODING 9722
SWIDTH 500 0
DWIDTH 7 0
BBX 7 14 0 -3
BITMAP
00
00
00
00
00
40
60
50
48
7C
00
00
00
00
ENDCHAR
STARTCHAR WHITE MEDIUM SQUARE
ENCODING 9723
SWIDTH 500 0
DWIDTH 7 0
BBX 7 14 0 -3
BITMAP
00
00
00
00
00
7C
44
44
44
7C
00
00
00
00
ENDCHAR
STARTCHAR BLACK MEDIUM SQUARE
ENCODING 9724
SWIDTH 500 0
DWIDTH 7 0
BBX 7 14 0 -3
BITMAP
00
00
00
00
00
7C
7C
7C
7C
7C
00
00
00
00
ENDCHAR
STARTCHAR WHITE MEDIUM SMALL SQUARE
ENCODING 9725
SWIDTH 500 0
DWIDTH 7 0
BBX 7 14 0 -3
BITMAP
00
00
00
00
00
3C
24
24
3C
00
00
00
00
00
ENDCHAR
STARTCHAR BLACK MEDIUM SMALL SQUARE
ENCODING 9726
SWIDTH 500 0
DWIDTH 7 0
BBX 7 14 0 -3
BITMAP
00
00
00
00
00
3C
3C
3C
3C
00
00
00
00
00
ENDCHAR
STARTCHAR LOWER RIGHT TRIANGLE
ENCODING 9727
SWIDTH 500 0
DWIDTH 7 0
BBX 7 14 0 -3
BITMAP
00
00
00
00
00
04
0C
14
24
7C
00
00
00
00
ENDCHAR
STARTCHAR WHITE FROWNING FACE
ENCODING 9785
SWIDTH 500 0
DWIDTH 7 0
BBX 7 14 0 -3
BITMAP
00
00
38
44
AA
AA
82
BA
C6
44
38
00
00
00
ENDCHAR
STARTCHAR WHITE SMILING FACE
ENCODING 9786
SWIDTH 500 0
DWIDTH 7 0
BBX 7 14 0 -3
BITMAP
00
00
38
44
AA
AA
82
C6
BA
44
38
00
00
00
ENDCHAR
STARTCHAR BLACK SMILING FACE
ENCODING 9787
SWIDTH 500 0
DWIDTH 7 0
BBX 7 14 0 -3
BITMAP
00
00
38
7C
D6
D6
FE
BA
C6
7C
38
00
00
00
ENDCHAR
STARTCHAR WHITE SUN WITH RAYS
ENCODING 9788
SWIDTH 500 0
DWIDTH 7 0
BBX 7 14 0 -3
BITMAP
00
00
00
00
10
54
38
EE
38
54
10
00
00
00
ENDCHAR
STARTCHAR FEMALE SIGN
ENCODING 9792
SWIDTH 500 0
DWIDTH 7 0
BBX 7 14 0 -3
BITMAP
00
00
3C
66
66
66
3C
18
7E
18
18
00
00
00
ENDCHAR
STARTCHAR EARTH
ENCODING 9793
SWIDTH 500 0
DWIDTH 7 0
BBX 7 14 0 -3
BITMAP
00
00
18
18
7E
18
3C
66
66
66
3C
00
00
00
ENDCHAR
STARTCHAR MALE SIGN
ENCODING 9794
SWIDTH 500 0
DWIDTH 7 0
BBX 7 14 0 -3
BITMAP
00
00
00
00
1E
0E
3E
4A
68
30
00
00
00
00
ENDCHAR
STARTCHAR BLACK SPADE SUIT
ENCODING 9824
SWIDTH 500 0
DWIDTH 7 0
BBX 7 14 0 -3
BITMAP
00
00
00
10
10
38
7C
7C
10
38
00
00
00
00
ENDCHAR
STARTCHAR WHITE HEART SUIT
ENCODING 9825
SWIDTH 500 0
DWIDTH 7 0
BBX 7 14 0 -3
BITMAP
00
00
00
00
28
54
44
44
28
10
00
00
00
00
ENDCHAR
STARTCHAR WHITE DIAMOND SUIT
ENCODING 9826
SWIDTH 500 0
DWIDTH 7 0
BBX 7 14 0 -3
BITMAP
00
00
00
10
10
28
44
44
28
10
10
00
00
00
ENDCHAR
STARTCHAR BLACK CLUB SUIT
ENCODING 9827
SWIDTH 500 0
DWIDTH 7 0
BBX 7 14 0 -3
BITMAP
00
00
00
10
38
10
7C
6C
10
38
00
00
00
00
ENDCHAR
STARTCHAR WHITE SPADE SUIT
ENCODING 9828
SWIDTH 500 0
DWIDTH 7 0
BBX 7 14 0 -3
BITMAP
00
00
00
10
28
44
44
38
10
28
00
00
00
00
ENDCHAR
STARTCHAR BLACK HEART SUIT
ENCODING 9829
SWIDTH 500 0
DWIDTH 7 0
BBX 7 14 0 -3
BITMAP
00
00
00
00
6C
7C
7C
7C
38
10
00
00
00
00
ENDCHAR
STARTCHAR BLACK DIAMOND SUIT
ENCODING 9830
SWIDTH 500 0
DWIDTH 7 0
BBX 7 14 0 -3
BITMAP
00
00
00
10
10
38
7C
7C
38
10
10
00
00
00
ENDCHAR
STARTCHAR WHITE CLUB SUIT
ENCODING 9831
SWIDTH 500 0
DWIDTH 7 0
BBX 7 14 0 -3
BITMAP
00
00
00
10
28
10
54
6C
10
28
00
00
00
00
ENDCHAR
STARTCHAR HOT SPRINGS
ENCODING 9832
SWIDTH 500 0
DWIDTH 7 0
BBX 7 14 0 -3
BITMAP
00
00
20
44
28
14
22
04
20
42
3C
00
00
00
ENDCHAR
STARTCHAR QUARTER NOTE
ENCODING 9833
SWIDTH 500 0
DWIDTH 7 0
BBX 7 14 0 -3
BITMAP
00
00
10
10
10
10
10
10
30
70
60
00
00
00
ENDCHAR
STARTCHAR EIGHTH NOTE
ENCODING 9834
SWIDTH 500 0
DWIDTH 7 0
BBX 7 14 0 -3
BITMAP
00
00
10
18
1C
14
14
18
30
70
60
00
00
00
ENDCHAR
STARTCHAR BEAMED EIGHTH NOTES
ENCODING 9835
SWIDTH 500 0
DWIDTH 7 0
BBX 7 14 0 -3
BITMAP
00
10
18
1C
16
12
32
72
66
0E
0C
00
00
00
ENDCHAR
STARTCHAR BEAMED SIXTEENTH NOTES
ENCODING 9836
SWIDTH 500 0
DWIDTH 7 0
BBX 7 14 0 -3
BITMAP
10
18
1C
16
1A
1E
16
32
72
66
0E
0C
00
00
ENDCHAR
STARTCHAR MUSIC FLAT SIGN
ENCODING 9837
SWIDTH 500 0
DWIDTH 7 0
BBX 7 14 0 -3
BITMAP
00
00
40
40
40
58
64
44
48
50
60
00
00
00
ENDCHAR
STARTCHAR MUSIC NATURAL SIGN
ENCODING 9838
SWIDTH 500 0
DWIDTH 7 0
BBX 7 14 0 -3
BITMAP
00
00
40
40
4C
54
64
4C
54
64
04
04
00
00
ENDCHAR
STARTCHAR MUSIC SHARP SIGN
ENCODING 9839
SWIDTH 500 0
DWIDTH 7 0
BBX 7 14 0 -3
BITMAP
00
04
04
26
2C
34
66
2C
34
64
20
20
00
00
ENDCHAR
STARTCHAR BRAILLE PATTERN BLANK
ENCODING 10240
SWIDTH 500 0
DWIDTH 7 0
BBX 7 14 0 -3
BITMAP
00
00
00
00
00
00
00
00
00
00
00
00
00
00
ENDCHAR
STARTCHAR BRAILLE PATTERN DOTS-1
ENCODING 10241
SWIDTH 500 0
DWIDTH 7 0
BBX 7 14 0 -3
BITMAP
00
00
60
60
00
00
00
00
00
00
00
00
00
00
ENDCHAR
STARTCHAR BRAILLE PATTERN DOTS-2
ENCODING 10242
SWIDTH 500 0
DWIDTH 7 0
BBX 7 14 0 -3
BITMAP
00
00
00
00
00
60
60
00
00
00
00
00
00
00
ENDCHAR
STARTCHAR BRAILLE PATTERN DOTS-12
ENCODING 10243
SWIDTH 500 0
DWIDTH 7 0
BBX 7 14 0 -3
BITMAP
00
00
60
60
00
60
60
00
00
00
00
00
00
00
ENDCHAR
STARTCHAR BRAILLE PATTERN DOTS-3
ENCODING 10244
SWIDTH 500 0
DWIDTH 7 0
BBX 7 14 0 -3
BITMAP
00
00
00
00
00
00
00
00
60
60
00
00
00
00
ENDCHAR
STARTCHAR BRAILLE PATTERN DOTS-13
ENCODING 10245
SWIDTH 500 0
DWIDTH 7 0
BBX 7 14 0 -3
BITMAP
00
00
60
60
00
00
00
00
60
60
00
00
00
00
ENDCHAR
STARTCHAR BRAILLE PATTERN DOTS-23
ENCODING 10246
SWIDTH 500 0
DWIDTH 7 0
BBX 7 14 0 -3
BITMAP
00
00
00
00
00
60
60
00
60
60
00
00
00
00
ENDCHAR
STARTCHAR BRAILLE PATTERN DOTS-123
ENCODING 10247
SWIDTH 500 0
DWIDTH 7 0
BBX 7 14 0 -3
BITMAP
00
00
60
60
00
60
60
00
60
60
00
00
00
00
ENDCHAR
STARTCHAR BRAILLE PATTERN DOTS-4
ENCODING 10248
SWIDTH 500 0
DWIDTH 7 0
BBX 7 14 0 -3
BITMAP
00
00
0C
0C
00
00
00
00
00
00
00
00
00
00
ENDCHAR
STARTCHAR BRAILLE PATTERN DOTS-14
ENCODING 10249
SWIDTH 500 0
DWIDTH 7 0
BBX 7 14 0 -3
BITMAP
00
00
6C
6C
00
00
00
00
00
00
00
00
00
00
ENDCHAR
STARTCHAR BRAILLE PATTERN DOTS-24
ENCODING 10250
SWIDTH 500 0
DWIDTH 7 0
BBX 7 14 0 -3
BITMAP
00
00
0C
0C
00
60
60
00
00
00
00
00
00
00
ENDCHAR
STARTCHAR BRAILLE PATTERN DOTS-124
ENCODING 10251
SWIDTH 500 0
DWIDTH 7 0
BBX 7 14 0 -3
BITMAP
00
00
6C
6C
00
60
60
00
00
00
00
00
00
00
ENDCHAR
STARTCHAR BRAILLE PATTERN DOTS-34
ENCODING 10252
SWIDTH 500 0
DWIDTH 7 0
BBX 7 14 0 -3
BITMAP
00
00
0C
0C
00
00
00
00
60
60
00
00
00
00
ENDCHAR
STARTCHAR BRAILLE PATTERN DOTS-134
ENCODING 10253
SWIDTH 500 0
DWIDTH 7 0
BBX 7 14 0 -3
BITMAP
00
00
6C
6C
00
00
00
00
60
60
00
00
00
00
ENDCHAR
STARTCHAR BRAILLE PATTERN DOTS-234
ENCODING 10254
SWIDTH 500 0
DWIDTH 7 0
BBX 7 14 0 -3
BITMAP
00
00
0C
0C
00
60
60
00
60
60
00
00
00
00
ENDCHAR
STARTCHAR BRAILLE PATTERN DOTS-1234
ENCODING 10255
SWIDTH 500 0
DWIDTH 7 0
BBX 7 14 0 -3
BITMAP
00
00
6C
6C
00
60
60
00
60
60
00
00
00
00
ENDCHAR
STARTCHAR BRAILLE PATTERN DOTS-5
ENCODING 10256
SWIDTH 500 0
DWIDTH 7 0
BBX 7 14 0 -3
BITMAP
00
00
00
00
00
0C
0C
00
00
00
00
00
00
00
ENDCHAR
STARTCHAR BRAILLE PATTERN DOTS-15
ENCODING 10257
SWIDTH 500 0
DWIDTH 7 0
BBX 7 14 0 -3
BITMAP
00
00
60
60
00
0C
0C
00
00
00
00
00
00
00
ENDCHAR
STARTCHAR BRAILLE PATTERN DOTS-25
ENCODING 10258
SWIDTH 500 0
DWIDTH 7 0
BBX 7 14 0 -3
BITMAP
00
00
00
00
00
6C
6C
00
00
00
00
00
00
00
ENDCHAR
STARTCHAR BRAILLE PATTERN DOTS-125
ENCODING 10259
SWIDTH 500 0
DWIDTH 7 0
BBX 7 14 0 -3
BITMAP
00
00
60
60
00
6C
6C
00
00
00
00
00
00
00
ENDCHAR
STARTCHAR BRAILLE PATTERN DOTS-35
ENCODING 10260
SWIDTH 500 0
DWIDTH 7 0
BBX 7 14 0 -3
BITMAP
00
00
00
00
00
0C
0C
00
60
60
00
00
00
00
ENDCHAR
STARTCHAR BRAILLE PATTERN DOTS-135
ENCODING 10261
SWIDTH 500 0
DWIDTH 7 0
BBX 7 14 0 -3
BITMAP
00
00
60
60
00
0C
0C
00
60
60
00
00
00
00
ENDCHAR
STARTCHAR BRAILLE PATTERN DOTS-235
ENCODING 10262
SWIDTH 500 0
DWIDTH 7 0
BBX 7 14 0 -3
BITMAP
00
00
00
00
00
6C
6C
00
60
60
00
00
00
00
ENDCHAR
STARTCHAR BRAILLE PATTERN DOTS-1235
ENCODING 10263
SWIDTH 500 0
DWIDTH 7 0
BBX 7 14 0 -3
BITMAP
00
00
60
60
00
6C
6C
00
60
60
00
00
00
00
ENDCHAR
STARTCHAR BRAILLE PATTERN DOTS-45
ENCODING 10264
SWIDTH 500 0
DWIDTH 7 0
BBX 7 14 0 -3
BITMAP
00
00
0C
0C
00
0C
0C
00
00
00
00
00
00
00
ENDCHAR
STARTCHAR BRAILLE PATTERN DOTS-145
ENCODING 10265
SWIDTH 500 0
DWIDTH 7 0
BBX 7 14 0 -3
BITMAP
00
00
6C
6C
00
0C
0C
00
00
00
00
00
00
00
ENDCHAR
STARTCHAR BRAILLE PATTERN DOTS-245
ENCODING 10266
SWIDTH 500 0
DWIDTH 7 0
BBX 7 14 0 -3
BITMAP
00
00
0C
0C
00
6C
6C
00
00
00
00
00
00
00
ENDCHAR
STARTCHAR BRAILLE PATTERN DOTS-1245
ENCODING 10267
SWIDTH 500 0
DWIDTH 7 0
BBX 7 14 0 -3
BITMAP
00
00
6C
6C
00
6C
6C
00
00
00
00
00
00
00
ENDCHAR
STARTCHAR BRAILLE PATTERN DOTS-345
ENCODING 10268
SWIDTH 500 0
DWIDTH 7 0
BBX 7 14 0 -3
BITMAP
00
00
0C
0C
00
0C
0C
00
60
60
00
00
00
00
ENDCHAR
STARTCHAR BRAILLE PATTERN DOTS-1345
ENCODING 10269
SWIDTH 500 0
DWIDTH 7 0
BBX 7 14 0 -3
BITMAP
00
00
6C
6C
00
0C
0C
00
60
60
00
00
00
00
ENDCHAR
STARTCHAR BRAILLE PATTERN DOTS-2345
ENCODING 10270
SWIDTH 500 0
DWIDTH 7 0
BBX 7 14 0 -3
BITMAP
00
00
0C
0C
00
6C
6C
00
60
60
00
00
00
00
ENDCHAR
STARTCHAR BRAILLE PATTERN DOTS-12345
ENCODING 10271
SWIDTH 500 0
DWIDTH 7 0
BBX 7 14 0 -3
BITMAP
00
00
6C
6C
00
6C
6C
00
60
60
00
00
00
00
ENDCHAR
STARTCHAR BRAILLE PATTERN DOTS-6
ENCODING 10272
SWIDTH 500 0
DWIDTH 7 0
BBX 7 14 0 -3
BITMAP
00
00
00
00
00
00
00
00
0C
0C
00
00
00
00
ENDCHAR
STARTCHAR BRAILLE PATTERN DOTS-16
ENCODING 10273
SWIDTH 500 0
DWIDTH 7 0
BBX 7 14 0 -3
BITMAP
00
00
60
60
00
00
00
00
0C
0C
00
00
00
00
ENDCHAR
STARTCHAR BRAILLE PATTERN DOTS-26
ENCODING 10274
SWIDTH 500 0
DWIDTH 7 0
BBX 7 14 0 -3
BITMAP
00
00
00
00
00
60
60
00
0C
0C
00
00
00
00
ENDCHAR
STARTCHAR BRAILLE PATTERN DOTS-126
ENCODING 10275
SWIDTH 500 0
DWIDTH 7 0
BBX 7 14 0 -3
BITMAP
00
00
60
60
00
60
60
00
0C
0C
00
00
00
00
ENDCHAR
STARTCHAR BRAILLE PATTERN DOTS-36
ENCODING 10276
SWIDTH 500 0
DWIDTH 7 0
BBX 7 14 0 -3
BITMAP
00
00
00
00
00
00
00
00
6C
6C
00
00
00
00
ENDCHAR
STARTCHAR BRAILLE PATTERN DOTS-136
ENCODING 10277
SWIDTH 500 0
DWIDTH 7 0
BBX 7 14 0 -3
BITMAP
00
00
60
60
00
00
00
00
6C
6C
00
00
00
00
ENDCHAR
STARTCHAR BRAILLE PATTERN DOTS-236
ENCODING 10278
SWIDTH 500 0
DWIDTH 7 0
BBX 7 14 0 -3
BITMAP
00
00
00
00
00
60
60
00
6C
6C
00
00
00
00
ENDCHAR
STARTCHAR BRAILLE PATTERN DOTS-1236
ENCODING 10279
SWIDTH 500 0
DWIDTH 7 0
BBX 7 14 0 -3
BITMAP
00
00
60
60
00
60
60
00
6C
6C
00
00
00
00
ENDCHAR
STARTCHAR BRAILLE PATTERN DOTS-46
ENCODING 10280
SWIDTH 500 0
DWIDTH 7 0
BBX 7 14 0 -3
BITMAP
00
00
0C
0C
00
00
00
00
0C
0C
00
00
00
00
ENDCHAR
STARTCHAR BRAILLE PATTERN DOTS-146
ENCODING 10281
SWIDTH 500 0
DWIDTH 7 0
BBX 7 14 0 -3
BITMAP
00
00
6C
6C
00
00
00
00
0C
0C
00
00
00
00
ENDCHAR
STARTCHAR BRAILLE PATTERN DOTS-246
ENCODING 10282
SWIDTH 500 0
DWIDTH 7 0
BBX 7 14 0 -3
BITMAP
00
00
0C
0C
00
60
60
00
0C
0C
00
00
00
00
ENDCHAR
STARTCHAR BRAILLE PATTERN DOTS-1246
ENCODING 10283
SWIDTH 500 0
DWIDTH 7 0
BBX 7 14 0 -3
BITMAP
00
00
6C
6C
00
60
60
00
0C
0C
00
00
00
00
ENDCHAR
STARTCHAR BRAILLE PATTERN DOTS-346
ENCODING 10284
SWIDTH 500 0
DWIDTH 7 0
BBX 7 14 0 -3
BITMAP
00
00
0C
0C
00
00
00
00
6C
6C
00
00
00
00
ENDCHAR
STARTCHAR BRAILLE PATTERN DOTS-1346
ENCODING 10285
SWIDTH 500 0
DWIDTH 7 0
BBX 7 14 0 -3
BITMAP
00
00
6C
6C
00
00
00
00
6C
6C
00
00
00
00
ENDCHAR
STARTCHAR BRAILLE PATTERN DOTS-2346
ENCODING 10286
SWIDTH 500 0
DWIDTH 7 0
BBX 7 14 0 -3
BITMAP
00
00
0C
0C
00
60
60
00
6C
6C
00
00
00
00
ENDCHAR
STARTCHAR BRAILLE PATTERN DOTS-12346
ENCODING 10287
SWIDTH 500 0
DWIDTH 7 0
BBX 7 14 0 -3
BITMAP
00
00
6C
6C
00
60
60
00
6C
6C
00
00
00
00
ENDCHAR
STARTCHAR BRAILLE PATTERN DOTS-56
ENCODING 10288
SWIDTH 500 0
DWIDTH 7 0
BBX 7 14 0 -3
BITMAP
00
00
00
00
00
0C
0C
00
0C
0C
00
00
00
00
ENDCHAR
STARTCHAR BRAILLE PATTERN DOTS-156
ENCODING 10289
SWIDTH 500 0
DWIDTH 7 0
BBX 7 14 0 -3
BITMAP
00
00
60
60
00
0C
0C
00
0C
0C
00
00
00
00
ENDCHAR
STARTCHAR BRAILLE PATTERN DOTS-256
ENCODING 10290
SWIDTH 500 0
DWIDTH 7 0
BBX 7 14 0 -3
BITMAP
00
00
00
00
00
6C
6C
00
0C
0C
00
00
00
00
ENDCHAR
STARTCHAR BRAILLE PATTERN DOTS-1256
ENCODING 10291
SWIDTH 500 0
DWIDTH 7 0
BBX 7 14 0 -3
BITMAP
00
00
60
60
00
6C
6C
00
0C
0C
00
00
00
00
ENDCHAR
STARTCHAR BRAILLE PATTERN DOTS-356
ENCODING 10292
SWIDTH 500 0
DWIDTH 7 0
BBX 7 14 0 -3
BITMAP
00
00
00
00
00
0C
0C
00
6C
6C
00
00
00
00
ENDCHAR
STARTCHAR BRAILLE PATTERN DOTS-1356
ENCODING 10293
SWIDTH 500 0
DWIDTH 7 0
BBX 7 14 0 -3
BITMAP
00
00
60
60
00
0C
0C
00
6C
6C
00
00
00
00
ENDCHAR
STARTCHAR BRAILLE PATTERN DOTS-2356
ENCODING 10294
SWIDTH 500 0
DWIDTH 7 0
BBX 7 14 0 -3
BITMAP
00
00
00
00
00
6C
6C
00
6C
6C
00
00
00
00
ENDCHAR
STARTCHAR BRAILLE PATTERN DOTS-12356
ENCODING 10295
SWIDTH 500 0
DWIDTH 7 0
BBX 7 14 0 -3
BITMAP
00
00
60
60
00
6C
6C
00
6C
6C
00
00
00
00
ENDCHAR
STARTCHAR BRAILLE PATTERN DOTS-456
ENCODING 10296
SWIDTH 500 0
DWIDTH 7 0
BBX 7 14 0 -3
BITMAP
00
00
0C
0C
00
0C
0C
00
0C
0C
00
00
00
00
ENDCHAR
STARTCHAR BRAILLE PATTERN DOTS-1456
ENCODING 10297
SWIDTH 500 0
DWIDTH 7 0
BBX 7 14 0 -3
BITMAP
00
00
6C
6C
00
0C
0C
00
0C
0C
00
00
00
00
ENDCHAR
STARTCHAR BRAILLE PATTERN DOTS-2456
ENCODING 10298
SWIDTH 500 0
DWIDTH 7 0
BBX 7 14 0 -3
BITMAP
00
00
0C
0C
00
6C
6C
00
0C
0C
00
00
00
00
ENDCHAR
STARTCHAR BRAILLE PATTERN DOTS-12456
ENCODING 10299
SWIDTH 500 0
DWIDTH 7 0
BBX 7 14 0 -3
BITMAP
00
00
6C
6C
00
6C
6C
00
0C
0C
00
00
00
00
ENDCHAR
STARTCHAR BRAILLE PATTERN DOTS-3456
ENCODING 10300
SWIDTH 500 0
DWIDTH 7 0
BBX 7 14 0 -3
BITMAP
00
00
0C
0C
00
0C
0C
00
6C
6C
00
00
00
00
ENDCHAR
STARTCHAR BRAILLE PATTERN DOTS-13456
ENCODING 10301
SWIDTH 500 0
DWIDTH 7 0
BBX 7 14 0 -3
BITMAP
00
00
6C
6C
00
0C
0C
00
6C
6C
00
00
00
00
ENDCHAR
STARTCHAR BRAILLE PATTERN DOTS-23456
ENCODING 10302
SWIDTH 500 0
DWIDTH 7 0
BBX 7 14 0 -3
BITMAP
00
00
0C
0C
00
6C
6C
00
6C
6C
00
00
00
00
ENDCHAR
STARTCHAR BRAILLE PATTERN DOTS-123456
ENCODING 10303
SWIDTH 500 0
DWIDTH 7 0
BBX 7 14 0 -3
BITMAP
00
00
6C
6C
00
6C
6C
00
6C
6C
00
00
00
00
ENDCHAR
STARTCHAR BRAILLE PATTERN DOTS-7
ENCODING 10304
SWIDTH 500 0
DWIDTH 7 0
BBX 7 14 0 -3
BITMAP
00
00
00
00
00
00
00
00
00
00
00
60
60
00
ENDCHAR
STARTCHAR BRAILLE PATTERN DOTS-17
ENCODING 10305
SWIDTH 500 0
DWIDTH 7 0
BBX 7 14 0 -3
BITMAP
00
00
60
60
00
00
00
00
00
00
00
60
60
00
ENDCHAR
STARTCHAR BRAILLE PATTERN DOTS-27
ENCODING 10306
SWIDTH 500 0
DWIDTH 7 0
BBX 7 14 0 -3
BITMAP
00
00
00
00
00
60
60
00
00
00
00
60
60
00
ENDCHAR
STARTCHAR BRAILLE PATTERN DOTS-127
ENCODING 10307
SWIDTH 500 0
DWIDTH 7 0
BBX 7 14 0 -3
BITMAP
00
00
60
60
00
60
60
00
00
00
00
60
60
00
ENDCHAR
STARTCHAR BRAILLE PATTERN DOTS-37
ENCODING 10308
SWIDTH 500 0
DWIDTH 7 0
BBX 7 14 0 -3
BITMAP
00
00
00
00
00
00
00
00
60
60
00
60
60
00
ENDCHAR
STARTCHAR BRAILLE PATTERN DOTS-137
ENCODING 10309
SWIDTH 500 0
DWIDTH 7 0
BBX 7 14 0 -3
BITMAP
00
00
60
60
00
00
00
00
60
60
00
60
60
00
ENDCHAR
STARTCHAR BRAILLE PATTERN DOTS-237
ENCODING 10310
SWIDTH 500 0
DWIDTH 7 0
BBX 7 14 0 -3
BITMAP
00
00
00
00
00
60
60
00
60
60
00
60
60
00
ENDCHAR
STARTCHAR BRAILLE PATTERN DOTS-1237
ENCODING 10311
SWIDTH 500 0
DWIDTH 7 0
BBX 7 14 0 -3
BITMAP
00
00
60
60
00
60
60
00
60
60
00
60
60
00
ENDCHAR
STARTCHAR BRAILLE PATTERN DOTS-47
ENCODING 10312
SWIDTH 500 0
DWIDTH 7 0
BBX 7 14 0 -3
BITMAP
00
00
0C
0C
00
00
00
00
00
00
00
60
60
00
ENDCHAR
STARTCHAR BRAILLE PATTERN DOTS-147
ENCODING 10313
SWIDTH 500 0
DWIDTH 7 0
BBX 7 14 0 -3
BITMAP
00
00
6C
6C
00
00
00
00
00
00
00
60
60
00
ENDCHAR
STARTCHAR BRAILLE PATTERN DOTS-247
ENCODING 10314
SWIDTH 500 0
DWIDTH 7 0
BBX 7 14 0 -3
BITMAP
00
00
0C
0C
00
60
60
00
00
00
00
60
60
00
ENDCHAR
STARTCHAR BRAILLE PATTERN DOTS-1247
ENCODING 10315
SWIDTH 500 0
DWIDTH 7 0
BBX 7 14 0 -3
BITMAP
00
00
6C
6C
00
60
60
00
00
00
00
60
60
00
ENDCHAR
STARTCHAR BRAILLE PATTERN DOTS-347
ENCODING 10316
SWIDTH 500 0
DWIDTH 7 0
BBX 7 14 0 -3
BITMAP
00
00
0C
0C
00
00
00
00
60
60
00
60
60
00
ENDCHAR
STARTCHAR BRAILLE PATTERN DOTS-1347
ENCODING 10317
SWIDTH 500 0
DWIDTH 7 0
BBX 7 14 0 -3
BITMAP
00
00
6C
6C
00
00
00
00
60
60
00
60
60
00
ENDCHAR
STARTCHAR BRAILLE PATTERN DOTS-2347
ENCODING 10318
SWIDTH 500 0
DWIDTH 7 0
BBX 7 14 0 -3
BITMAP
00
00
0C
0C
00
60
60
00
60
60
00
60
60
00
ENDCHAR
STARTCHAR BRAILLE PATTERN DOTS-12347
ENCODING 10319
SWIDTH 500 0
DWIDTH 7 0
BBX 7 14 0 -3
BITMAP
00
00
6C
6C
00
60
60
00
60
60
00
60
60
00
ENDCHAR
STARTCHAR BRAILLE PATTERN DOTS-57
ENCODING 10320
SWIDTH 500 0
DWIDTH 7 0
BBX 7 14 0 -3
BITMAP
00
00
00
00
00
0C
0C
00
00
00
00
60
60
00
ENDCHAR
STARTCHAR BRAILLE PATTERN DOTS-157
ENCODING 10321
SWIDTH 500 0
DWIDTH 7 0
BBX 7 14 0 -3
BITMAP
00
00
60
60
00
0C
0C
00
00
00
00
60
60
00
ENDCHAR
STARTCHAR BRAILLE PATTERN DOTS-257
ENCODING 10322
SWIDTH 500 0
DWIDTH 7 0
BBX 7 14 0 -3
BITMAP
00
00
00
00
00
6C
6C
00
00
00
00
60
60
00
ENDCHAR
STARTCHAR BRAILLE PATTERN DOTS-1257
ENCODING 10323
SWIDTH 500 0
DWIDTH 7 0
BBX 7 14 0 -3
BITMAP
00
00
60
60
00
6C
6C
00
00
00
00
60
60
00
ENDCHAR
STARTCHAR BRAILLE PATTERN DOTS-357
ENCODING 10324
SWIDTH 500 0
DWIDTH 7 0
BBX 7 14 0 -3
BITMAP
00
00
00
00
00
0C
0C
00
60
60
00
60
60
00
ENDCHAR
STARTCHAR BRAILLE PATTERN DOTS-1357
ENCODING 10325
SWIDTH 500 0
DWIDTH 7 0
BBX 7 14 0 -3
BITMAP
00
00
60
60
00
0C
0C
00
60
60
00
60
60
00
ENDCHAR
STARTCHAR BRAILLE PATTERN DOTS-2357
ENCODING 10326
SWIDTH 500 0
DWIDTH 7 0
BBX 7 14 0 -3
BITMAP
00
00
00
00
00
6C
6C
00
60
60
00
60
60
00
ENDCHAR
STARTCHAR BRAILLE PATTERN DOTS-12357
ENCODING 10327
SWIDTH 500 0
DWIDTH 7 0
BBX 7 14 0 -3
BITMAP
00
00
60
60
00
6C
6C
00
60
60
00
60
60
00
ENDCHAR
STARTCHAR BRAILLE PATTERN DOTS-457
ENCODING 10328
SWIDTH 500 0
DWIDTH 7 0
BBX 7 14 0 -3
BITMAP
00
00
0C
0C
00
0C
0C
00
00
00
00
60
60
00
ENDCHAR
STARTCHAR BRAILLE PATTERN DOTS-1457
ENCODING 10329
SWIDTH 500 0
DWIDTH 7 0
BBX 7 14 0 -3
BITMAP
00
00
6C
6C
00
0C
0C
00
00
00
00
60
60
00
ENDCHAR
STARTCHAR BRAILLE PATTERN DOTS-2457
ENCODING 10330
SWIDTH 500 0
DWIDTH 7 0
BBX 7 14 0 -3
BITMAP
00
00
0C
0C
00
6C
6C
00
00
00
00
60
60
00
ENDCHAR
STARTCHAR BRAILLE PATTERN DOTS-12457
ENCODING 10331
SWIDTH 500 0
DWIDTH 7 0
BBX 7 14 0 -3
BITMAP
00
00
6C
6C
00
6C
6C
00
00
00
00
60
60
00
ENDCHAR
STARTCHAR BRAILLE PATTERN DOTS-3457
ENCODING 10332
SWIDTH 500 0
DWIDTH 7 0
BBX 7 14 0 -3
BITMAP
00
00
0C
0C
00
0C
0C
00
60
60
00
60
60
00
ENDCHAR
STARTCHAR BRAILLE PATTERN DOTS-13457
ENCODING 10333
SWIDTH 500 0
DWIDTH 7 0
BBX 7 14 0 -3
BITMAP
00
00
6C
6C
00
0C
0C
00
60
60
00
60
60
00
ENDCHAR
STARTCHAR BRAILLE PATTERN DOTS-23457
ENCODING 10334
SWIDTH 500 0
DWIDTH 7 0
BBX 7 14 0 -3
BITMAP
00
00
0C
0C
00
6C
6C
00
60
60
00
60
60
00
ENDCHAR
STARTCHAR BRAILLE PATTERN DOTS-123457
ENCODING 10335
SWIDTH 500 0
DWIDTH 7 0
BBX 7 14 0 -3
BITMAP
00
00
6C
6C
00
6C
6C
00
60
60
00
60
60
00
ENDCHAR
STARTCHAR BRAILLE PATTERN DOTS-67
ENCODING 10336
SWIDTH 500 0
DWIDTH 7 0
BBX 7 14 0 -3
BITMAP
00
00
00
00
00
00
00
00
0C
0C
00
60
60
00
ENDCHAR
STARTCHAR BRAILLE PATTERN DOTS-167
ENCODING 10337
SWIDTH 500 0
DWIDTH 7 0
BBX 7 14 0 -3
BITMAP
00
00
60
60
00
00
00
00
0C
0C
00
60
60
00
ENDCHAR
STARTCHAR BRAILLE PATTERN DOTS-267
ENCODING 10338
SWIDTH 500 0
DWIDTH 7 0
BBX 7 14 0 -3
BITMAP
00
00
00
00
00
60
60
00
0C
0C
00
60
60
00
ENDCHAR
STARTCHAR BRAILLE PATTERN DOTS-1267
ENCODING 10339
SWIDTH 500 0
DWIDTH 7 0
BBX 7 14 0 -3
BITMAP
00
00
60
60
00
60
60
00
0C
0C
00
60
60
00
ENDCHAR
STARTCHAR BRAILLE PATTERN DOTS-367
ENCODING 10340
SWIDTH 500 0
DWIDTH 7 0
BBX 7 14 0 -3
BITMAP
00
00
00
00
00
00
00
00
6C
6C
00
60
60
00
ENDCHAR
STARTCHAR BRAILLE PATTERN DOTS-1367
ENCODING 10341
SWIDTH 500 0
DWIDTH 7 0
BBX 7 14 0 -3
BITMAP
00
00
60
60
00
00
00
00
6C
6C
00
60
60
00
ENDCHAR
STARTCHAR BRAILLE PATTERN DOTS-2367
ENCODING 10342
SWIDTH 500 0
DWIDTH 7 0
BBX 7 14 0 -3
BITMAP
00
00
00
00
00
60
60
00
6C
6C
00
60
60
00
ENDCHAR
STARTCHAR BRAILLE PATTERN DOTS-12367
ENCODING 10343
SWIDTH 500 0
DWIDTH 7 0
BBX 7 14 0 -3
BITMAP
00
00
60
60
00
60
60
00
6C
6C
00
60
60
00
ENDCHAR
STARTCHAR BRAILLE PATTERN DOTS-467
ENCODING 10344
SWIDTH 500 0
DWIDTH 7 0
BBX 7 14 0 -3
BITMAP
00
00
0C
0C
00
00
00
00
0C
0C
00
60
60
00
ENDCHAR
STARTCHAR BRAILLE PATTERN DOTS-1467
ENCODING 10345
SWIDTH 500 0
DWIDTH 7 0
BBX 7 14 0 -3
BITMAP
00
00
6C
6C
00
00
00
00
0C
0C
00
60
60
00
ENDCHAR
STARTCHAR BRAILLE PATTERN DOTS-2467
ENCODING 10346
SWIDTH 500 0
DWIDTH 7 0
BBX 7 14 0 -3
BITMAP
00
00
0C
0C
00
60
60
00
0C
0C
00
60
60
00
ENDCHAR
STARTCHAR BRAILLE PATTERN DOTS-12467
ENCODING 10347
SWIDTH 500 0
DWIDTH 7 0
BBX 7 14 0 -3
BITMAP
00
00
6C
6C
00
60
60
00
0C
0C
00
60
60
00
ENDCHAR
STARTCHAR BRAILLE PATTERN DOTS-3467
ENCODING 10348
SWIDTH 500 0
DWIDTH 7 0
BBX 7 14 0 -3
BITMAP
00
00
0C
0C
00
00
00
00
6C
6C
00
60
60
00
ENDCHAR
STARTCHAR BRAILLE PATTERN DOTS-13467
ENCODING 10349
SWIDTH 500 0
DWIDTH 7 0
BBX 7 14 0 -3
BITMAP
00
00
6C
6C
00
00
00
00
6C
6C
00
60
60
00
ENDCHAR
STARTCHAR BRAILLE PATTERN DOTS-23467
ENCODING 10350
SWIDTH 500 0
DWIDTH 7 0
BBX 7 14 0 -3
BITMAP
00
00
0C
0C
00
60
60
00
6C
6C
00
60
60
00
ENDCHAR
STARTCHAR BRAILLE PATTERN DOTS-123467
ENCODING 10351
SWIDTH 500 0
DWIDTH 7 0
BBX 7 14 0 -3
BITMAP
00
00
6C
6C
00
60
60
00
6C
6C
00
60
60
00
ENDCHAR
STARTCHAR BRAILLE PATTERN DOTS-567
ENCODING 10352
SWIDTH 500 0
DWIDTH 7 0
BBX 7 14 0 -3
BITMAP
00
00
00
00
00
0C
0C
00
0C
0C
00
60
60
00
ENDCHAR
STARTCHAR BRAILLE PATTERN DOTS-1567
ENCODING 10353
SWIDTH 500 0
DWIDTH 7 0
BBX 7 14 0 -3
BITMAP
00
00
60
60
00
0C
0C
00
0C
0C
00
60
60
00
ENDCHAR
STARTCHAR BRAILLE PATTERN DOTS-2567
ENCODING 10354
SWIDTH 500 0
DWIDTH 7 0
BBX 7 14 0 -3
BITMAP
00
00
00
00
00
6C
6C
00
0C
0C
00
60
60
00
ENDCHAR
STARTCHAR BRAILLE PATTERN DOTS-12567
ENCODING 10355
SWIDTH 500 0
DWIDTH 7 0
BBX 7 14 0 -3
BITMAP
00
00
60
60
00
6C
6C
00
0C
0C
00
60
60
00
ENDCHAR
STARTCHAR BRAILLE PATTERN DOTS-3567
ENCODING 10356
SWIDTH 500 0
DWIDTH 7 0
BBX 7 14 0 -3
BITMAP
00
00
00
00
00
0C
0C
00
6C
6C
00
60
60
00
ENDCHAR
STARTCHAR BRAILLE PATTERN DOTS-13567
ENCODING 10357
SWIDTH 500 0
DWIDTH 7 0
BBX 7 14 0 -3
BITMAP
00
00
60
60
00
0C
0C
00
6C
6C
00
60
60
00
ENDCHAR
STARTCHAR BRAILLE PATTERN DOTS-23567
ENCODING 10358
SWIDTH 500 0
DWIDTH 7 0
BBX 7 14 0 -3
BITMAP
00
00
00
00
00
6C
6C
00
6C
6C
00
60
60
00
ENDCHAR
STARTCHAR BRAILLE PATTERN DOTS-123567
ENCODING 10359
SWIDTH 500 0
DWIDTH 7 0
BBX 7 14 0 -3
BITMAP
00
00
60
60
00
6C
6C
00
6C
6C
00
60
60
00
ENDCHAR
STARTCHAR BRAILLE PATTERN DOTS-4567
ENCODING 10360
SWIDTH 500 0
DWIDTH 7 0
BBX 7 14 0 -3
BITMAP
00
00
0C
0C
00
0C
0C
00
0C
0C
00
60
60
00
ENDCHAR
STARTCHAR BRAILLE PATTERN DOTS-14567
ENCODING 10361
SWIDTH 500 0
DWIDTH 7 0
BBX 7 14 0 -3
BITMAP
00
00
6C
6C
00
0C
0C
00
0C
0C
00
60
60
00
ENDCHAR
STARTCHAR BRAILLE PATTERN DOTS-24567
ENCODING 10362
SWIDTH 500 0
DWIDTH 7 0
BBX 7 14 0 -3
BITMAP
00
00
0C
0C
00
6C
6C
00
0C
0C
00
60
60
00
ENDCHAR
STARTCHAR BRAILLE PATTERN DOTS-124567
ENCODING 10363
SWIDTH 500 0
DWIDTH 7 0
BBX 7 14 0 -3
BITMAP
00
00
6C
6C
00
6C
6C
00
0C
0C
00
60
60
00
ENDCHAR
STARTCHAR BRAILLE PATTERN DOTS-34567
ENCODING 10364
SWIDTH 500 0
DWIDTH 7 0
BBX 7 14 0 -3
BITMAP
00
00
0C
0C
00
0C
0C
00
6C
6C
00
60
60
00
ENDCHAR
STARTCHAR BRAILLE PATTERN DOTS-134567
ENCODING 10365
SWIDTH 500 0
DWIDTH 7 0
BBX 7 14 0 -3
BITMAP
00
00
6C
6C
00
0C
0C
00
6C
6C
00
60
60
00
ENDCHAR
STARTCHAR BRAILLE PATTERN DOTS-234567
ENCODING 10366
SWIDTH 500 0
DWIDTH 7 0
BBX 7 14 0 -3
BITMAP
00
00
0C
0C
00
6C
6C
00
6C
6C
00
60
60
00
ENDCHAR
STARTCHAR BRAILLE PATTERN DOTS-1234567
ENCODING 10367
SWIDTH 500 0
DWIDTH 7 0
BBX 7 14 0 -3
BITMAP
00
00
6C
6C
00
6C
6C
00
6C
6C
00
60
60
00
ENDCHAR
STARTCHAR BRAILLE PATTERN DOTS-8
ENCODING 10368
SWIDTH 500 0
DWIDTH 7 0
BBX 7 14 0 -3
BITMAP
00
00
00
00
00
00
00
00
00
00
00
0C
0C
00
ENDCHAR
STARTCHAR BRAILLE PATTERN DOTS-18
ENCODING 10369
SWIDTH 500 0
DWIDTH 7 0
BBX 7 14 0 -3
BITMAP
00
00
60
60
00
00
00
00
00
00
00
0C
0C
00
ENDCHAR
STARTCHAR BRAILLE PATTERN DOTS-28
ENCODING 10370
SWIDTH 500 0
DWIDTH 7 0
BBX 7 14 0 -3
BITMAP
00
00
00
00
00
60
60
00
00
00
00
0C
0C
00
ENDCHAR
STARTCHAR BRAILLE PATTERN DOTS-128
ENCODING 10371
SWIDTH 500 0
DWIDTH 7 0
BBX 7 14 0 -3
BITMAP
00
00
60
60
00
60
60
00
00
00
00
0C
0C
00
ENDCHAR
STARTCHAR BRAILLE PATTERN DOTS-38
ENCODING 10372
SWIDTH 500 0
DWIDTH 7 0
BBX 7 14 0 -3
BITMAP
00
00
00
00
00
00
00
00
60
60
00
0C
0C
00
ENDCHAR
STARTCHAR BRAILLE PATTERN DOTS-138
ENCODING 10373
SWIDTH 500 0
DWIDTH 7 0
BBX 7 14 0 -3
BITMAP
00
00
60
60
00
00
00
00
60
60
00
0C
0C
00
ENDCHAR
STARTCHAR BRAILLE PATTERN DOTS-238
ENCODING 10374
SWIDTH 500 0
DWIDTH 7 0
BBX 7 14 0 -3
BITMAP
00
00
00
00
00
60
60
00
60
60
00
0C
0C
00
ENDCHAR
STARTCHAR BRAILLE PATTERN DOTS-1238
ENCODING 10375
SWIDTH 500 0
DWIDTH 7 0
BBX 7 14 0 -3
BITMAP
00
00
60
60
00
60
60
00
60
60
00
0C
0C
00
ENDCHAR
STARTCHAR BRAILLE PATTERN DOTS-48
ENCODING 10376
SWIDTH 500 0
DWIDTH 7 0
BBX 7 14 0 -3
BITMAP
00
00
0C
0C
00
00
00
00
00
00
00
0C
0C
00
ENDCHAR
STARTCHAR BRAILLE PATTERN DOTS-148
ENCODING 10377
SWIDTH 500 0
DWIDTH 7 0
BBX 7 14 0 -3
BITMAP
00
00
6C
6C
00
00
00
00
00
00
00
0C
0C
00
ENDCHAR
STARTCHAR BRAILLE PATTERN DOTS-248
ENCODING 10378
SWIDTH 500 0
DWIDTH 7 0
BBX 7 14 0 -3
BITMAP
00
00
0C
0C
00
60
60
00
00
00
00
0C
0C
00
ENDCHAR
STARTCHAR BRAILLE PATTERN DOTS-1248
ENCODING 10379
SWIDTH 500 0
DWIDTH 7 0
BBX 7 14 0 -3
BITMAP
00
00
6C
6C
00
60
60
00
00
00
00
0C
0C
00
ENDCHAR
STARTCHAR BRAILLE PATTERN DOTS-348
ENCODING 10380
SWIDTH 500 0
DWIDTH 7 0
BBX 7 14 0 -3
BITMAP
00
00
0C
0C
00
00
00
00
60
60
00
0C
0C
00
ENDCHAR
STARTCHAR BRAILLE PATTERN DOTS-1348
ENCODING 10381
SWIDTH 500 0
DWIDTH 7 0
BBX 7 14 0 -3
BITMAP
00
00
6C
6C
00
00
00
00
60
60
00
0C
0C
00
ENDCHAR
STARTCHAR BRAILLE PATTERN DOTS-2348
ENCODING 10382
SWIDTH 500 0
DWIDTH 7 0
BBX 7 14 0 -3
BITMAP
00
00
0C
0C
00
60
60
00
60
60
00
0C
0C
00
ENDCHAR
STARTCHAR BRAILLE PATTERN DOTS-12348
ENCODING 10383
SWIDTH 500 0
DWIDTH 7 0
BBX 7 14 0 -3
BITMAP
00
00
6C
6C
00
60
60
00
60
60
00
0C
0C
00
ENDCHAR
STARTCHAR BRAILLE PATTERN DOTS-58
ENCODING 10384
SWIDTH 500 0
DWIDTH 7 0
BBX 7 14 0 -3
BITMAP
00
00
00
00
00
0C
0C
00
00
00
00
0C
0C
00
ENDCHAR
STARTCHAR BRAILLE PATTERN DOTS-158
ENCODING 10385
SWIDTH 500 0
DWIDTH 7 0
BBX 7 14 0 -3
BITMAP
00
00
60
60
00
0C
0C
00
00
00
00
0C
0C
00
ENDCHAR
STARTCHAR BRAILLE PATTERN DOTS-258
ENCODING 10386
SWIDTH 500 0
DWIDTH 7 0
BBX 7 14 0 -3
BITMAP
00
00
00
00
00
6C
6C
00
00
00
00
0C
0C
00
ENDCHAR
STARTCHAR BRAILLE PATTERN DOTS-1258
ENCODING 10387
SWIDTH 500 0
DWIDTH 7 0
BBX 7 14 0 -3
BITMAP
00
00
60
60
00
6C
6C
00
00
00
00
0C
0C
00
ENDCHAR
STARTCHAR BRAILLE PATTERN DOTS-358
ENCODING 10388
SWIDTH 500 0
DWIDTH 7 0
BBX 7 14 0 -3
BITMAP
00
00
00
00
00
0C
0C
00
60
60
00
0C
0C
00
ENDCHAR
STARTCHAR BRAILLE PATTERN DOTS-1358
ENCODING 10389
SWIDTH 500 0
DWIDTH 7 0
BBX 7 14 0 -3
BITMAP
00
00
60
60
00
0C
0C
00
60
60
00
0C
0C
00
ENDCHAR
STARTCHAR BRAILLE PATTERN DOTS-2358
ENCODING 10390
SWIDTH 500 0
DWIDTH 7 0
BBX 7 14 0 -3
BITMAP
00
00
00
00
00
6C
6C
00
60
60
00
0C
0C
00
ENDCHAR
STARTCHAR BRAILLE PATTERN DOTS-12358
ENCODING 10391
SWIDTH 500 0
DWIDTH 7 0
BBX 7 14 0 -3
BITMAP
00
00
60
60
00
6C
6C
00
60
60
00
0C
0C
00
ENDCHAR
STARTCHAR BRAILLE PATTERN DOTS-458
ENCODING 10392
SWIDTH 500 0
DWIDTH 7 0
BBX 7 14 0 -3
BITMAP
00
00
0C
0C
00
0C
0C
00
00
00
00
0C
0C
00
ENDCHAR
STARTCHAR BRAILLE PATTERN DOTS-1458
ENCODING 10393
SWIDTH 500 0
DWIDTH 7 0
BBX 7 14 0 -3
BITMAP
00
00
6C
6C
00
0C
0C
00
00
00
00
0C
0C
00
ENDCHAR
STARTCHAR BRAILLE PATTERN DOTS-2458
ENCODING 10394
SWIDTH 500 0
DWIDTH 7 0
BBX 7 14 0 -3
BITMAP
00
00
0C
0C
00
6C
6C
00
00
00
00
0C
0C
00
ENDCHAR
STARTCHAR BRAILLE PATTERN DOTS-12458
ENCODING 10395
SWIDTH 500 0
DWIDTH 7 0
BBX 7 14 0 -3
BITMAP
00
00
6C
6C
00
6C
6C
00
00
00
00
0C
0C
00
ENDCHAR
STARTCHAR BRAILLE PATTERN DOTS-3458
ENCODING 10396
SWIDTH 500 0
DWIDTH 7 0
BBX 7 14 0 -3
BITMAP
00
00
0C
0C
00
0C
0C
00
60
60
00
0C
0C
00
ENDCHAR
STARTCHAR BRAILLE PATTERN DOTS-13458
ENCODING 10397
SWIDTH 500 0
DWIDTH 7 0
BBX 7 14 0 -3
BITMAP
00
00
6C
6C
00
0C
0C
00
60
60
00
0C
0C
00
ENDCHAR
STARTCHAR BRAILLE PATTERN DOTS-23458
ENCODING 10398
SWIDTH 500 0
DWIDTH 7 0
BBX 7 14 0 -3
BITMAP
00
00
0C
0C
00
6C
6C
00
60
60
00
0C
0C
00
ENDCHAR
STARTCHAR BRAILLE PATTERN DOTS-123458
ENCODING 10399
SWIDTH 500 0
DWIDTH 7 0
BBX 7 14 0 -3
BITMAP
00
00
6C
6C
00
6C
6C
00
60
60
00
0C
0C
00
ENDCHAR
STARTCHAR BRAILLE PATTERN DOTS-68
ENCODING 10400
SWIDTH 500 0
DWIDTH 7 0
BBX 7 14 0 -3
BITMAP
00
00
00
00
00
00
00
00
0C
0C
00
0C
0C
00
ENDCHAR
STARTCHAR BRAILLE PATTERN DOTS-168
ENCODING 10401
SWIDTH 500 0
DWIDTH 7 0
BBX 7 14 0 -3
BITMAP
00
00
60
60
00
00
00
00
0C
0C
00
0C
0C
00
ENDCHAR
STARTCHAR BRAILLE PATTERN DOTS-268
ENCODING 10402
SWIDTH 500 0
DWIDTH 7 0
BBX 7 14 0 -3
BITMAP
00
00
00
00
00
60
60
00
0C
0C
00
0C
0C
00
ENDCHAR
STARTCHAR BRAILLE PATTERN DOTS-1268
ENCODING 10403
SWIDTH 500 0
DWIDTH 7 0
BBX 7 14 0 -3
BITMAP
00
00
60
60
00
60
60
00
0C
0C
00
0C
0C
00
ENDCHAR
STARTCHAR BRAILLE PATTERN DOTS-368
ENCODING 10404
SWIDTH 500 0
DWIDTH 7 0
BBX 7 14 0 -3
BITMAP
00
00
00
00
00
00
00
00
6C
6C
00
0C
0C
00
ENDCHAR
STARTCHAR BRAILLE PATTERN DOTS-1368
ENCODING 10405
SWIDTH 500 0
DWIDTH 7 0
BBX 7 14 0 -3
BITMAP
00
00
60
60
00
00
00
00
6C
6C
00
0C
0C
00
ENDCHAR
STARTCHAR BRAILLE PATTERN DOTS-2368
ENCODING 10406
SWIDTH 500 0
DWIDTH 7 0
BBX 7 14 0 -3
BITMAP
00
00
00
00
00
60
60
00
6C
6C
00
0C
0C
00
ENDCHAR
STARTCHAR BRAILLE PATTERN DOTS-12368
ENCODING 10407
SWIDTH 500 0
DWIDTH 7 0
BBX 7 14 0 -3
BITMAP
00
00
60
60
00
60
60
00
6C
6C
00
0C
0C
00
ENDCHAR
STARTCHAR BRAILLE PATTERN DOTS-468
ENCODING 10408
SWIDTH 500 0
DWIDTH 7 0
BBX 7 14 0 -3
BITMAP
00
00
0C
0C
00
00
00
00
0C
0C
00
0C
0C
00
ENDCHAR
STARTCHAR BRAILLE PATTERN DOTS-1468
ENCODING 10409
SWIDTH 500 0
DWIDTH 7 0
BBX 7 14 0 -3
BITMAP
00
00
6C
6C
00
00
00
00
0C
0C
00
0C
0C
00
ENDCHAR
STARTCHAR BRAILLE PATTERN DOTS-2468
ENCODING 10410
SWIDTH 500 0
DWIDTH 7 0
BBX 7 14 0 -3
BITMAP
00
00
0C
0C
00
60
60
00
0C
0C
00
0C
0C
00
ENDCHAR
STARTCHAR BRAILLE PATTERN DOTS-12468
ENCODING 10411
SWIDTH 500 0
DWIDTH 7 0
BBX 7 14 0 -3
BITMAP
00
00
6C
6C
00
60
60
00
0C
0C
00
0C
0C
00
ENDCHAR
STARTCHAR BRAILLE PATTERN DOTS-3468
ENCODING 10412
SWIDTH 500 0
DWIDTH 7 0
BBX 7 14 0 -3
BITMAP
00
00
0C
0C
00
00
00
00
6C
6C
00
0C
0C
00
ENDCHAR
STARTCHAR BRAILLE PATTERN DOTS-13468
ENCODING 10413
SWIDTH 500 0
DWIDTH 7 0
BBX 7 14 0 -3
BITMAP
00
00
6C
6C
00
00
00
00
6C
6C
00
0C
0C
00
ENDCHAR
STARTCHAR BRAILLE PATTERN DOTS-23468
ENCODING 10414
SWIDTH 500 0
DWIDTH 7 0
BBX 7 14 0 -3
BITMAP
00
00
0C
0C
00
60
60
00
6C
6C
00
0C
0C
00
ENDCHAR
STARTCHAR BRAILLE PATTERN DOTS-123468
ENCODING 10415
SWIDTH 500 0
DWIDTH 7 0
BBX 7 14 0 -3
BITMAP
00
00
6C
6C
00
60
60
00
6C
6C
00
0C
0C
00
ENDCHAR
STARTCHAR BRAILLE PATTERN DOTS-568
ENCODING 10416
SWIDTH 500 0
DWIDTH 7 0
BBX 7 14 0 -3
BITMAP
00
00
00
00
00
0C
0C
00
0C
0C
00
0C
0C
00
ENDCHAR
STARTCHAR BRAILLE PATTERN DOTS-1568
ENCODING 10417
SWIDTH 500 0
DWIDTH 7 0
BBX 7 14 0 -3
BITMAP
00
00
60
60
00
0C
0C
00
0C
0C
00
0C
0C
00
ENDCHAR
STARTCHAR BRAILLE PATTERN DOTS-2568
ENCODING 10418
SWIDTH 500 0
DWIDTH 7 0
BBX 7 14 0 -3
BITMAP
00
00
00
00
00
6C
6C
00
0C
0C
00
0C
0C
00
ENDCHAR
STARTCHAR BRAILLE PATTERN DOTS-12568
ENCODING 10419
SWIDTH 500 0
DWIDTH 7 0
BBX 7 14 0 -3
BITMAP
00
00
60
60
00
6C
6C
00
0C
0C
00
0C
0C
00
ENDCHAR
STARTCHAR BRAILLE PATTERN DOTS-3568
ENCODING 10420
SWIDTH 500 0
DWIDTH 7 0
BBX 7 14 0 -3
BITMAP
00
00
00
00
00
0C
0C
00
6C
6C
00
0C
0C
00
ENDCHAR
STARTCHAR BRAILLE PATTERN DOTS-13568
ENCODING 10421
SWIDTH 500 0
DWIDTH 7 0
BBX 7 14 0 -3
BITMAP
00
00
60
60
00
0C
0C
00
6C
6C
00
0C
0C
00
ENDCHAR
STARTCHAR BRAILLE PATTERN DOTS-23568
ENCODING 10422
SWIDTH 500 0
DWIDTH 7 0
BBX 7 14 0 -3
BITMAP
00
00
00
00
00
6C
6C
00
6C
6C
00
0C
0C
00
ENDCHAR
STARTCHAR BRAILLE PATTERN DOTS-123568
ENCODING 10423
SWIDTH 500 0
DWIDTH 7 0
BBX 7 14 0 -3
BITMAP
00
00
60
60
00
6C
6C
00
6C
6C
00
0C
0C
00
ENDCHAR
STARTCHAR BRAILLE PATTERN DOTS-4568
ENCODING 10424
SWIDTH 500 0
DWIDTH 7 0
BBX 7 14 0 -3
BITMAP
00
00
0C
0C
00
0C
0C
00
0C
0C
00
0C
0C
00
ENDCHAR
STARTCHAR BRAILLE PATTERN DOTS-14568
ENCODING 10425
SWIDTH 500 0
DWIDTH 7 0
BBX 7 14 0 -3
BITMAP
00
00
6C
6C
00
0C
0C
00
0C
0C
00
0C
0C
00
ENDCHAR
STARTCHAR BRAILLE PATTERN DOTS-24568
ENCODING 10426
SWIDTH 500 0
DWIDTH 7 0
BBX 7 14 0 -3
BITMAP
00
00
0C
0C
00
6C
6C
00
0C
0C
00
0C
0C
00
ENDCHAR
STARTCHAR BRAILLE PATTERN DOTS-124568
ENCODING 10427
SWIDTH 500 0
DWIDTH 7 0
BBX 7 14 0 -3
BITMAP
00
00
6C
6C
00
6C
6C
00
0C
0C
00
0C
0C
00
ENDCHAR
STARTCHAR BRAILLE PATTERN DOTS-34568
ENCODING 10428
SWIDTH 500 0
DWIDTH 7 0
BBX 7 14 0 -3
BITMAP
00
00
0C
0C
00
0C
0C
00
6C
6C
00
0C
0C
00
ENDCHAR
STARTCHAR BRAILLE PATTERN DOTS-134568
ENCODING 10429
SWIDTH 500 0
DWIDTH 7 0
BBX 7 14 0 -3
BITMAP
00
00
6C
6C
00
0C
0C
00
6C
6C
00
0C
0C
00
ENDCHAR
STARTCHAR BRAILLE PATTERN DOTS-234568
ENCODING 10430
SWIDTH 500 0
DWIDTH 7 0
BBX 7 14 0 -3
BITMAP
00
00
0C
0C
00
6C
6C
00
6C
6C
00
0C
0C
00
ENDCHAR
STARTCHAR BRAILLE PATTERN DOTS-1234568
ENCODING 10431
SWIDTH 500 0
DWIDTH 7 0
BBX 7 14 0 -3
BITMAP
00
00
6C
6C
00
6C
6C
00
6C
6C
00
0C
0C
00
ENDCHAR
STARTCHAR BRAILLE PATTERN DOTS-78
ENCODING 10432
SWIDTH 500 0
DWIDTH 7 0
BBX 7 14 0 -3
BITMAP
00
00
00
00
00
00
00
00
00
00
00
6C
6C
00
ENDCHAR
STARTCHAR BRAILLE PATTERN DOTS-178
ENCODING 10433
SWIDTH 500 0
DWIDTH 7 0
BBX 7 14 0 -3
BITMAP
00
00
60
60
00
00
00
00
00
00
00
6C
6C
00
ENDCHAR
STARTCHAR BRAILLE PATTERN DOTS-278
ENCODING 10434
SWIDTH 500 0
DWIDTH 7 0
BBX 7 14 0 -3
BITMAP
00
00
00
00
00
60
60
00
00
00
00
6C
6C
00
ENDCHAR
STARTCHAR BRAILLE PATTERN DOTS-1278
ENCODING 10435
SWIDTH 500 0
DWIDTH 7 0
BBX 7 14 0 -3
BITMAP
00
00
60
60
00
60
60
00
00
00
00
6C
6C
00
ENDCHAR
STARTCHAR BRAILLE PATTERN DOTS-378
ENCODING 10436
SWIDTH 500 0
DWIDTH 7 0
BBX 7 14 0 -3
BITMAP
00
00
00
00
00
00
00
00
60
60
00
6C
6C
00
ENDCHAR
STARTCHAR BRAILLE PATTERN DOTS-1378
ENCODING 10437
SWIDTH 500 0
DWIDTH 7 0
BBX 7 14 0 -3
BITMAP
00
00
60
60
00
00
00
00
60
60
00
6C
6C
00
ENDCHAR
STARTCHAR BRAILLE PATTERN DOTS-2378
ENCODING 10438
SWIDTH 500 0
DWIDTH 7 0
BBX 7 14 0 -3
BITMAP
00
00
00
00
00
60
60
00
60
60
00
6C
6C
00
ENDCHAR
STARTCHAR BRAILLE PATTERN DOTS-12378
ENCODING 10439
SWIDTH 500 0
DWIDTH 7 0
BBX 7 14 0 -3
BITMAP
00
00
60
60
00
60
60
00
60
60
00
6C
6C
00
ENDCHAR
STARTCHAR BRAILLE PATTERN DOTS-478
ENCODING 10440
SWIDTH 500 0
DWIDTH 7 0
BBX 7 14 0 -3
BITMAP
00
00
0C
0C
00
00
00
00
00
00
00
6C
6C
00
ENDCHAR
STARTCHAR BRAILLE PATTERN DOTS-1478
ENCODING 10441
SWIDTH 500 0
DWIDTH 7 0
BBX 7 14 0 -3
BITMAP
00
00
6C
6C
00
00
00
00
00
00
00
6C
6C
00
ENDCHAR
STARTCHAR BRAILLE PATTERN DOTS-2478
ENCODING 10442
SWIDTH 500 0
DWIDTH 7 0
BBX 7 14 0 -3
BITMAP
00
00
0C
0C
00
60
60
00
00
00
00
6C
6C
00
ENDCHAR
STARTCHAR BRAILLE PATTERN DOTS-12478
ENCODING 10443
SWIDTH 500 0
DWIDTH 7 0
BBX 7 14 0 -3
BITMAP
00
00
6C
6C
00
60
60
00
00
00
00
6C
6C
00
ENDCHAR
STARTCHAR BRAILLE PATTERN DOTS-3478
ENCODING 10444
SWIDTH 500 0
DWIDTH 7 0
BBX 7 14 0 -3
BITMAP
00
00
0C
0C
00
00
00
00
60
60
00
6C
6C
00
ENDCHAR
STARTCHAR BRAILLE PATTERN DOTS-13478
ENCODING 10445
SWIDTH 500 0
DWIDTH 7 0
BBX 7 14 0 -3
BITMAP
00
00
6C
6C
00
00
00
00
60
60
00
6C
6C
00
ENDCHAR
STARTCHAR BRAILLE PATTERN DOTS-23478
ENCODING 10446
SWIDTH 500 0
DWIDTH 7 0
BBX 7 14 0 -3
BITMAP
00
00
0C
0C
00
60
60
00
60
60
00
6C
6C
00
ENDCHAR
STARTCHAR BRAILLE PATTERN DOTS-123478
ENCODING 10447
SWIDTH 500 0
DWIDTH 7 0
BBX 7 14 0 -3
BITMAP
00
00
6C
6C
00
60
60
00
60
60
00
6C
6C
00
ENDCHAR
STARTCHAR BRAILLE PATTERN DOTS-578
ENCODING 10448
SWIDTH 500 0
DWIDTH 7 0
BBX 7 14 0 -3
BITMAP
00
00
00
00
00
0C
0C
00
00
00
00
6C
6C
00
ENDCHAR
STARTCHAR BRAILLE PATTERN DOTS-1578
ENCODING 10449
SWIDTH 500 0
DWIDTH 7 0
BBX 7 14 0 -3
BITMAP
00
00
60
60
00
0C
0C
00
00
00
00
6C
6C
00
ENDCHAR
STARTCHAR BRAILLE PATTERN DOTS-2578
ENCODING 10450
SWIDTH 500 0
DWIDTH 7 0
BBX 7 14 0 -3
BITMAP
00
00
00
00
00
6C
6C
00
00
00
00
6C
6C
00
ENDCHAR
STARTCHAR BRAILLE PATTERN DOTS-12578
ENCODING 10451
SWIDTH 500 0
DWIDTH 7 0
BBX 7 14 0 -3
BITMAP
00
00
60
60
00
6C
6C
00
00
00
00
6C
6C
00
ENDCHAR
STARTCHAR BRAILLE PATTERN DOTS-3578
ENCODING 10452
SWIDTH 500 0
DWIDTH 7 0
BBX 7 14 0 -3
BITMAP
00
00
00
00
00
0C
0C
00
60
60
00
6C
6C
00
ENDCHAR
STARTCHAR BRAILLE PATTERN DOTS-13578
ENCODING 10453
SWIDTH 500 0
DWIDTH 7 0
BBX 7 14 0 -3
BITMAP
00
00
60
60
00
0C
0C
00
60
60
00
6C
6C
00
ENDCHAR
STARTCHAR BRAILLE PATTERN DOTS-23578
ENCODING 10454
SWIDTH 500 0
DWIDTH 7 0
BBX 7 14 0 -3
BITMAP
00
00
00
00
00
6C
6C
00
60
60
00
6C
6C
00
ENDCHAR
STARTCHAR BRAILLE PATTERN DOTS-123578
ENCODING 10455
SWIDTH 500 0
DWIDTH 7 0
BBX 7 14 0 -3
BITMAP
00
00
60
60
00
6C
6C
00
60
60
00
6C
6C
00
ENDCHAR
STARTCHAR BRAILLE PATTERN DOTS-4578
ENCODING 10456
SWIDTH 500 0
DWIDTH 7 0
BBX 7 14 0 -3
BITMAP
00
00
0C
0C
00
0C
0C
00
00
00
00
6C
6C
00
ENDCHAR
STARTCHAR BRAILLE PATTERN DOTS-14578
ENCODING 10457
SWIDTH 500 0
DWIDTH 7 0
BBX 7 14 0 -3
BITMAP
00
00
6C
6C
00
0C
0C
00
00
00
00
6C
6C
00
ENDCHAR
STARTCHAR BRAILLE PATTERN DOTS-24578
ENCODING 10458
SWIDTH 500 0
DWIDTH 7 0
BBX 7 14 0 -3
BITMAP
00
00
0C
0C
00
6C
6C
00
00
00
00
6C
6C
00
ENDCHAR
STARTCHAR BRAILLE PATTERN DOTS-124578
ENCODING 10459
SWIDTH 500 0
DWIDTH 7 0
BBX 7 14 0 -3
BITMAP
00
00
6C
6C
00
6C
6C
00
00
00
00
6C
6C
00
ENDCHAR
STARTCHAR BRAILLE PATTERN DOTS-34578
ENCODING 10460
SWIDTH 500 0
DWIDTH 7 0
BBX 7 14 0 -3
BITMAP
00
00
0C
0C
00
0C
0C
00
60
60
00
6C
6C
00
ENDCHAR
STARTCHAR BRAILLE PATTERN DOTS-134578
ENCODING 10461
SWIDTH 500 0
DWIDTH 7 0
BBX 7 14 0 -3
BITMAP
00
00
6C
6C
00
0C
0C
00
60
60
00
6C
6C
00
ENDCHAR
STARTCHAR BRAILLE PATTERN DOTS-234578
ENCODING 10462
SWIDTH 500 0
DWIDTH 7 0
BBX 7 14 0 -3
BITMAP
00
00
0C
0C
00
6C
6C
00
60
60
00
6C
6C
00
ENDCHAR
STARTCHAR BRAILLE PATTERN DOTS-1234578
ENCODING 10463
SWIDTH 500 0
DWIDTH 7 0
BBX 7 14 0 -3
BITMAP
00
00
6C
6C
00
6C
6C
00
60
60
00
6C
6C
00
ENDCHAR
STARTCHAR BRAILLE PATTERN DOTS-678
ENCODING 10464
SWIDTH 500 0
DWIDTH 7 0
BBX 7 14 0 -3
BITMAP
00
00
00
00
00
00
00
00
0C
0C
00
6C
6C
00
ENDCHAR
STARTCHAR BRAILLE PATTERN DOTS-1678
ENCODING 10465
SWIDTH 500 0
DWIDTH 7 0
BBX 7 14 0 -3
BITMAP
00
00
60
60
00
00
00
00
0C
0C
00
6C
6C
00
ENDCHAR
STARTCHAR BRAILLE PATTERN DOTS-2678
ENCODING 10466
SWIDTH 500 0
DWIDTH 7 0
BBX 7 14 0 -3
BITMAP
00
00
00
00
00
60
60
00
0C
0C
00
6C
6C
00
ENDCHAR
STARTCHAR BRAILLE PATTERN DOTS-12678
ENCODING 10467
SWIDTH 500 0
DWIDTH 7 0
BBX 7 14 0 -3
BITMAP
00
00
60
60
00
60
60
00
0C
0C
00
6C
6C
00
ENDCHAR
STARTCHAR BRAILLE PATTERN DOTS-3678
ENCODING 10468
SWIDTH 500 0
DWIDTH 7 0
BBX 7 14 0 -3
BITMAP
00
00
00
00
00
00
00
00
6C
6C
00
6C
6C
00
ENDCHAR
STARTCHAR BRAILLE PATTERN DOTS-13678
ENCODING 10469
SWIDTH 500 0
DWIDTH 7 0
BBX 7 14 0 -3
BITMAP
00
00
60
60
00
00
00
00
6C
6C
00
6C
6C
00
ENDCHAR
STARTCHAR BRAILLE PATTERN DOTS-23678
ENCODING 10470
SWIDTH 500 0
DWIDTH 7 0
BBX 7 14 0 -3
BITMAP
00
00
00
00
00
60
60
00
6C
6C
00
6C
6C
00
ENDCHAR
STARTCHAR BRAILLE PATTERN DOTS-123678
ENCODING 10471
SWIDTH 500 0
DWIDTH 7 0
BBX 7 14 0 -3
BITMAP
00
00
60
60
00
60
60
00
6C
6C
00
6C
6C
00
ENDCHAR
STARTCHAR BRAILLE PATTERN DOTS-4678
ENCODING 10472
SWIDTH 500 0
DWIDTH 7 0
BBX 7 14 0 -3
BITMAP
00
00
0C
0C
00
00
00
00
0C
0C
00
6C
6C
00
ENDCHAR
STARTCHAR BRAILLE PATTERN DOTS-14678
ENCODING 10473
SWIDTH 500 0
DWIDTH 7 0
BBX 7 14 0 -3
BITMAP
00
00
6C
6C
00
00
00
00
0C
0C
00
6C
6C
00
ENDCHAR
STARTCHAR BRAILLE PATTERN DOTS-24678
ENCODING 10474
SWIDTH 500 0
DWIDTH 7 0
BBX 7 14 0 -3
BITMAP
00
00
0C
0C
00
60
60
00
0C
0C
00
6C
6C
00
ENDCHAR
STARTCHAR BRAILLE PATTERN DOTS-124678
ENCODING 10475
SWIDTH 500 0
DWIDTH 7 0
BBX 7 14 0 -3
BITMAP
00
00
6C
6C
00
60
60
00
0C
0C
00
6C
6C
00
ENDCHAR
STARTCHAR BRAILLE PATTERN DOTS-34678
ENCODING 10476
SWIDTH 500 0
DWIDTH 7 0
BBX 7 14 0 -3
BITMAP
00
00
0C
0C
00
00
00
00
6C
6C
00
6C
6C
00
ENDCHAR
STARTCHAR BRAILLE PATTERN DOTS-134678
ENCODING 10477
SWIDTH 500 0
DWIDTH 7 0
BBX 7 14 0 -3
BITMAP
00
00
6C
6C
00
00
00
00
6C
6C
00
6C
6C
00
ENDCHAR
STARTCHAR BRAILLE PATTERN DOTS-234678
ENCODING 10478
SWIDTH 500 0
DWIDTH 7 0
BBX 7 14 0 -3
BITMAP
00
00
0C
0C
00
60
60
00
6C
6C
00
6C
6C
00
ENDCHAR
STARTCHAR BRAILLE PATTERN DOTS-1234678
ENCODING 10479
SWIDTH 500 0
DWIDTH 7 0
BBX 7 14 0 -3
BITMAP
00
00
6C
6C
00
60
60
00
6C
6C
00
6C
6C
00
ENDCHAR
STARTCHAR BRAILLE PATTERN DOTS-5678
ENCODING 10480
SWIDTH 500 0
DWIDTH 7 0
BBX 7 14 0 -3
BITMAP
00
00
00
00
00
0C
0C
00
0C
0C
00
6C
6C
00
ENDCHAR
STARTCHAR BRAILLE PATTERN DOTS-15678
ENCODING 10481
SWIDTH 500 0
DWIDTH 7 0
BBX 7 14 0 -3
BITMAP
00
00
60
60
00
0C
0C
00
0C
0C
00
6C
6C
00
ENDCHAR
STARTCHAR BRAILLE PATTERN DOTS-25678
ENCODING 10482
SWIDTH 500 0
DWIDTH 7 0
BBX 7 14 0 -3
BITMAP
00
00
00
00
00
6C
6C
00
0C
0C
00
6C
6C
00
ENDCHAR
STARTCHAR BRAILLE PATTERN DOTS-125678
ENCODING 10483
SWIDTH 500 0
DWIDTH 7 0
BBX 7 14 0 -3
BITMAP
00
00
60
60
00
6C
6C
00
0C
0C
00
6C
6C
00
ENDCHAR
STARTCHAR BRAILLE PATTERN DOTS-35678
ENCODING 10484
SWIDTH 500 0
DWIDTH 7 0
BBX 7 14 0 -3
BITMAP
00
00
00
00
00
0C
0C
00
6C
6C
00
6C
6C
00
ENDCHAR
STARTCHAR BRAILLE PATTERN DOTS-135678
ENCODING 10485
SWIDTH 500 0
DWIDTH 7 0
BBX 7 14 0 -3
BITMAP
00
00
60
60
00
0C
0C
00
6C
6C
00
6C
6C
00
ENDCHAR
STARTCHAR BRAILLE PATTERN DOTS-235678
ENCODING 10486
SWIDTH 500 0
DWIDTH 7 0
BBX 7 14 0 -3
BITMAP
00
00
00
00
00
6C
6C
00
6C
6C
00
6C
6C
00
ENDCHAR
STARTCHAR BRAILLE PATTERN DOTS-1235678
ENCODING 10487
SWIDTH 500 0
DWIDTH 7 0
BBX 7 14 0 -3
BITMAP
00
00
60
60
00
6C
6C
00
6C
6C
00
6C
6C
00
ENDCHAR
STARTCHAR BRAILLE PATTERN DOTS-45678
ENCODING 10488
SWIDTH 500 0
DWIDTH 7 0
BBX 7 14 0 -3
BITMAP
00
00
0C
0C
00
0C
0C
00
0C
0C
00
6C
6C
00
ENDCHAR
STARTCHAR BRAILLE PATTERN DOTS-145678
ENCODING 10489
SWIDTH 500 0
DWIDTH 7 0
BBX 7 14 0 -3
BITMAP
00
00
6C
6C
00
0C
0C
00
0C
0C
00
6C
6C
00
ENDCHAR
STARTCHAR BRAILLE PATTERN DOTS-245678
ENCODING 10490
SWIDTH 500 0
DWIDTH 7 0
BBX 7 14 0 -3
BITMAP
00
00
0C
0C
00
6C
6C
00
0C
0C
00
6C
6C
00
ENDCHAR
STARTCHAR BRAILLE PATTERN DOTS-1245678
ENCODING 10491
SWIDTH 500 0
DWIDTH 7 0
BBX 7 14 0 -3
BITMAP
00
00
6C
6C
00
6C
6C
00
0C
0C
00
6C
6C
00
ENDCHAR
STARTCHAR BRAILLE PATTERN DOTS-345678
ENCODING 10492
SWIDTH 500 0
DWIDTH 7 0
BBX 7 14 0 -3
BITMAP
00
00
0C
0C
00
0C
0C
00
6C
6C
00
6C
6C
00
ENDCHAR
STARTCHAR BRAILLE PATTERN DOTS-1345678
ENCODING 10493
SWIDTH 500 0
DWIDTH 7 0
BBX 7 14 0 -3
BITMAP
00
00
6C
6C
00
0C
0C
00
6C
6C
00
6C
6C
00
ENDCHAR
STARTCHAR BRAILLE PATTERN DOTS-2345678
ENCODING 10494
SWIDTH 500 0
DWIDTH 7 0
BBX 7 14 0 -3
BITMAP
00
00
0C
0C
00
6C
6C
00
6C
6C
00
6C
6C
00
ENDCHAR
STARTCHAR BRAILLE PATTERN DOTS-12345678
ENCODING 10495
SWIDTH 500 0
DWIDTH 7 0
BBX 7 14 0 -3
BITMAP
00
00
6C
6C
00
6C
6C
00
6C
6C
00
6C
6C
00
ENDCHAR
STARTCHAR REPLACEMENT CHARACTER
ENCODING 65533
SWIDTH 500 0
DWIDTH 7 0
BBX 7 14 0 -3
BITMAP
00
6C
44
00
44
44
00
44
44
00
44
6C
00
00
ENDCHAR
ENDFONT
